{
.appVersion = "965";
DisplayStrings = (
"/de-cy/de-cy  \012/be-cy/u-cy/de-cy/ie-cy/te-cy  /de-cy/ie-cy/sha-cy/ie-cy/ve-cy/ie-cy/te-cy/softsign-cy"
);
copyright = "Copyright (c) 2010 by Anton Koovit. All rights reserved.";
date = "2010-04-19 19:43:45 +0000";
designer = "Anton Koovit";
designerURL = anton.korkork.com;
familyName = "Arvo Italic Source";
fontMaster = (
{
ascender = 760;
capHeight = 740;
customParameters = (
{
name = typoDescender;
value = -230;
},
{
name = typoLineGap;
value = 46;
},
{
name = hheaLineGap;
value = 23;
},
{
name = hheaAscender;
value = 864;
},
{
name = typoAscender;
value = 770;
},
{
name = hheaDescender;
value = -250;
},
{
name = winDescent;
value = 250;
},
{
name = winAscent;
value = 864;
}
);
descender = -230;
id = UUID1;
italicAngle = 13;
weightValue = 84;
xHeight = 506;
},
{
ascender = 760;
capHeight = 740;
customParameters = (
{
name = typoDescender;
value = -230;
},
{
name = typoLineGap;
value = 46;
},
{
name = hheaLineGap;
value = 23;
},
{
name = hheaAscender;
value = 864;
},
{
name = typoAscender;
value = 770;
},
{
name = hheaDescender;
value = -250;
},
{
name = winDescent;
value = 250;
},
{
name = winAscent;
value = 864;
}
);
descender = -230;
id = UUID0;
italicAngle = 13;
weight = Bold;
weightValue = 182;
xHeight = 506;
}
);
glyphs = (
{
color = 4;
glyphname = A;
lastChange = "2017-01-23 08:35:30 +0000";
layers = (
{
anchors = (
{
name = top;
position = "{477, 740}";
}
);
background = {
paths = (
{
closed = 1;
nodes = (
"443 134 LINE",
"484 134 LINE",
"476 236 LINE",
"272 236 LINE",
"218 134 LINE",
"280 134 LINE",
"249 0 LINE",
"-50 0 LINE",
"-19 134 LINE",
"43 134 LINE",
"380 740 LINE",
"593 740 LINE",
"648 134 LINE",
"742 134 LINE",
"711 0 LINE",
"412 0 LINE"
);
},
{
closed = 1;
nodes = (
"347 377 LINE",
"466 377 LINE",
"451 573 LINE"
);
},
{
closed = 1;
nodes = (
"0 760 LINE",
"722 760 LINE",
"722 0 LINE",
"0 0 LINE"
);
}
);
};
layerId = UUID0;
paths = (
{
closed = 1;
nodes = (
"-50 0 LINE",
"249 0 LINE",
"280 134 LINE",
"-19 134 LINE"
);
},
{
closed = 1;
nodes = (
"412 0 LINE",
"711 0 LINE",
"742 134 LINE",
"443 134 LINE"
);
},
{
closed = 1;
nodes = (
"173 236 LINE",
"529 236 LINE",
"503 377 LINE",
"258 377 LINE"
);
},
{
closed = 1;
nodes = (
"27 104 LINE",
"202 104 LINE",
"451 573 LINE",
"486 106 LINE",
"651 106 LINE",
"593 740 LINE",
"380 740 LINE"
);
}
);
width = 722;
},
{
anchors = (
{
name = top;
position = "{463, 740}";
}
);
background = {
paths = (
{
closed = 1;
nodes = (
"443 134 LINE",
"484 134 LINE",
"476 236 LINE",
"272 236 LINE",
"218 134 LINE",
"280 134 LINE",
"249 0 LINE",
"-50 0 LINE",
"-19 134 LINE",
"43 134 LINE",
"380 740 LINE",
"593 740 LINE",
"648 134 LINE",
"742 134 LINE",
"711 0 LINE",
"412 0 LINE"
);
},
{
closed = 1;
nodes = (
"347 377 LINE",
"466 377 LINE",
"451 573 LINE"
);
},
{
closed = 1;
nodes = (
"0 760 LINE",
"722 760 LINE",
"722 0 LINE",
"0 0 LINE"
);
}
);
};
layerId = UUID1;
paths = (
{
closed = 1;
nodes = (
"-73 0 LINE",
"167 0 LINE",
"186 84 LINE",
"-54 84 LINE"
);
},
{
closed = 1;
nodes = (
"430 0 LINE",
"670 0 LINE",
"689 84 LINE",
"449 84 LINE"
);
},
{
closed = 1;
nodes = (
"178 251 LINE",
"542 251 LINE",
"529 335 LINE",
"226 335 LINE"
);
},
{
closed = 1;
nodes = (
"-15 40 LINE",
"95 40 LINE",
"447 671 LINE",
"516 42 LINE",
"621 42 LINE",
"539 740 LINE",
"381 740 LINE"
);
}
);
width = 711;
}
);
leftKerningGroup = A;
rightKerningGroup = A;
unicode = 0041;
},
{
color = 4;
glyphname = Aacute;
lastChange = "2017-01-23 08:35:30 +0000";
layers = (
{
background = {
paths = (
{
closed = 1;
nodes = (
"443 134 LINE",
"484 134 LINE",
"476 236 LINE",
"272 236 LINE",
"218 134 LINE",
"280 134 LINE",
"249 0 LINE",
"-50 0 LINE",
"-19 134 LINE",
"43 134 LINE",
"380 740 LINE",
"593 740 LINE",
"648 134 LINE",
"742 134 LINE",
"711 0 LINE",
"412 0 LINE"
);
},
{
closed = 1;
nodes = (
"347 377 LINE",
"466 377 LINE",
"451 573 LINE"
);
},
{
closed = 1;
nodes = (
"505 961 LINE",
"664 961 LINE",
"664 949 LINE",
"515 810 LINE",
"400 810 LINE"
);
},
{
closed = 1;
nodes = (
"0 760 LINE",
"722 760 LINE",
"722 0 LINE",
"0 0 LINE"
);
}
);
};
components = (
{
name = A;
},
{
name = acute;
transform = "{1, 0, 0, 1, 380, 234}";
}
);
layerId = UUID0;
width = 722;
},
{
background = {
paths = (
{
closed = 1;
nodes = (
"443 134 LINE",
"484 134 LINE",
"476 236 LINE",
"272 236 LINE",
"218 134 LINE",
"280 134 LINE",
"249 0 LINE",
"-50 0 LINE",
"-19 134 LINE",
"43 134 LINE",
"380 740 LINE",
"593 740 LINE",
"648 134 LINE",
"742 134 LINE",
"711 0 LINE",
"412 0 LINE"
);
},
{
closed = 1;
nodes = (
"347 377 LINE",
"466 377 LINE",
"451 573 LINE"
);
},
{
closed = 1;
nodes = (
"505 961 LINE",
"664 961 LINE",
"664 949 LINE",
"515 810 LINE",
"400 810 LINE"
);
},
{
closed = 1;
nodes = (
"0 760 LINE",
"722 760 LINE",
"722 0 LINE",
"0 0 LINE"
);
}
);
};
components = (
{
name = A;
},
{
name = acute;
transform = "{1, 0, 0, 1, 357, 234}";
}
);
layerId = UUID1;
width = 711;
}
);
leftKerningGroup = A;
rightKerningGroup = A;
unicode = 00C1;
},
{
color = 4;
glyphname = Abreve;
lastChange = "2017-01-23 08:35:30 +0000";
layers = (
{
background = {
paths = (
{
closed = 1;
nodes = (
"443 134 LINE",
"484 134 LINE",
"476 236 LINE",
"272 236 LINE",
"218 134 LINE",
"280 134 LINE",
"249 0 LINE",
"-50 0 LINE",
"-19 134 LINE",
"43 134 LINE",
"380 740 LINE",
"593 740 LINE",
"648 134 LINE",
"742 134 LINE",
"711 0 LINE",
"412 0 LINE"
);
},
{
closed = 1;
nodes = (
"347 377 LINE",
"466 377 LINE",
"451 573 LINE"
);
},
{
closed = 1;
nodes = (
"469 799 LINE",
"422 799 LINE",
"352 820 LINE",
"300 861 LINE",
"265 919 LINE",
"253 958 LINE",
"376 958 LINE",
"386 928 LINE",
"432 897 LINE",
"469 897 LINE",
"504 897 LINE",
"549 926 LINE",
"561 958 LINE",
"683 958 LINE",
"672 920 LINE",
"637 861 LINE",
"585 821 LINE",
"515 799 LINE"
);
},
{
closed = 1;
nodes = (
"0 760 LINE",
"722 760 LINE",
"722 0 LINE",
"0 0 LINE"
);
}
);
};
components = (
{
name = A;
},
{
name = breve;
transform = "{1, 0, 0, 1, 233, 234}";
}
);
layerId = UUID0;
width = 722;
},
{
background = {
paths = (
{
closed = 1;
nodes = (
"443 134 LINE",
"484 134 LINE",
"476 236 LINE",
"272 236 LINE",
"218 134 LINE",
"280 134 LINE",
"249 0 LINE",
"-50 0 LINE",
"-19 134 LINE",
"43 134 LINE",
"380 740 LINE",
"593 740 LINE",
"648 134 LINE",
"742 134 LINE",
"711 0 LINE",
"412 0 LINE"
);
},
{
closed = 1;
nodes = (
"347 377 LINE",
"466 377 LINE",
"451 573 LINE"
);
},
{
closed = 1;
nodes = (
"469 799 LINE",
"422 799 LINE",
"352 820 LINE",
"300 861 LINE",
"265 919 LINE",
"253 958 LINE",
"376 958 LINE",
"386 928 LINE",
"432 897 LINE",
"469 897 LINE",
"504 897 LINE",
"549 926 LINE",
"561 958 LINE",
"683 958 LINE",
"672 920 LINE",
"637 861 LINE",
"585 821 LINE",
"515 799 LINE"
);
},
{
closed = 1;
nodes = (
"0 760 LINE",
"722 760 LINE",
"722 0 LINE",
"0 0 LINE"
);
}
);
};
components = (
{
name = A;
},
{
name = breve;
transform = "{1, 0, 0, 1, 249, 234}";
}
);
layerId = UUID1;
width = 711;
}
);
leftKerningGroup = A;
rightKerningGroup = A;
unicode = 0102;
},
{
color = 4;
glyphname = Acircumflex;
lastChange = "2017-01-23 08:35:30 +0000";
layers = (
{
background = {
paths = (
{
closed = 1;
nodes = (
"443 134 LINE",
"484 134 LINE",
"476 236 LINE",
"272 236 LINE",
"218 134 LINE",
"280 134 LINE",
"249 0 LINE",
"-50 0 LINE",
"-19 134 LINE",
"43 134 LINE",
"380 740 LINE",
"593 740 LINE",
"648 134 LINE",
"742 134 LINE",
"711 0 LINE",
"412 0 LINE"
);
},
{
closed = 1;
nodes = (
"347 377 LINE",
"466 377 LINE",
"451 573 LINE"
);
},
{
closed = 1;
nodes = (
"283 810 LINE",
"457 968 LINE",
"574 968 LINE",
"670 810 LINE",
"549 810 LINE",
"502 886 LINE",
"418 810 LINE"
);
},
{
closed = 1;
nodes = (
"0 760 LINE",
"722 760 LINE",
"722 0 LINE",
"0 0 LINE"
);
}
);
};
components = (
{
name = A;
},
{
name = circumflex;
transform = "{1, 0, 0, 1, 234, 234}";
}
);
layerId = UUID0;
width = 722;
},
{
background = {
paths = (
{
closed = 1;
nodes = (
"443 134 LINE",
"484 134 LINE",
"476 236 LINE",
"272 236 LINE",
"218 134 LINE",
"280 134 LINE",
"249 0 LINE",
"-50 0 LINE",
"-19 134 LINE",
"43 134 LINE",
"380 740 LINE",
"593 740 LINE",
"648 134 LINE",
"742 134 LINE",
"711 0 LINE",
"412 0 LINE"
);
},
{
closed = 1;
nodes = (
"347 377 LINE",
"466 377 LINE",
"451 573 LINE"
);
},
{
closed = 1;
nodes = (
"283 810 LINE",
"457 968 LINE",
"574 968 LINE",
"670 810 LINE",
"549 810 LINE",
"502 886 LINE",
"418 810 LINE"
);
},
{
closed = 1;
nodes = (
"0 760 LINE",
"722 760 LINE",
"722 0 LINE",
"0 0 LINE"
);
}
);
};
components = (
{
name = A;
},
{
name = circumflex;
transform = "{1, 0, 0, 1, 261, 234}";
}
);
layerId = UUID1;
width = 711;
}
);
leftKerningGroup = A;
rightKerningGroup = A;
unicode = 00C2;
},
{
color = 4;
glyphname = Adieresis;
lastChange = "2017-01-23 08:35:30 +0000";
layers = (
{
background = {
paths = (
{
closed = 1;
nodes = (
"443 134 LINE",
"484 134 LINE",
"476 236 LINE",
"272 236 LINE",
"218 134 LINE",
"280 134 LINE",
"249 0 LINE",
"-50 0 LINE",
"-19 134 LINE",
"43 134 LINE",
"380 740 LINE",
"593 740 LINE",
"648 134 LINE",
"742 134 LINE",
"711 0 LINE",
"412 0 LINE"
);
},
{
closed = 1;
nodes = (
"347 377 LINE",
"466 377 LINE",
"451 573 LINE"
);
},
{
closed = 1;
nodes = (
"304 889 LINE",
"304 907 LINE",
"317 939 LINE",
"340 963 LINE",
"372 977 LINE",
"391 977 LINE",
"408 977 LINE",
"439 963 LINE",
"463 939 LINE",
"477 907 LINE",
"477 889 LINE",
"477 871 LINE",
"463 839 LINE",
"439 816 LINE",
"408 802 LINE",
"391 802 LINE",
"372 802 LINE",
"340 816 LINE",
"317 839 LINE",
"304 871 LINE"
);
},
{
closed = 1;
nodes = (
"538 889 LINE",
"538 907 LINE",
"551 939 LINE",
"575 963 LINE",
"606 977 LINE",
"625 977 LINE",
"643 977 LINE",
"674 963 LINE",
"697 939 LINE",
"711 907 LINE",
"711 889 LINE",
"711 871 LINE",
"697 839 LINE",
"674 816 LINE",
"643 802 LINE",
"625 802 LINE",
"606 802 LINE",
"575 816 LINE",
"551 839 LINE",
"538 871 LINE"
);
},
{
closed = 1;
nodes = (
"0 760 LINE",
"722 760 LINE",
"722 0 LINE",
"0 0 LINE"
);
}
);
};
components = (
{
name = A;
},
{
name = dieresis;
transform = "{1, 0, 0, 1, 227, 233}";
}
);
layerId = UUID0;
width = 722;
},
{
background = {
paths = (
{
closed = 1;
nodes = (
"443 134 LINE",
"484 134 LINE",
"476 236 LINE",
"272 236 LINE",
"218 134 LINE",
"280 134 LINE",
"249 0 LINE",
"-50 0 LINE",
"-19 134 LINE",
"43 134 LINE",
"380 740 LINE",
"593 740 LINE",
"648 134 LINE",
"742 134 LINE",
"711 0 LINE",
"412 0 LINE"
);
},
{
closed = 1;
nodes = (
"347 377 LINE",
"466 377 LINE",
"451 573 LINE"
);
},
{
closed = 1;
nodes = (
"304 889 LINE",
"304 907 LINE",
"317 939 LINE",
"340 963 LINE",
"372 977 LINE",
"391 977 LINE",
"408 977 LINE",
"439 963 LINE",
"463 939 LINE",
"477 907 LINE",
"477 889 LINE",
"477 871 LINE",
"463 839 LINE",
"439 816 LINE",
"408 802 LINE",
"391 802 LINE",
"372 802 LINE",
"340 816 LINE",
"317 839 LINE",
"304 871 LINE"
);
},
{
closed = 1;
nodes = (
"538 889 LINE",
"538 907 LINE",
"551 939 LINE",
"575 963 LINE",
"606 977 LINE",
"625 977 LINE",
"643 977 LINE",
"674 963 LINE",
"697 939 LINE",
"711 907 LINE",
"711 889 LINE",
"711 871 LINE",
"697 839 LINE",
"674 816 LINE",
"643 802 LINE",
"625 802 LINE",
"606 802 LINE",
"575 816 LINE",
"551 839 LINE",
"538 871 LINE"
);
},
{
closed = 1;
nodes = (
"0 760 LINE",
"722 760 LINE",
"722 0 LINE",
"0 0 LINE"
);
}
);
};
components = (
{
name = A;
},
{
name = dieresis;
transform = "{1, 0, 0, 1, 226, 234}";
}
);
layerId = UUID1;
width = 711;
}
);
leftKerningGroup = A;
rightKerningGroup = A;
unicode = 00C4;
},
{
color = 4;
glyphname = Agrave;
lastChange = "2017-01-23 08:35:30 +0000";
layers = (
{
background = {
paths = (
{
closed = 1;
nodes = (
"443 134 LINE",
"484 134 LINE",
"476 236 LINE",
"272 236 LINE",
"218 134 LINE",
"280 134 LINE",
"249 0 LINE",
"-50 0 LINE",
"-19 134 LINE",
"43 134 LINE",
"380 740 LINE",
"593 740 LINE",
"648 134 LINE",
"742 134 LINE",
"711 0 LINE",
"412 0 LINE"
);
},
{
closed = 1;
nodes = (
"347 377 LINE",
"466 377 LINE",
"451 573 LINE"
);
},
{
closed = 1;
nodes = (
"456 810 LINE",
"313 949 LINE",
"313 961 LINE",
"472 961 LINE",
"568 810 LINE"
);
},
{
closed = 1;
nodes = (
"0 760 LINE",
"722 760 LINE",
"722 0 LINE",
"0 0 LINE"
);
}
);
};
components = (
{
name = A;
},
{
name = grave;
transform = "{1, 0, 0, 1, 231, 234}";
}
);
layerId = UUID0;
width = 722;
},
{
background = {
paths = (
{
closed = 1;
nodes = (
"443 134 LINE",
"484 134 LINE",
"476 236 LINE",
"272 236 LINE",
"218 134 LINE",
"280 134 LINE",
"249 0 LINE",
"-50 0 LINE",
"-19 134 LINE",
"43 134 LINE",
"380 740 LINE",
"593 740 LINE",
"648 134 LINE",
"742 134 LINE",
"711 0 LINE",
"412 0 LINE"
);
},
{
closed = 1;
nodes = (
"347 377 LINE",
"466 377 LINE",
"451 573 LINE"
);
},
{
closed = 1;
nodes = (
"456 810 LINE",
"313 949 LINE",
"313 961 LINE",
"472 961 LINE",
"568 810 LINE"
);
},
{
closed = 1;
nodes = (
"0 760 LINE",
"722 760 LINE",
"722 0 LINE",
"0 0 LINE"
);
}
);
};
components = (
{
name = A;
},
{
name = grave;
transform = "{1, 0, 0, 1, 216, 234}";
}
);
layerId = UUID1;
width = 711;
}
);
leftKerningGroup = A;
rightKerningGroup = A;
unicode = 00C0;
},
{
color = 6;
glyphname = Aogonek;
lastChange = "2017-01-23 08:35:30 +0000";
layers = (
{
background = {
paths = (
{
closed = 1;
nodes = (
"-19 134 LINE",
"43 134 LINE",
"380 740 LINE",
"593 740 LINE",
"648 134 LINE",
"742 134 LINE",
"711 0 LINE",
"616 0 LINE",
"571 0 LINE",
"501 -19 LINE",
"454 -50 LINE",
"429 -87 LINE",
"429 -105 LINE",
"429 -124 LINE",
"453 -138 LINE",
"464 -138 LINE",
"483 -138 LINE",
"509 -132 LINE",
"519 -127 LINE",
"543 -210 LINE",
"532 -216 LINE",
"482 -230 LINE",
"456 -230 LINE",
"426 -230 LINE",
"375 -216 LINE",
"336 -190 LINE",
"314 -152 LINE",
"314 -127 LINE",
"314 -85 LINE",
"372 -22 LINE",
"412 0 LINE",
"443 134 LINE",
"484 134 LINE",
"476 236 LINE",
"272 236 LINE",
"218 134 LINE",
"280 134 LINE",
"249 0 LINE",
"-50 0 LINE"
);
},
{
closed = 1;
nodes = (
"347 377 LINE",
"465 377 LINE",
"451 573 LINE"
);
},
{
closed = 1;
nodes = (
"0 760 LINE",
"722 760 LINE",
"722 0 LINE",
"0 0 LINE"
);
}
);
};
layerId = UUID0;
paths = (
{
closed = 1;
nodes = (
"536 47 LINE",
"462 31 OFFCURVE",
"314 -27 OFFCURVE",
"314 -127 CURVE SMOOTH",
"314 -193 OFFCURVE",
"377 -230 OFFCURVE",
"456 -230 CURVE SMOOTH",
"491 -230 OFFCURVE",
"529 -218 OFFCURVE",
"543 -210 CURVE",
"519 -127 LINE",
"506 -133 OFFCURVE",
"489 -138 OFFCURVE",
"464 -138 CURVE SMOOTH",
"450 -138 OFFCURVE",
"429 -130 OFFCURVE",
"429 -105 CURVE SMOOTH",
"429 -57 OFFCURVE",
"496 0 OFFCURVE",
"616 0 CURVE"
);
},
{
closed = 1;
nodes = (
"-50 0 LINE",
"249 0 LINE",
"280 134 LINE",
"-19 134 LINE"
);
},
{
closed = 1;
nodes = (
"412 0 LINE",
"711 0 LINE",
"742 134 LINE",
"443 134 LINE"
);
},
{
closed = 1;
nodes = (
"173 236 LINE",
"529 236 LINE",
"503 377 LINE",
"258 377 LINE"
);
},
{
closed = 1;
nodes = (
"27 104 LINE",
"202 104 LINE",
"451 573 LINE",
"486 106 LINE",
"651 106 LINE",
"593 740 LINE",
"380 740 LINE"
);
}
);
width = 722;
},
{
background = {
paths = (
{
closed = 1;
nodes = (
"-19 134 LINE",
"43 134 LINE",
"380 740 LINE",
"593 740 LINE",
"648 134 LINE",
"742 134 LINE",
"711 0 LINE",
"616 0 LINE",
"571 0 LINE",
"501 -19 LINE",
"454 -50 LINE",
"429 -87 LINE",
"429 -105 LINE",
"429 -124 LINE",
"453 -138 LINE",
"464 -138 LINE",
"483 -138 LINE",
"509 -132 LINE",
"519 -127 LINE",
"543 -210 LINE",
"532 -216 LINE",
"482 -230 LINE",
"456 -230 LINE",
"426 -230 LINE",
"375 -216 LINE",
"336 -190 LINE",
"314 -152 LINE",
"314 -127 LINE",
"314 -85 LINE",
"372 -22 LINE",
"412 0 LINE",
"443 134 LINE",
"484 134 LINE",
"476 236 LINE",
"272 236 LINE",
"218 134 LINE",
"280 134 LINE",
"249 0 LINE",
"-50 0 LINE"
);
},
{
closed = 1;
nodes = (
"347 377 LINE",
"465 377 LINE",
"451 573 LINE"
);
},
{
closed = 1;
nodes = (
"0 760 LINE",
"722 760 LINE",
"722 0 LINE",
"0 0 LINE"
);
}
);
};
layerId = UUID1;
paths = (
{
closed = 1;
nodes = (
"520 39 LINE",
"463 24 OFFCURVE",
"347 -27 OFFCURVE",
"347 -127 CURVE SMOOTH",
"347 -193 OFFCURVE",
"405 -230 OFFCURVE",
"484 -230 CURVE SMOOTH",
"521 -230 OFFCURVE",
"554 -219 OFFCURVE",
"571 -209 CURVE",
"550 -147 LINE",
"537 -153 OFFCURVE",
"512 -158 OFFCURVE",
"487 -158 CURVE SMOOTH",
"454 -158 OFFCURVE",
"432 -137 OFFCURVE",
"432 -110 CURVE SMOOTH",
"432 -61 OFFCURVE",
"496 -1 OFFCURVE",
"604 0 CURVE"
);
},
{
closed = 1;
nodes = (
"-73 0 LINE",
"167 0 LINE",
"186 84 LINE",
"-54 84 LINE"
);
},
{
closed = 1;
nodes = (
"430 0 LINE",
"670 0 LINE",
"689 84 LINE",
"449 84 LINE"
);
},
{
closed = 1;
nodes = (
"178 251 LINE",
"542 251 LINE",
"529 335 LINE",
"226 335 LINE"
);
},
{
closed = 1;
nodes = (
"-15 40 LINE",
"95 40 LINE",
"447 671 LINE",
"516 42 LINE",
"621 42 LINE",
"539 740 LINE",
"381 740 LINE"
);
}
);
width = 711;
}
);
leftKerningGroup = A;
rightKerningGroup = A;
unicode = 0104;
},
{
color = 4;
glyphname = Aring;
lastChange = "2017-01-23 08:35:30 +0000";
layers = (
{
background = {
paths = (
{
closed = 1;
nodes = (
"443 134 LINE",
"484 134 LINE",
"476 236 LINE",
"272 236 LINE",
"218 134 LINE",
"280 134 LINE",
"249 0 LINE",
"-50 0 LINE",
"-19 134 LINE",
"43 134 LINE",
"350 686 LINE",
"333 703 LINE",
"315 747 LINE",
"315 771 LINE",
"315 800 LINE",
"341 851 LINE",
"386 889 LINE",
"445 911 LINE",
"479 911 LINE",
"513 911 LINE",
"573 889 LINE",
"618 851 LINE",
"644 800 LINE",
"644 771 LINE",
"644 743 LINE",
"620 694 LINE",
"599 675 LINE",
"648 134 LINE",
"742 134 LINE",
"711 0 LINE",
"412 0 LINE"
);
},
{
closed = 1;
nodes = (
"347 377 LINE",
"466 377 LINE",
"451 573 LINE"
);
},
{
closed = 1;
nodes = (
"417 771 LINE",
"417 759 LINE",
"427 739 LINE",
"443 725 LINE",
"466 716 LINE",
"479 716 LINE",
"492 716 LINE",
"515 725 LINE",
"531 739 LINE",
"541 759 LINE",
"541 771 LINE",
"541 782 LINE",
"531 802 LINE",
"515 817 LINE",
"492 825 LINE",
"479 825 LINE",
"466 825 LINE",
"443 817 LINE",
"427 802 LINE",
"417 782 LINE"
);
},
{
closed = 1;
nodes = (
"0 760 LINE",
"722 760 LINE",
"722 0 LINE",
"0 0 LINE"
);
}
);
};
layerId = UUID0;
paths = (
{
closed = 1;
nodes = (
"-50 0 LINE",
"249 0 LINE",
"280 134 LINE",
"-19 134 LINE"
);
},
{
closed = 1;
nodes = (
"412 0 LINE",
"711 0 LINE",
"742 134 LINE",
"443 134 LINE"
);
},
{
closed = 1;
nodes = (
"173 236 LINE",
"529 236 LINE",
"503 377 LINE",
"258 377 LINE"
);
},
{
closed = 1;
nodes = (
"27 104 LINE",
"202 104 LINE",
"451 573 LINE",
"486 106 LINE",
"651 106 LINE",
"593 740 LINE",
"380 740 LINE"
);
},
{
closed = 1;
nodes = (
"429 841 OFFCURVE",
"456 867 OFFCURVE",
"490 867 CURVE SMOOTH",
"524 867 OFFCURVE",
"550 841 OFFCURVE",
"550 807 CURVE SMOOTH",
"550 773 OFFCURVE",
"524 746 OFFCURVE",
"490 746 CURVE SMOOTH",
"456 746 OFFCURVE",
"429 773 OFFCURVE",
"429 807 CURVE SMOOTH"
);
},
{
closed = 1;
nodes = (
"405 962 OFFCURVE",
"335 892 OFFCURVE",
"335 807 CURVE SMOOTH",
"335 722 OFFCURVE",
"405 652 OFFCURVE",
"490 652 CURVE SMOOTH",
"575 652 OFFCURVE",
"645 722 OFFCURVE",
"645 807 CURVE SMOOTH",
"645 892 OFFCURVE",
"575 962 OFFCURVE",
"490 962 CURVE SMOOTH"
);
}
);
width = 722;
},
{
background = {
paths = (
{
closed = 1;
nodes = (
"443 134 LINE",
"484 134 LINE",
"476 236 LINE",
"272 236 LINE",
"218 134 LINE",
"280 134 LINE",
"249 0 LINE",
"-50 0 LINE",
"-19 134 LINE",
"43 134 LINE",
"350 686 LINE",
"333 703 LINE",
"315 747 LINE",
"315 771 LINE",
"315 800 LINE",
"341 851 LINE",
"386 889 LINE",
"445 911 LINE",
"479 911 LINE",
"513 911 LINE",
"573 889 LINE",
"618 851 LINE",
"644 800 LINE",
"644 771 LINE",
"644 743 LINE",
"620 694 LINE",
"599 675 LINE",
"648 134 LINE",
"742 134 LINE",
"711 0 LINE",
"412 0 LINE"
);
},
{
closed = 1;
nodes = (
"347 377 LINE",
"466 377 LINE",
"451 573 LINE"
);
},
{
closed = 1;
nodes = (
"417 771 LINE",
"417 759 LINE",
"427 739 LINE",
"443 725 LINE",
"466 716 LINE",
"479 716 LINE",
"492 716 LINE",
"515 725 LINE",
"531 739 LINE",
"541 759 LINE",
"541 771 LINE",
"541 782 LINE",
"531 802 LINE",
"515 817 LINE",
"492 825 LINE",
"479 825 LINE",
"466 825 LINE",
"443 817 LINE",
"427 802 LINE",
"417 782 LINE"
);
},
{
closed = 1;
nodes = (
"0 760 LINE",
"722 760 LINE",
"722 0 LINE",
"0 0 LINE"
);
}
);
};
layerId = UUID1;
paths = (
{
closed = 1;
nodes = (
"-73 0 LINE",
"167 0 LINE",
"186 84 LINE",
"-54 84 LINE"
);
},
{
closed = 1;
nodes = (
"430 0 LINE",
"670 0 LINE",
"689 84 LINE",
"449 84 LINE"
);
},
{
closed = 1;
nodes = (
"178 251 LINE",
"542 251 LINE",
"529 335 LINE",
"226 335 LINE"
);
},
{
closed = 1;
nodes = (
"-15 40 LINE",
"95 40 LINE",
"447 671 LINE",
"516 42 LINE",
"621 42 LINE",
"539 740 LINE",
"381 740 LINE"
);
},
{
closed = 1;
nodes = (
"411 827 OFFCURVE",
"435 851 OFFCURVE",
"462 851 CURVE SMOOTH",
"489 851 OFFCURVE",
"513 827 OFFCURVE",
"513 800 CURVE SMOOTH",
"513 773 OFFCURVE",
"489 749 OFFCURVE",
"462 749 CURVE SMOOTH",
"435 749 OFFCURVE",
"411 773 OFFCURVE",
"411 800 CURVE SMOOTH"
);
},
{
closed = 1;
nodes = (
"394 925 OFFCURVE",
"337 868 OFFCURVE",
"337 800 CURVE SMOOTH",
"337 732 OFFCURVE",
"394 675 OFFCURVE",
"462 675 CURVE SMOOTH",
"530 675 OFFCURVE",
"587 732 OFFCURVE",
"587 800 CURVE SMOOTH",
"587 868 OFFCURVE",
"530 925 OFFCURVE",
"462 925 CURVE SMOOTH"
);
}
);
width = 711;
}
);
leftKerningGroup = A;
rightKerningGroup = A;
unicode = 00C5;
},
{
color = 4;
glyphname = Atilde;
lastChange = "2017-01-23 08:35:30 +0000";
layers = (
{
background = {
paths = (
{
closed = 1;
nodes = (
"443 134 LINE",
"484 134 LINE",
"476 236 LINE",
"272 236 LINE",
"218 134 LINE",
"280 134 LINE",
"249 0 LINE",
"-50 0 LINE",
"-19 134 LINE",
"43 134 LINE",
"380 740 LINE",
"593 740 LINE",
"648 134 LINE",
"742 134 LINE",
"711 0 LINE",
"412 0 LINE"
);
},
{
closed = 1;
nodes = (
"347 377 LINE",
"466 377 LINE",
"451 573 LINE"
);
},
{
closed = 1;
nodes = (
"385 957 LINE",
"406 957 LINE",
"444 942 LINE",
"480 925 LINE",
"515 911 LINE",
"532 911 LINE",
"553 911 LINE",
"584 926 LINE",
"597 944 LINE",
"674 910 LINE",
"667 888 LINE",
"640 850 LINE",
"605 821 LINE",
"563 805 LINE",
"540 805 LINE",
"515 805 LINE",
"474 818 LINE",
"437 834 LINE",
"402 848 LINE",
"382 848 LINE",
"360 848 LINE",
"330 830 LINE",
"320 817 LINE",
"246 852 LINE",
"253 878 LINE",
"286 917 LINE",
"326 943 LINE",
"368 957 LINE"
);
},
{
closed = 1;
nodes = (
"0 760 LINE",
"722 760 LINE",
"722 0 LINE",
"0 0 LINE"
);
}
);
};
components = (
{
name = A;
},
{
name = tilde;
transform = "{1, 0, 0, 1, 241, 234}";
}
);
layerId = UUID0;
width = 722;
},
{
background = {
paths = (
{
closed = 1;
nodes = (
"443 134 LINE",
"484 134 LINE",
"476 236 LINE",
"272 236 LINE",
"218 134 LINE",
"280 134 LINE",
"249 0 LINE",
"-50 0 LINE",
"-19 134 LINE",
"43 134 LINE",
"380 740 LINE",
"593 740 LINE",
"648 134 LINE",
"742 134 LINE",
"711 0 LINE",
"412 0 LINE"
);
},
{
closed = 1;
nodes = (
"347 377 LINE",
"466 377 LINE",
"451 573 LINE"
);
},
{
closed = 1;
nodes = (
"385 957 LINE",
"406 957 LINE",
"444 942 LINE",
"480 925 LINE",
"515 911 LINE",
"532 911 LINE",
"553 911 LINE",
"584 926 LINE",
"597 944 LINE",
"674 910 LINE",
"667 888 LINE",
"640 850 LINE",
"605 821 LINE",
"563 805 LINE",
"540 805 LINE",
"515 805 LINE",
"474 818 LINE",
"437 834 LINE",
"402 848 LINE",
"382 848 LINE",
"360 848 LINE",
"330 830 LINE",
"320 817 LINE",
"246 852 LINE",
"253 878 LINE",
"286 917 LINE",
"326 943 LINE",
"368 957 LINE"
);
},
{
closed = 1;
nodes = (
"0 760 LINE",
"722 760 LINE",
"722 0 LINE",
"0 0 LINE"
);
}
);
};
components = (
{
name = A;
},
{
name = tilde;
transform = "{1, 0, 0, 1, 241, 234}";
}
);
layerId = UUID1;
width = 711;
}
);
leftKerningGroup = A;
rightKerningGroup = A;
unicode = 00C3;
},
{
color = 4;
glyphname = AE;
lastChange = "2017-01-23 08:35:30 +0000";
layers = (
{
background = {
paths = (
{
closed = 1;
nodes = (
"-39 134 LINE",
"28 134 LINE",
"500 740 LINE",
"1160 740 LINE",
"1102 488 LINE",
"931 488 LINE",
"958 606 LINE",
"752 606 LINE",
"715 447 LINE",
"880 447 LINE",
"847 305 LINE",
"683 305 LINE",
"643 134 LINE",
"836 134 LINE",
"866 265 LINE",
"1037 265 LINE",
"976 0 LINE",
"441 0 LINE",
"455 59 LINE",
"455 59 LINE",
"496 236 LINE",
"299 236 LINE",
"220 134 LINE",
"291 134 LINE",
"260 0 LINE",
"-70 0 LINE"
);
},
{
closed = 1;
nodes = (
"528 377 LINE",
"579 596 LINE",
"409 377 LINE"
);
},
{
closed = 1;
nodes = (
"0 760 LINE",
"1070 760 LINE",
"1070 0 LINE",
"0 0 LINE"
);
}
);
};
layerId = UUID0;
paths = (
{
closed = 1;
nodes = (
"151 236 LINE",
"639 236 LINE",
"613 377 LINE",
"236 377 LINE"
);
},
{
closed = 1;
nodes = (
"958 606 LINE",
"931 488 LINE",
"1102 488 LINE",
"1160 740 LINE",
"500 740 LINE",
"5 104 LINE",
"197 104 LINE",
"586 606 LINE"
);
},
{
closed = 1;
nodes = (
"451 0 LINE",
"976 0 LINE",
"1037 265 LINE",
"866 265 LINE",
"836 134 LINE",
"482 134 LINE"
);
},
{
closed = 1;
nodes = (
"617 305 LINE",
"847 305 LINE",
"880 447 LINE",
"650 447 LINE"
);
},
{
closed = 1;
nodes = (
"612 0 LINE",
"766 665 LINE",
"595 665 LINE",
"441 0 LINE"
);
},
{
closed = 1;
nodes = (
"-70 0 LINE",
"260 0 LINE",
"291 134 LINE",
"-39 134 LINE"
);
}
);
width = 1070;
},
{
background = {
paths = (
{
closed = 1;
nodes = (
"-39 134 LINE",
"28 134 LINE",
"500 740 LINE",
"1160 740 LINE",
"1102 488 LINE",
"931 488 LINE",
"958 606 LINE",
"752 606 LINE",
"715 447 LINE",
"880 447 LINE",
"847 305 LINE",
"683 305 LINE",
"643 134 LINE",
"836 134 LINE",
"866 265 LINE",
"1037 265 LINE",
"976 0 LINE",
"441 0 LINE",
"455 59 LINE",
"455 59 LINE",
"496 236 LINE",
"299 236 LINE",
"220 134 LINE",
"291 134 LINE",
"260 0 LINE",
"-70 0 LINE"
);
},
{
closed = 1;
nodes = (
"528 377 LINE",
"579 596 LINE",
"409 377 LINE"
);
},
{
closed = 1;
nodes = (
"0 760 LINE",
"1070 760 LINE",
"1070 0 LINE",
"0 0 LINE"
);
}
);
};
layerId = UUID1;
paths = (
{
closed = 1;
nodes = (
"158 251 LINE",
"522 251 LINE",
"509 335 LINE",
"206 335 LINE"
);
},
{
closed = 1;
nodes = (
"899 656 LINE",
"869 529 LINE",
"970 529 LINE",
"1019 740 LINE",
"481 740 LINE",
"-35 40 LINE",
"84 40 LINE",
"538 656 LINE"
);
},
{
closed = 1;
nodes = (
"318 0 LINE",
"848 0 LINE",
"897 212 LINE",
"795 212 LINE",
"765 84 LINE",
"337 84 LINE"
);
},
{
closed = 1;
nodes = (
"516 335 LINE",
"778 335 LINE",
"799 419 LINE",
"536 419 LINE"
);
},
{
closed = 1;
nodes = (
"497 52 LINE",
"642 684 LINE",
"541 684 LINE",
"395 52 LINE"
);
},
{
closed = 1;
nodes = (
"-84 0 LINE",
"156 0 LINE",
"175 84 LINE",
"-65 84 LINE"
);
}
);
width = 972;
}
);
rightKerningGroup = E;
unicode = 00C6;
},
{
color = 4;
glyphname = B;
lastChange = "2017-01-23 08:35:30 +0000";
layers = (
{
anchors = (
{
name = top;
position = "{342, 700}";
}
);
background = {
paths = (
{
closed = 1;
nodes = (
"61 134 LINE",
"136 134 LINE",
"245 606 LINE",
"161 606 LINE",
"192 740 LINE",
"566 740 LINE",
"613 740 LINE",
"685 712 LINE",
"734 662 LINE",
"760 593 LINE",
"760 553 LINE",
"760 512 LINE",
"732 434 LINE",
"701 403 LINE",
"677 381 LINE",
"643 365 LINE",
"647 362 LINE",
"650 359 LINE",
"675 336 LINE",
"700 276 LINE",
"700 242 LINE",
"700 182 LINE",
"661 91 LINE",
"587 30 LINE",
"484 0 LINE",
"420 0 LINE",
"30 0 LINE"
);
},
{
closed = 1;
nodes = (
"347 306 LINE",
"307 134 LINE",
"428 134 LINE",
"454 134 LINE",
"493 149 LINE",
"520 177 LINE",
"534 215 LINE",
"534 239 LINE",
"534 253 LINE",
"525 278 LINE",
"509 296 LINE",
"483 306 LINE",
"467 306 LINE"
);
},
{
closed = 1;
nodes = (
"417 606 LINE",
"378 440 LINE",
"491 440 LINE",
"513 440 LINE",
"551 453 LINE",
"579 478 LINE",
"595 513 LINE",
"595 534 LINE",
"595 549 LINE",
"586 575 LINE",
"568 595 LINE",
"542 606 LINE",
"524 606 LINE"
);
},
{
closed = 1;
nodes = (
"0 760 LINE",
"740 760 LINE",
"740 0 LINE",
"0 0 LINE"
);
}
);
};
layerId = UUID0;
paths = (
{
closed = 1;
nodes = (
"262 306 LINE",
"467 306 LINE SMOOTH",
"511 306 OFFCURVE",
"534 277 OFFCURVE",
"534 239 CURVE SMOOTH",
"534 177 OFFCURVE",
"496 134 OFFCURVE",
"428 134 CURVE SMOOTH",
"61 134 LINE",
"30 0 LINE",
"420 0 LINE SMOOTH",
"591 0 OFFCURVE",
"700 81 OFFCURVE",
"700 242 CURVE SMOOTH",
"700 334 OFFCURVE",
"632 403 OFFCURVE",
"505 418 CURVE",
"486 332 LINE",
"694 338 OFFCURVE",
"760 443 OFFCURVE",
"760 553 CURVE SMOOTH",
"760 660 OFFCURVE",
"691 740 OFFCURVE",
"566 740 CURVE SMOOTH",
"192 740 LINE",
"161 606 LINE",
"524 606 LINE SMOOTH",
"571 606 OFFCURVE",
"595 573 OFFCURVE",
"595 534 CURVE SMOOTH",
"595 477 OFFCURVE",
"550 440 OFFCURVE",
"491 440 CURVE SMOOTH",
"293 440 LINE"
);
},
{
closed = 1;
nodes = (
"290 61 LINE",
"430 665 LINE",
"259 665 LINE",
"119 61 LINE"
);
}
);
width = 740;
},
{
anchors = (
{
name = top;
position = "{382, 700}";
}
);
background = {
paths = (
{
closed = 1;
nodes = (
"61 134 LINE",
"136 134 LINE",
"245 606 LINE",
"161 606 LINE",
"192 740 LINE",
"566 740 LINE",
"613 740 LINE",
"685 712 LINE",
"734 662 LINE",
"760 593 LINE",
"760 553 LINE",
"760 512 LINE",
"732 434 LINE",
"701 403 LINE",
"677 381 LINE",
"643 365 LINE",
"647 362 LINE",
"650 359 LINE",
"675 336 LINE",
"700 276 LINE",
"700 242 LINE",
"700 182 LINE",
"661 91 LINE",
"587 30 LINE",
"484 0 LINE",
"420 0 LINE",
"30 0 LINE"
);
},
{
closed = 1;
nodes = (
"347 306 LINE",
"307 134 LINE",
"428 134 LINE",
"454 134 LINE",
"493 149 LINE",
"520 177 LINE",
"534 215 LINE",
"534 239 LINE",
"534 253 LINE",
"525 278 LINE",
"509 296 LINE",
"483 306 LINE",
"467 306 LINE"
);
},
{
closed = 1;
nodes = (
"417 606 LINE",
"378 440 LINE",
"491 440 LINE",
"513 440 LINE",
"551 453 LINE",
"579 478 LINE",
"595 513 LINE",
"595 534 LINE",
"595 549 LINE",
"586 575 LINE",
"568 595 LINE",
"542 606 LINE",
"524 606 LINE"
);
},
{
closed = 1;
nodes = (
"0 760 LINE",
"740 760 LINE",
"740 0 LINE",
"0 0 LINE"
);
}
);
};
layerId = UUID1;
paths = (
{
closed = 1;
nodes = (
"237 329 LINE",
"444 329 LINE SMOOTH",
"497 329 OFFCURVE",
"532 285 OFFCURVE",
"532 219 CURVE SMOOTH",
"532 143 OFFCURVE",
"475 84 OFFCURVE",
"387 84 CURVE SMOOTH",
"56 84 LINE",
"37 0 LINE",
"373 0 LINE SMOOTH",
"520 0 OFFCURVE",
"638 90 OFFCURVE",
"638 227 CURVE SMOOTH",
"638 330 OFFCURVE",
"565 403 OFFCURVE",
"454 403 CURVE",
"439 345 LINE",
"604 345 OFFCURVE",
"706 429 OFFCURVE",
"706 562 CURVE SMOOTH",
"706 666 OFFCURVE",
"643 740 OFFCURVE",
"532 740 CURVE SMOOTH",
"201 740 LINE",
"181 656 LINE",
"512 656 LINE SMOOTH",
"571 656 OFFCURVE",
"600 608 OFFCURVE",
"600 547 CURVE SMOOTH",
"600 468 OFFCURVE",
"538 414 OFFCURVE",
"460 414 CURVE SMOOTH",
"260 414 LINE"
);
},
{
closed = 1;
nodes = (
"216 52 LINE",
"361 684 LINE",
"260 684 LINE",
"114 52 LINE"
);
}
);
width = 732;
}
);
leftKerningGroup = I;
unicode = 0042;
},
{
color = 4;
glyphname = C;
lastChange = "2017-01-23 08:35:30 +0000";
layers = (
{
anchors = (
{
name = bottom;
position = "{336, 0}";
},
{
name = top;
position = "{520, 740}";
}
);
background = {
paths = (
{
closed = 1;
nodes = (
"474 590 LINE",
"441 590 LINE",
"378 569 LINE",
"323 531 LINE",
"278 479 LINE",
"245 418 LINE",
"227 349 LINE",
"227 313 LINE",
"227 276 LINE",
"248 216 LINE",
"286 173 LINE",
"340 149 LINE",
"374 149 LINE",
"401 149 LINE",
"448 164 LINE",
"488 189 LINE",
"521 224 LINE",
"535 244 LINE",
"690 167 LINE",
"634 79 LINE",
"466 -15 LINE",
"355 -15 LINE",
"289 -15 LINE",
"177 30 LINE",
"95 112 LINE",
"50 227 LINE",
"50 297 LINE",
"50 366 LINE",
"85 488 LINE",
"147 589 LINE",
"231 669 LINE",
"331 725 LINE",
"439 754 LINE",
"495 754 LINE",
"540 754 LINE",
"615 735 LINE",
"677 701 LINE",
"715 664 LINE",
"726 649 LINE",
"819 649 LINE",
"788 515 LINE",
"598 515 LINE",
"585 548 LINE",
"521 590 LINE"
);
},
{
closed = 1;
nodes = (
"0 760 LINE",
"729 760 LINE",
"729 0 LINE",
"0 0 LINE"
);
}
);
};
layerId = UUID0;
paths = (
{
closed = 1;
nodes = (
"535 244 LINE",
"499 191 OFFCURVE",
"446 149 OFFCURVE",
"374 149 CURVE SMOOTH",
"284 149 OFFCURVE",
"227 216 OFFCURVE",
"227 313 CURVE SMOOTH",
"227 457 OFFCURVE",
"341 590 OFFCURVE",
"474 590 CURVE SMOOTH",
"537 590 OFFCURVE",
"581 559 OFFCURVE",
"598 515 CURVE",
"749 515 LINE",
"744 623 LINE",
"696 702 OFFCURVE",
"614 754 OFFCURVE",
"495 754 CURVE SMOOTH",
"273 754 OFFCURVE",
"50 574 OFFCURVE",
"50 297 CURVE SMOOTH",
"50 111 OFFCURVE",
"178 -15 OFFCURVE",
"355 -15 CURVE SMOOTH",
"502 -15 OFFCURVE",
"616 51 OFFCURVE",
"690 167 CURVE"
);
},
{
closed = 1;
nodes = (
"598 515 LINE",
"788 515 LINE",
"819 649 LINE",
"629 649 LINE"
);
}
);
width = 729;
},
{
anchors = (
{
name = bottom;
position = "{386, 0}";
},
{
name = top;
position = "{480, 740}";
}
);
background = {
paths = (
{
closed = 1;
nodes = (
"474 590 LINE",
"441 590 LINE",
"378 569 LINE",
"323 531 LINE",
"278 479 LINE",
"245 418 LINE",
"227 349 LINE",
"227 313 LINE",
"227 276 LINE",
"248 216 LINE",
"286 173 LINE",
"340 149 LINE",
"374 149 LINE",
"401 149 LINE",
"448 164 LINE",
"488 189 LINE",
"521 224 LINE",
"535 244 LINE",
"690 167 LINE",
"634 79 LINE",
"466 -15 LINE",
"355 -15 LINE",
"289 -15 LINE",
"177 30 LINE",
"95 112 LINE",
"50 227 LINE",
"50 297 LINE",
"50 366 LINE",
"85 488 LINE",
"147 589 LINE",
"231 669 LINE",
"331 725 LINE",
"439 754 LINE",
"495 754 LINE",
"540 754 LINE",
"615 735 LINE",
"677 701 LINE",
"715 664 LINE",
"726 649 LINE",
"819 649 LINE",
"788 515 LINE",
"598 515 LINE",
"585 548 LINE",
"521 590 LINE"
);
},
{
closed = 1;
nodes = (
"0 760 LINE",
"729 760 LINE",
"729 0 LINE",
"0 0 LINE"
);
}
);
};
layerId = UUID1;
paths = (
{
closed = 1;
nodes = (
"587 207 LINE",
"531 126 OFFCURVE",
"457 85 OFFCURVE",
"359 85 CURVE SMOOTH",
"247 85 OFFCURVE",
"146 178 OFFCURVE",
"146 328 CURVE SMOOTH",
"146 508 OFFCURVE",
"273 657 OFFCURVE",
"445 657 CURVE SMOOTH",
"535 657 OFFCURVE",
"603 611 OFFCURVE",
"631 544 CURVE",
"739 544 LINE",
"713 623 LINE",
"659 704 OFFCURVE",
"568 754 OFFCURVE",
"456 754 CURVE SMOOTH",
"215 754 OFFCURVE",
"37 565 OFFCURVE",
"37 320 CURVE SMOOTH",
"37 130 OFFCURVE",
"170 -12 OFFCURVE",
"348 -12 CURVE SMOOTH",
"497 -12 OFFCURVE",
"605 51 OFFCURVE",
"681 157 CURVE"
);
},
{
closed = 1;
nodes = (
"631 544 LINE",
"766 544 LINE",
"786 628 LINE",
"651 628 LINE"
);
}
);
width = 717;
}
);
leftKerningGroup = O;
rightKerningGroup = C;
unicode = 0043;
},
{
color = 6;
glyphname = Cacute;
lastChange = "2017-01-27 12:00:50 +0000";
layers = (
{
background = {
paths = (
{
closed = 1;
nodes = (
"474 590 LINE",
"441 590 LINE",
"378 569 LINE",
"323 531 LINE",
"278 479 LINE",
"245 418 LINE",
"227 349 LINE",
"227 313 LINE",
"227 276 LINE",
"248 216 LINE",
"286 173 LINE",
"340 149 LINE",
"374 149 LINE",
"401 149 LINE",
"448 164 LINE",
"488 189 LINE",
"521 224 LINE",
"535 244 LINE",
"690 167 LINE",
"634 79 LINE",
"466 -15 LINE",
"355 -15 LINE",
"289 -15 LINE",
"177 30 LINE",
"95 112 LINE",
"50 227 LINE",
"50 297 LINE",
"50 366 LINE",
"85 488 LINE",
"147 589 LINE",
"231 669 LINE",
"331 725 LINE",
"439 754 LINE",
"495 754 LINE",
"540 754 LINE",
"615 735 LINE",
"677 701 LINE",
"715 664 LINE",
"726 649 LINE",
"819 649 LINE",
"788 515 LINE",
"598 515 LINE",
"585 548 LINE",
"521 590 LINE"
);
},
{
closed = 1;
nodes = (
"364 921 LINE",
"523 921 LINE",
"523 909 LINE",
"374 769 LINE",
"259 769 LINE"
);
},
{
closed = 1;
nodes = (
"0 760 LINE",
"729 760 LINE",
"729 0 LINE",
"0 0 LINE"
);
}
);
};
components = (
{
name = C;
},
{
name = acute;
transform = "{1, 0, 0, 1, 423, 234}";
}
);
layerId = UUID0;
width = 729;
},
{
background = {
paths = (
{
closed = 1;
nodes = (
"474 590 LINE",
"441 590 LINE",
"378 569 LINE",
"323 531 LINE",
"278 479 LINE",
"245 418 LINE",
"227 349 LINE",
"227 313 LINE",
"227 276 LINE",
"248 216 LINE",
"286 173 LINE",
"340 149 LINE",
"374 149 LINE",
"401 149 LINE",
"448 164 LINE",
"488 189 LINE",
"521 224 LINE",
"535 244 LINE",
"690 167 LINE",
"634 79 LINE",
"466 -15 LINE",
"355 -15 LINE",
"289 -15 LINE",
"177 30 LINE",
"95 112 LINE",
"50 227 LINE",
"50 297 LINE",
"50 366 LINE",
"85 488 LINE",
"147 589 LINE",
"231 669 LINE",
"331 725 LINE",
"439 754 LINE",
"495 754 LINE",
"540 754 LINE",
"615 735 LINE",
"677 701 LINE",
"715 664 LINE",
"726 649 LINE",
"819 649 LINE",
"788 515 LINE",
"598 515 LINE",
"585 548 LINE",
"521 590 LINE"
);
},
{
closed = 1;
nodes = (
"364 921 LINE",
"523 921 LINE",
"523 909 LINE",
"374 769 LINE",
"259 769 LINE"
);
},
{
closed = 1;
nodes = (
"0 760 LINE",
"729 760 LINE",
"729 0 LINE",
"0 0 LINE"
);
}
);
};
components = (
{
name = C;
},
{
name = acute;
transform = "{1, 0, 0, 1, 374, 234}";
}
);
layerId = UUID1;
width = 717;
}
);
leftKerningGroup = O;
rightKerningGroup = C;
unicode = 0106;
},
{
color = 4;
glyphname = Ccaron;
lastChange = "2017-01-23 08:35:30 +0000";
layers = (
{
background = {
paths = (
{
closed = 1;
nodes = (
"474 590 LINE",
"441 590 LINE",
"378 569 LINE",
"323 531 LINE",
"278 479 LINE",
"245 418 LINE",
"227 349 LINE",
"227 313 LINE",
"227 276 LINE",
"248 216 LINE",
"286 173 LINE",
"340 149 LINE",
"374 149 LINE",
"401 149 LINE",
"448 164 LINE",
"488 189 LINE",
"521 224 LINE",
"535 244 LINE",
"690 167 LINE",
"634 79 LINE",
"466 -15 LINE",
"355 -15 LINE",
"289 -15 LINE",
"177 30 LINE",
"95 112 LINE",
"50 227 LINE",
"50 297 LINE",
"50 366 LINE",
"85 488 LINE",
"147 589 LINE",
"231 669 LINE",
"331 725 LINE",
"439 754 LINE",
"495 754 LINE",
"540 754 LINE",
"615 735 LINE",
"677 701 LINE",
"715 664 LINE",
"726 649 LINE",
"819 649 LINE",
"788 515 LINE",
"598 515 LINE",
"585 548 LINE",
"521 590 LINE"
);
},
{
closed = 1;
nodes = (
"755 968 LINE",
"581 809 LINE",
"464 809 LINE",
"368 968 LINE",
"489 968 LINE",
"536 891 LINE",
"620 968 LINE"
);
},
{
closed = 1;
nodes = (
"0 760 LINE",
"729 760 LINE",
"729 0 LINE",
"0 0 LINE"
);
}
);
};
components = (
{
name = C;
},
{
name = caron;
transform = "{1, 0, 0, 1, 289, 234}";
}
);
layerId = UUID0;
width = 729;
},
{
background = {
paths = (
{
closed = 1;
nodes = (
"474 590 LINE",
"441 590 LINE",
"378 569 LINE",
"323 531 LINE",
"278 479 LINE",
"245 418 LINE",
"227 349 LINE",
"227 313 LINE",
"227 276 LINE",
"248 216 LINE",
"286 173 LINE",
"340 149 LINE",
"374 149 LINE",
"401 149 LINE",
"448 164 LINE",
"488 189 LINE",
"521 224 LINE",
"535 244 LINE",
"690 167 LINE",
"634 79 LINE",
"466 -15 LINE",
"355 -15 LINE",
"289 -15 LINE",
"177 30 LINE",
"95 112 LINE",
"50 227 LINE",
"50 297 LINE",
"50 366 LINE",
"85 488 LINE",
"147 589 LINE",
"231 669 LINE",
"331 725 LINE",
"439 754 LINE",
"495 754 LINE",
"540 754 LINE",
"615 735 LINE",
"677 701 LINE",
"715 664 LINE",
"726 649 LINE",
"819 649 LINE",
"788 515 LINE",
"598 515 LINE",
"585 548 LINE",
"521 590 LINE"
);
},
{
closed = 1;
nodes = (
"755 968 LINE",
"581 809 LINE",
"464 809 LINE",
"368 968 LINE",
"489 968 LINE",
"536 891 LINE",
"620 968 LINE"
);
},
{
closed = 1;
nodes = (
"0 760 LINE",
"729 760 LINE",
"729 0 LINE",
"0 0 LINE"
);
}
);
};
components = (
{
name = C;
},
{
name = caron;
transform = "{1, 0, 0, 1, 334, 234}";
}
);
layerId = UUID1;
width = 717;
}
);
leftKerningGroup = O;
rightKerningGroup = C;
unicode = 010C;
},
{
color = 4;
glyphname = Ccedilla;
lastChange = "2017-01-23 08:35:30 +0000";
layers = (
{
background = {
paths = (
{
closed = 1;
nodes = (
"474 590 LINE",
"441 590 LINE",
"378 569 LINE",
"323 531 LINE",
"278 479 LINE",
"245 418 LINE",
"227 349 LINE",
"227 313 LINE",
"227 276 LINE",
"248 216 LINE",
"286 173 LINE",
"340 149 LINE",
"374 149 LINE",
"401 149 LINE",
"448 164 LINE",
"488 189 LINE",
"521 224 LINE",
"535 244 LINE",
"690 167 LINE",
"634 79 LINE",
"466 -15 LINE",
"355 -15 LINE",
"289 -15 LINE",
"177 30 LINE",
"95 112 LINE",
"50 227 LINE",
"50 297 LINE",
"50 366 LINE",
"85 488 LINE",
"147 589 LINE",
"231 669 LINE",
"331 725 LINE",
"439 754 LINE",
"495 754 LINE",
"540 754 LINE",
"615 735 LINE",
"677 701 LINE",
"715 664 LINE",
"726 649 LINE",
"819 649 LINE",
"788 515 LINE",
"598 515 LINE",
"585 548 LINE",
"521 590 LINE"
);
},
{
closed = 1;
nodes = (
"166 -141 LINE",
"191 -135 LINE",
"229 -115 LINE",
"256 -86 LINE",
"275 -48 LINE",
"281 -23 LINE",
"410 -68 LINE",
"396 -102 LINE",
"354 -155 LINE",
"300 -193 LINE",
"236 -217 LINE",
"200 -221 LINE"
);
},
{
closed = 1;
nodes = (
"0 760 LINE",
"729 760 LINE",
"729 0 LINE",
"0 0 LINE"
);
}
);
};
components = (
{
name = C;
},
{
name = cedilla;
transform = "{1, 0, 0, 1, 116, 0}";
}
);
layerId = UUID0;
width = 729;
},
{
background = {
paths = (
{
closed = 1;
nodes = (
"474 590 LINE",
"441 590 LINE",
"378 569 LINE",
"323 531 LINE",
"278 479 LINE",
"245 418 LINE",
"227 349 LINE",
"227 313 LINE",
"227 276 LINE",
"248 216 LINE",
"286 173 LINE",
"340 149 LINE",
"374 149 LINE",
"401 149 LINE",
"448 164 LINE",
"488 189 LINE",
"521 224 LINE",
"535 244 LINE",
"690 167 LINE",
"634 79 LINE",
"466 -15 LINE",
"355 -15 LINE",
"289 -15 LINE",
"177 30 LINE",
"95 112 LINE",
"50 227 LINE",
"50 297 LINE",
"50 366 LINE",
"85 488 LINE",
"147 589 LINE",
"231 669 LINE",
"331 725 LINE",
"439 754 LINE",
"495 754 LINE",
"540 754 LINE",
"615 735 LINE",
"677 701 LINE",
"715 664 LINE",
"726 649 LINE",
"819 649 LINE",
"788 515 LINE",
"598 515 LINE",
"585 548 LINE",
"521 590 LINE"
);
},
{
closed = 1;
nodes = (
"166 -141 LINE",
"191 -135 LINE",
"229 -115 LINE",
"256 -86 LINE",
"275 -48 LINE",
"281 -23 LINE",
"410 -68 LINE",
"396 -102 LINE",
"354 -155 LINE",
"300 -193 LINE",
"236 -217 LINE",
"200 -221 LINE"
);
},
{
closed = 1;
nodes = (
"0 760 LINE",
"729 760 LINE",
"729 0 LINE",
"0 0 LINE"
);
}
);
};
components = (
{
name = C;
},
{
name = cedilla;
transform = "{1, 0, 0, 1, 180, 0}";
}
);
layerId = UUID1;
width = 717;
}
);
leftKerningGroup = O;
rightKerningGroup = C;
unicode = 00C7;
},
{
color = 4;
glyphname = D;
lastChange = "2017-01-23 08:35:30 +0000";
layers = (
{
anchors = (
{
name = top;
position = "{354, 700}";
}
);
background = {
paths = (
{
closed = 1;
nodes = (
"201 740 LINE",
"498 740 LINE",
"565 740 LINE",
"677 699 LINE",
"759 622 LINE",
"804 508 LINE",
"804 436 LINE",
"804 375 LINE",
"776 263 LINE",
"721 167 LINE",
"641 87 LINE",
"538 31 LINE",
"411 0 LINE",
"338 0 LINE",
"30 0 LINE",
"61 134 LINE",
"137 134 LINE",
"246 606 LINE",
"170 606 LINE"
);
},
{
closed = 1;
nodes = (
"417 606 LINE",
"308 134 LINE",
"360 134 LINE",
"396 134 LINE",
"462 155 LINE",
"521 192 LINE",
"571 245 LINE",
"606 309 LINE",
"626 382 LINE",
"626 422 LINE",
"626 473 LINE",
"600 543 LINE",
"557 587 LINE",
"500 606 LINE",
"469 606 LINE"
);
},
{
closed = 1;
nodes = (
"0 760 LINE",
"774 760 LINE",
"774 0 LINE",
"0 0 LINE"
);
}
);
};
layerId = UUID0;
paths = (
{
closed = 1;
nodes = (
"291 61 LINE",
"431 665 LINE",
"260 665 LINE",
"120 61 LINE"
);
},
{
closed = 1;
nodes = (
"170 606 LINE",
"469 606 LINE SMOOTH",
"551 606 OFFCURVE",
"626 558 OFFCURVE",
"626 422 CURVE SMOOTH",
"626 264 OFFCURVE",
"502 134 OFFCURVE",
"360 134 CURVE SMOOTH",
"61 134 LINE",
"30 0 LINE",
"338 0 LINE SMOOTH",
"632 0 OFFCURVE",
"804 193 OFFCURVE",
"804 436 CURVE SMOOTH",
"804 629 OFFCURVE",
"677 740 OFFCURVE",
"498 740 CURVE SMOOTH",
"201 740 LINE"
);
}
);
width = 774;
},
{
anchors = (
{
name = top;
position = "{378, 700}";
}
);
background = {
paths = (
{
closed = 1;
nodes = (
"201 740 LINE",
"498 740 LINE",
"565 740 LINE",
"677 699 LINE",
"759 622 LINE",
"804 508 LINE",
"804 436 LINE",
"804 375 LINE",
"776 263 LINE",
"721 167 LINE",
"641 87 LINE",
"538 31 LINE",
"411 0 LINE",
"338 0 LINE",
"30 0 LINE",
"61 134 LINE",
"137 134 LINE",
"246 606 LINE",
"170 606 LINE"
);
},
{
closed = 1;
nodes = (
"417 606 LINE",
"308 134 LINE",
"360 134 LINE",
"396 134 LINE",
"462 155 LINE",
"521 192 LINE",
"571 245 LINE",
"606 309 LINE",
"626 382 LINE",
"626 422 LINE",
"626 473 LINE",
"600 543 LINE",
"557 587 LINE",
"500 606 LINE",
"469 606 LINE"
);
},
{
closed = 1;
nodes = (
"0 760 LINE",
"774 760 LINE",
"774 0 LINE",
"0 0 LINE"
);
}
);
};
layerId = UUID1;
paths = (
{
closed = 1;
nodes = (
"215 52 LINE",
"360 684 LINE",
"259 684 LINE",
"113 52 LINE"
);
},
{
closed = 1;
nodes = (
"188 656 LINE",
"463 656 LINE SMOOTH",
"578 656 OFFCURVE",
"652 545 OFFCURVE",
"652 419 CURVE SMOOTH",
"652 217 OFFCURVE",
"492 84 OFFCURVE",
"330 84 CURVE SMOOTH",
"56 84 LINE",
"37 0 LINE",
"319 0 LINE SMOOTH",
"567 0 OFFCURVE",
"759 171 OFFCURVE",
"759 427 CURVE SMOOTH",
"759 599 OFFCURVE",
"649 740 OFFCURVE",
"476 740 CURVE SMOOTH",
"208 740 LINE"
);
}
);
width = 762;
}
);
leftKerningGroup = I;
rightKerningGroup = D;
unicode = 0044;
},
{
color = 4;
glyphname = Eth;
lastChange = "2017-01-23 08:35:30 +0000";
layers = (
{
anchors = (
{
name = top;
position = "{360, 700}";
}
);
background = {
paths = (
{
closed = 1;
nodes = (
"43 312 LINE",
"74 446 LINE",
"169 446 LINE",
"207 606 LINE",
"130 606 LINE",
"162 740 LINE",
"458 740 LINE",
"525 740 LINE",
"638 699 LINE",
"719 622 LINE",
"765 508 LINE",
"765 436 LINE",
"765 375 LINE",
"736 263 LINE",
"682 167 LINE",
"602 87 LINE",
"498 31 LINE",
"372 0 LINE",
"298 0 LINE",
"-10 0 LINE",
"21 134 LINE",
"97 134 LINE",
"139 312 LINE"
);
},
{
closed = 1;
nodes = (
"378 606 LINE",
"341 446 LINE",
"464 446 LINE",
"433 312 LINE",
"310 312 LINE",
"268 134 LINE",
"320 134 LINE",
"356 134 LINE",
"423 155 LINE",
"482 192 LINE",
"531 245 LINE",
"567 309 LINE",
"586 382 LINE",
"586 422 LINE",
"586 473 LINE",
"561 543 LINE",
"517 587 LINE",
"460 606 LINE",
"430 606 LINE"
);
},
{
closed = 1;
nodes = (
"0 760 LINE",
"774 760 LINE",
"774 0 LINE",
"0 0 LINE"
);
}
);
};
layerId = UUID0;
paths = (
{
closed = 1;
nodes = (
"43 312 LINE",
"433 312 LINE",
"464 446 LINE",
"74 446 LINE"
);
},
{
closed = 1;
nodes = (
"251 61 LINE",
"391 665 LINE",
"220 665 LINE",
"80 61 LINE"
);
},
{
closed = 1;
nodes = (
"130 606 LINE",
"429 606 LINE SMOOTH",
"511 606 OFFCURVE",
"586 558 OFFCURVE",
"586 422 CURVE SMOOTH",
"586 264 OFFCURVE",
"462 134 OFFCURVE",
"320 134 CURVE SMOOTH",
"21 134 LINE",
"-10 0 LINE",
"298 0 LINE SMOOTH",
"592 0 OFFCURVE",
"764 193 OFFCURVE",
"764 436 CURVE SMOOTH",
"764 629 OFFCURVE",
"637 740 OFFCURVE",
"458 740 CURVE SMOOTH",
"161 740 LINE"
);
}
);
width = 774;
},
{
anchors = (
{
name = top;
position = "{380, 700}";
}
);
background = {
paths = (
{
closed = 1;
nodes = (
"43 312 LINE",
"74 446 LINE",
"169 446 LINE",
"207 606 LINE",
"130 606 LINE",
"162 740 LINE",
"458 740 LINE",
"525 740 LINE",
"638 699 LINE",
"719 622 LINE",
"765 508 LINE",
"765 436 LINE",
"765 375 LINE",
"736 263 LINE",
"682 167 LINE",
"602 87 LINE",
"498 31 LINE",
"372 0 LINE",
"298 0 LINE",
"-10 0 LINE",
"21 134 LINE",
"97 134 LINE",
"139 312 LINE"
);
},
{
closed = 1;
nodes = (
"378 606 LINE",
"341 446 LINE",
"464 446 LINE",
"433 312 LINE",
"310 312 LINE",
"268 134 LINE",
"320 134 LINE",
"356 134 LINE",
"423 155 LINE",
"482 192 LINE",
"531 245 LINE",
"567 309 LINE",
"586 382 LINE",
"586 422 LINE",
"586 473 LINE",
"561 543 LINE",
"517 587 LINE",
"460 606 LINE",
"430 606 LINE"
);
},
{
closed = 1;
nodes = (
"0 760 LINE",
"774 760 LINE",
"774 0 LINE",
"0 0 LINE"
);
}
);
};
layerId = UUID1;
paths = (
{
closed = 1;
nodes = (
"90 337 LINE",
"397 337 LINE",
"416 421 LINE",
"109 421 LINE"
);
},
{
closed = 1;
nodes = (
"213 52 LINE",
"358 684 LINE",
"257 684 LINE",
"111 52 LINE"
);
},
{
closed = 1;
nodes = (
"186 656 LINE",
"461 656 LINE SMOOTH",
"576 656 OFFCURVE",
"650 545 OFFCURVE",
"650 419 CURVE SMOOTH",
"650 217 OFFCURVE",
"490 84 OFFCURVE",
"328 84 CURVE SMOOTH",
"54 84 LINE",
"35 0 LINE",
"317 0 LINE SMOOTH",
"565 0 OFFCURVE",
"757 171 OFFCURVE",
"757 427 CURVE SMOOTH",
"757 599 OFFCURVE",
"647 740 OFFCURVE",
"474 740 CURVE SMOOTH",
"206 740 LINE"
);
}
);
width = 764;
}
);
leftKerningGroup = I;
rightKerningGroup = D;
unicode = 00D0;
},
{
color = 6;
glyphname = Dcaron;
lastChange = "2017-01-23 08:35:30 +0000";
layers = (
{
background = {
paths = (
{
closed = 1;
nodes = (
"201 740 LINE",
"498 740 LINE",
"565 740 LINE",
"677 699 LINE",
"759 622 LINE",
"804 508 LINE",
"804 436 LINE",
"804 375 LINE",
"776 263 LINE",
"721 167 LINE",
"641 87 LINE",
"538 31 LINE",
"411 0 LINE",
"338 0 LINE",
"30 0 LINE",
"61 134 LINE",
"137 134 LINE",
"246 606 LINE",
"170 606 LINE"
);
},
{
closed = 1;
nodes = (
"417 606 LINE",
"308 134 LINE",
"360 134 LINE",
"396 134 LINE",
"462 155 LINE",
"521 192 LINE",
"571 245 LINE",
"606 309 LINE",
"626 382 LINE",
"626 422 LINE",
"626 473 LINE",
"600 543 LINE",
"557 587 LINE",
"500 606 LINE",
"469 606 LINE"
);
},
{
closed = 1;
nodes = (
"589 928 LINE",
"415 770 LINE",
"298 770 LINE",
"202 928 LINE",
"323 928 LINE",
"370 852 LINE",
"454 928 LINE"
);
},
{
closed = 1;
nodes = (
"0 760 LINE",
"774 760 LINE",
"774 0 LINE",
"0 0 LINE"
);
}
);
};
components = (
{
name = D;
},
{
name = caron;
transform = "{1, 0, 0, 1, 123, 194}";
}
);
layerId = UUID0;
width = 774;
},
{
background = {
paths = (
{
closed = 1;
nodes = (
"201 740 LINE",
"498 740 LINE",
"565 740 LINE",
"677 699 LINE",
"759 622 LINE",
"804 508 LINE",
"804 436 LINE",
"804 375 LINE",
"776 263 LINE",
"721 167 LINE",
"641 87 LINE",
"538 31 LINE",
"411 0 LINE",
"338 0 LINE",
"30 0 LINE",
"61 134 LINE",
"137 134 LINE",
"246 606 LINE",
"170 606 LINE"
);
},
{
closed = 1;
nodes = (
"417 606 LINE",
"308 134 LINE",
"360 134 LINE",
"396 134 LINE",
"462 155 LINE",
"521 192 LINE",
"571 245 LINE",
"606 309 LINE",
"626 382 LINE",
"626 422 LINE",
"626 473 LINE",
"600 543 LINE",
"557 587 LINE",
"500 606 LINE",
"469 606 LINE"
);
},
{
closed = 1;
nodes = (
"589 928 LINE",
"415 770 LINE",
"298 770 LINE",
"202 928 LINE",
"323 928 LINE",
"370 852 LINE",
"454 928 LINE"
);
},
{
closed = 1;
nodes = (
"0 760 LINE",
"774 760 LINE",
"774 0 LINE",
"0 0 LINE"
);
}
);
};
components = (
{
name = D;
},
{
name = caron;
transform = "{1, 0, 0, 1, 232, 194}";
}
);
layerId = UUID1;
width = 762;
}
);
leftKerningGroup = I;
rightKerningGroup = D;
unicode = 010E;
},
{
color = 4;
glyphname = Dcroat;
lastChange = "2017-01-27 12:00:48 +0000";
layers = (
{
background = {
paths = (
{
closed = 1;
nodes = (
"43 312 LINE",
"74 446 LINE",
"169 446 LINE",
"207 606 LINE",
"130 606 LINE",
"162 740 LINE",
"458 740 LINE",
"525 740 LINE",
"638 699 LINE",
"719 622 LINE",
"765 508 LINE",
"765 436 LINE",
"765 375 LINE",
"736 263 LINE",
"682 167 LINE",
"602 87 LINE",
"498 31 LINE",
"372 0 LINE",
"298 0 LINE",
"-10 0 LINE",
"21 134 LINE",
"97 134 LINE",
"139 312 LINE"
);
},
{
closed = 1;
nodes = (
"378 606 LINE",
"341 446 LINE",
"464 446 LINE",
"433 312 LINE",
"310 312 LINE",
"268 134 LINE",
"320 134 LINE",
"356 134 LINE",
"423 155 LINE",
"482 192 LINE",
"531 245 LINE",
"567 309 LINE",
"586 382 LINE",
"586 422 LINE",
"586 473 LINE",
"561 543 LINE",
"517 587 LINE",
"460 606 LINE",
"430 606 LINE"
);
},
{
closed = 1;
nodes = (
"0 760 LINE",
"770 760 LINE",
"770 0 LINE",
"0 0 LINE"
);
}
);
};
components = (
{
name = Eth;
}
);
layerId = UUID0;
width = 774;
},
{
background = {
paths = (
{
closed = 1;
nodes = (
"43 312 LINE",
"74 446 LINE",
"169 446 LINE",
"207 606 LINE",
"130 606 LINE",
"162 740 LINE",
"458 740 LINE",
"525 740 LINE",
"638 699 LINE",
"719 622 LINE",
"765 508 LINE",
"765 436 LINE",
"765 375 LINE",
"736 263 LINE",
"682 167 LINE",
"602 87 LINE",
"498 31 LINE",
"372 0 LINE",
"298 0 LINE",
"-10 0 LINE",
"21 134 LINE",
"97 134 LINE",
"139 312 LINE"
);
},
{
closed = 1;
nodes = (
"378 606 LINE",
"341 446 LINE",
"464 446 LINE",
"433 312 LINE",
"310 312 LINE",
"268 134 LINE",
"320 134 LINE",
"356 134 LINE",
"423 155 LINE",
"482 192 LINE",
"531 245 LINE",
"567 309 LINE",
"586 382 LINE",
"586 422 LINE",
"586 473 LINE",
"561 543 LINE",
"517 587 LINE",
"460 606 LINE",
"430 606 LINE"
);
},
{
closed = 1;
nodes = (
"0 760 LINE",
"770 760 LINE",
"770 0 LINE",
"0 0 LINE"
);
}
);
};
components = (
{
name = Eth;
}
);
layerId = UUID1;
width = 764;
}
);
leftKerningGroup = I;
rightKerningGroup = D;
unicode = 0110;
},
{
color = 4;
glyphname = E;
lastChange = "2017-01-23 08:35:30 +0000";
layers = (
{
anchors = (
{
name = top;
position = "{529, 740}";
}
);
background = {
paths = (
{
closed = 1;
nodes = (
"192 740 LINE",
"825 740 LINE",
"767 488 LINE",
"596 488 LINE",
"623 606 LINE",
"417 606 LINE",
"380 447 LINE",
"545 447 LINE",
"512 305 LINE",
"348 305 LINE",
"308 134 LINE",
"501 134 LINE",
"531 265 LINE",
"702 265 LINE",
"641 0 LINE",
"30 0 LINE",
"61 134 LINE",
"137 134 LINE",
"246 606 LINE",
"161 606 LINE"
);
},
{
closed = 1;
nodes = (
"0 760 LINE",
"735 760 LINE",
"735 0 LINE",
"0 0 LINE"
);
}
);
};
layerId = UUID0;
paths = (
{
closed = 1;
nodes = (
"291 61 LINE",
"431 665 LINE",
"260 665 LINE",
"120 61 LINE"
);
},
{
closed = 1;
nodes = (
"161 606 LINE",
"623 606 LINE",
"596 488 LINE",
"767 488 LINE",
"825 740 LINE",
"192 740 LINE"
);
},
{
closed = 1;
nodes = (
"30 0 LINE",
"641 0 LINE",
"702 265 LINE",
"531 265 LINE",
"501 134 LINE",
"61 134 LINE"
);
},
{
closed = 1;
nodes = (
"282 305 LINE",
"512 305 LINE",
"545 447 LINE",
"315 447 LINE"
);
}
);
width = 735;
},
{
anchors = (
{
name = top;
position = "{486, 740}";
}
);
background = {
paths = (
{
closed = 1;
nodes = (
"192 740 LINE",
"825 740 LINE",
"767 488 LINE",
"596 488 LINE",
"623 606 LINE",
"417 606 LINE",
"380 447 LINE",
"545 447 LINE",
"512 305 LINE",
"348 305 LINE",
"308 134 LINE",
"501 134 LINE",
"531 265 LINE",
"702 265 LINE",
"641 0 LINE",
"30 0 LINE",
"61 134 LINE",
"137 134 LINE",
"246 606 LINE",
"161 606 LINE"
);
},
{
closed = 1;
nodes = (
"0 760 LINE",
"735 760 LINE",
"735 0 LINE",
"0 0 LINE"
);
}
);
};
layerId = UUID1;
paths = (
{
closed = 1;
nodes = (
"216 52 LINE",
"361 684 LINE",
"260 684 LINE",
"114 52 LINE"
);
},
{
closed = 1;
nodes = (
"181 656 LINE",
"618 656 LINE",
"588 529 LINE",
"689 529 LINE",
"738 740 LINE",
"201 740 LINE"
);
},
{
closed = 1;
nodes = (
"37 0 LINE",
"567 0 LINE",
"616 212 LINE",
"514 212 LINE",
"484 84 LINE",
"56 84 LINE"
);
},
{
closed = 1;
nodes = (
"235 335 LINE",
"497 335 LINE",
"518 419 LINE",
"255 419 LINE"
);
}
);
width = 690;
}
);
leftKerningGroup = I;
rightKerningGroup = E;
unicode = 0045;
},
{
color = 4;
glyphname = Eacute;
lastChange = "2017-01-23 08:35:30 +0000";
layers = (
{
background = {
paths = (
{
closed = 1;
nodes = (
"192 740 LINE",
"825 740 LINE",
"767 488 LINE",
"596 488 LINE",
"623 606 LINE",
"417 606 LINE",
"380 447 LINE",
"545 447 LINE",
"512 305 LINE",
"348 305 LINE",
"308 134 LINE",
"501 134 LINE",
"531 265 LINE",
"702 265 LINE",
"641 0 LINE",
"30 0 LINE",
"61 134 LINE",
"137 134 LINE",
"246 606 LINE",
"161 606 LINE"
);
},
{
closed = 1;
nodes = (
"557 961 LINE",
"716 961 LINE",
"716 949 LINE",
"566 810 LINE",
"452 810 LINE"
);
},
{
closed = 1;
nodes = (
"0 760 LINE",
"735 760 LINE",
"735 0 LINE",
"0 0 LINE"
);
}
);
};
components = (
{
name = E;
},
{
name = acute;
transform = "{1, 0, 0, 1, 432, 234}";
}
);
layerId = UUID0;
width = 735;
},
{
background = {
paths = (
{
closed = 1;
nodes = (
"192 740 LINE",
"825 740 LINE",
"767 488 LINE",
"596 488 LINE",
"623 606 LINE",
"417 606 LINE",
"380 447 LINE",
"545 447 LINE",
"512 305 LINE",
"348 305 LINE",
"308 134 LINE",
"501 134 LINE",
"531 265 LINE",
"702 265 LINE",
"641 0 LINE",
"30 0 LINE",
"61 134 LINE",
"137 134 LINE",
"246 606 LINE",
"161 606 LINE"
);
},
{
closed = 1;
nodes = (
"557 961 LINE",
"716 961 LINE",
"716 949 LINE",
"566 810 LINE",
"452 810 LINE"
);
},
{
closed = 1;
nodes = (
"0 760 LINE",
"735 760 LINE",
"735 0 LINE",
"0 0 LINE"
);
}
);
};
components = (
{
name = E;
},
{
name = acute;
transform = "{1, 0, 0, 1, 380, 234}";
}
);
layerId = UUID1;
width = 690;
}
);
leftKerningGroup = I;
rightKerningGroup = E;
unicode = 00C9;
},
{
color = 6;
glyphname = Ecaron;
lastChange = "2017-01-23 08:35:30 +0000";
layers = (
{
background = {
paths = (
{
closed = 1;
nodes = (
"192 740 LINE",
"825 740 LINE",
"767 488 LINE",
"596 488 LINE",
"623 606 LINE",
"417 606 LINE",
"380 447 LINE",
"545 447 LINE",
"512 305 LINE",
"348 305 LINE",
"308 134 LINE",
"501 134 LINE",
"531 265 LINE",
"702 265 LINE",
"641 0 LINE",
"30 0 LINE",
"61 134 LINE",
"137 134 LINE",
"246 606 LINE",
"161 606 LINE"
);
},
{
closed = 1;
nodes = (
"764 968 LINE",
"590 810 LINE",
"473 810 LINE",
"377 968 LINE",
"498 968 LINE",
"545 892 LINE",
"629 968 LINE"
);
},
{
closed = 1;
nodes = (
"0 760 LINE",
"735 760 LINE",
"735 0 LINE",
"0 0 LINE"
);
}
);
};
components = (
{
name = E;
},
{
name = caron;
transform = "{1, 0, 0, 1, 298, 234}";
}
);
layerId = UUID0;
width = 735;
},
{
background = {
paths = (
{
closed = 1;
nodes = (
"192 740 LINE",
"825 740 LINE",
"767 488 LINE",
"596 488 LINE",
"623 606 LINE",
"417 606 LINE",
"380 447 LINE",
"545 447 LINE",
"512 305 LINE",
"348 305 LINE",
"308 134 LINE",
"501 134 LINE",
"531 265 LINE",
"702 265 LINE",
"641 0 LINE",
"30 0 LINE",
"61 134 LINE",
"137 134 LINE",
"246 606 LINE",
"161 606 LINE"
);
},
{
closed = 1;
nodes = (
"764 968 LINE",
"590 810 LINE",
"473 810 LINE",
"377 968 LINE",
"498 968 LINE",
"545 892 LINE",
"629 968 LINE"
);
},
{
closed = 1;
nodes = (
"0 760 LINE",
"735 760 LINE",
"735 0 LINE",
"0 0 LINE"
);
}
);
};
components = (
{
name = E;
},
{
name = caron;
transform = "{1, 0, 0, 1, 340, 234}";
}
);
layerId = UUID1;
width = 690;
}
);
leftKerningGroup = I;
rightKerningGroup = E;
unicode = 011A;
},
{
color = 4;
glyphname = Ecircumflex;
lastChange = "2017-01-23 08:35:30 +0000";
layers = (
{
background = {
paths = (
{
closed = 1;
nodes = (
"192 740 LINE",
"825 740 LINE",
"767 488 LINE",
"596 488 LINE",
"623 606 LINE",
"417 606 LINE",
"380 447 LINE",
"545 447 LINE",
"512 305 LINE",
"348 305 LINE",
"308 134 LINE",
"501 134 LINE",
"531 265 LINE",
"702 265 LINE",
"641 0 LINE",
"30 0 LINE",
"61 134 LINE",
"137 134 LINE",
"246 606 LINE",
"161 606 LINE"
);
},
{
closed = 1;
nodes = (
"334 810 LINE",
"509 968 LINE",
"625 968 LINE",
"722 810 LINE",
"601 810 LINE",
"554 886 LINE",
"470 810 LINE"
);
},
{
closed = 1;
nodes = (
"0 760 LINE",
"735 760 LINE",
"735 0 LINE",
"0 0 LINE"
);
}
);
};
components = (
{
name = E;
},
{
name = circumflex;
transform = "{1, 0, 0, 1, 286, 234}";
}
);
layerId = UUID0;
width = 735;
},
{
background = {
paths = (
{
closed = 1;
nodes = (
"192 740 LINE",
"825 740 LINE",
"767 488 LINE",
"596 488 LINE",
"623 606 LINE",
"417 606 LINE",
"380 447 LINE",
"545 447 LINE",
"512 305 LINE",
"348 305 LINE",
"308 134 LINE",
"501 134 LINE",
"531 265 LINE",
"702 265 LINE",
"641 0 LINE",
"30 0 LINE",
"61 134 LINE",
"137 134 LINE",
"246 606 LINE",
"161 606 LINE"
);
},
{
closed = 1;
nodes = (
"334 810 LINE",
"509 968 LINE",
"625 968 LINE",
"722 810 LINE",
"601 810 LINE",
"554 886 LINE",
"470 810 LINE"
);
},
{
closed = 1;
nodes = (
"0 760 LINE",
"735 760 LINE",
"735 0 LINE",
"0 0 LINE"
);
}
);
};
components = (
{
name = E;
},
{
name = circumflex;
transform = "{1, 0, 0, 1, 284, 234}";
}
);
layerId = UUID1;
width = 690;
}
);
leftKerningGroup = I;
rightKerningGroup = E;
unicode = 00CA;
},
{
color = 4;
glyphname = Edieresis;
lastChange = "2017-01-23 08:35:30 +0000";
layers = (
{
background = {
paths = (
{
closed = 1;
nodes = (
"192 740 LINE",
"825 740 LINE",
"767 488 LINE",
"596 488 LINE",
"623 606 LINE",
"417 606 LINE",
"380 447 LINE",
"545 447 LINE",
"512 305 LINE",
"348 305 LINE",
"308 134 LINE",
"501 134 LINE",
"531 265 LINE",
"702 265 LINE",
"641 0 LINE",
"30 0 LINE",
"61 134 LINE",
"137 134 LINE",
"246 606 LINE",
"161 606 LINE"
);
},
{
closed = 1;
nodes = (
"302 889 LINE",
"302 907 LINE",
"315 939 LINE",
"338 963 LINE",
"370 977 LINE",
"389 977 LINE",
"406 977 LINE",
"437 963 LINE",
"461 939 LINE",
"475 907 LINE",
"475 889 LINE",
"475 871 LINE",
"461 839 LINE",
"437 816 LINE",
"406 802 LINE",
"389 802 LINE",
"370 802 LINE",
"338 816 LINE",
"315 839 LINE",
"302 871 LINE"
);
},
{
closed = 1;
nodes = (
"536 889 LINE",
"536 907 LINE",
"549 939 LINE",
"573 963 LINE",
"604 977 LINE",
"623 977 LINE",
"641 977 LINE",
"672 963 LINE",
"695 939 LINE",
"709 907 LINE",
"709 889 LINE",
"709 871 LINE",
"695 839 LINE",
"672 816 LINE",
"641 802 LINE",
"623 802 LINE",
"604 802 LINE",
"573 816 LINE",
"549 839 LINE",
"536 871 LINE"
);
},
{
closed = 1;
nodes = (
"0 760 LINE",
"735 760 LINE",
"735 0 LINE",
"0 0 LINE"
);
}
);
};
components = (
{
name = E;
},
{
name = dieresis;
transform = "{1, 0, 0, 1, 279, 233}";
}
);
layerId = UUID0;
width = 735;
},
{
background = {
paths = (
{
closed = 1;
nodes = (
"192 740 LINE",
"825 740 LINE",
"767 488 LINE",
"596 488 LINE",
"623 606 LINE",
"417 606 LINE",
"380 447 LINE",
"545 447 LINE",
"512 305 LINE",
"348 305 LINE",
"308 134 LINE",
"501 134 LINE",
"531 265 LINE",
"702 265 LINE",
"641 0 LINE",
"30 0 LINE",
"61 134 LINE",
"137 134 LINE",
"246 606 LINE",
"161 606 LINE"
);
},
{
closed = 1;
nodes = (
"302 889 LINE",
"302 907 LINE",
"315 939 LINE",
"338 963 LINE",
"370 977 LINE",
"389 977 LINE",
"406 977 LINE",
"437 963 LINE",
"461 939 LINE",
"475 907 LINE",
"475 889 LINE",
"475 871 LINE",
"461 839 LINE",
"437 816 LINE",
"406 802 LINE",
"389 802 LINE",
"370 802 LINE",
"338 816 LINE",
"315 839 LINE",
"302 871 LINE"
);
},
{
closed = 1;
nodes = (
"536 889 LINE",
"536 907 LINE",
"549 939 LINE",
"573 963 LINE",
"604 977 LINE",
"623 977 LINE",
"641 977 LINE",
"672 963 LINE",
"695 939 LINE",
"709 907 LINE",
"709 889 LINE",
"709 871 LINE",
"695 839 LINE",
"672 816 LINE",
"641 802 LINE",
"623 802 LINE",
"604 802 LINE",
"573 816 LINE",
"549 839 LINE",
"536 871 LINE"
);
},
{
closed = 1;
nodes = (
"0 760 LINE",
"735 760 LINE",
"735 0 LINE",
"0 0 LINE"
);
}
);
};
components = (
{
name = E;
},
{
name = dieresis;
transform = "{1, 0, 0, 1, 249, 234}";
}
);
layerId = UUID1;
width = 690;
}
);
leftKerningGroup = I;
rightKerningGroup = E;
unicode = 00CB;
},
{
color = 6;
glyphname = Edotaccent;
lastChange = "2017-01-23 08:35:30 +0000";
layers = (
{
background = {
paths = (
{
closed = 1;
nodes = (
"192 740 LINE",
"825 740 LINE",
"767 488 LINE",
"596 488 LINE",
"623 606 LINE",
"417 606 LINE",
"380 447 LINE",
"545 447 LINE",
"512 305 LINE",
"348 305 LINE",
"308 134 LINE",
"501 134 LINE",
"531 265 LINE",
"702 265 LINE",
"641 0 LINE",
"30 0 LINE",
"61 134 LINE",
"137 134 LINE",
"246 606 LINE",
"161 606 LINE"
);
},
{
closed = 1;
nodes = (
"437 903 LINE",
"437 921 LINE",
"451 953 LINE",
"474 977 LINE",
"506 990 LINE",
"524 990 LINE",
"542 990 LINE",
"573 977 LINE",
"597 953 LINE",
"610 921 LINE",
"610 903 LINE",
"610 885 LINE",
"597 854 LINE",
"573 830 LINE",
"542 816 LINE",
"524 816 LINE",
"506 816 LINE",
"474 830 LINE",
"451 854 LINE",
"437 885 LINE"
);
},
{
closed = 1;
nodes = (
"0 760 LINE",
"735 760 LINE",
"735 0 LINE",
"0 0 LINE"
);
}
);
};
components = (
{
name = E;
},
{
name = dotaccent;
transform = "{1, 0, 0, 1, 393, 234}";
}
);
layerId = UUID0;
width = 735;
},
{
background = {
paths = (
{
closed = 1;
nodes = (
"192 740 LINE",
"825 740 LINE",
"767 488 LINE",
"596 488 LINE",
"623 606 LINE",
"417 606 LINE",
"380 447 LINE",
"545 447 LINE",
"512 305 LINE",
"348 305 LINE",
"308 134 LINE",
"501 134 LINE",
"531 265 LINE",
"702 265 LINE",
"641 0 LINE",
"30 0 LINE",
"61 134 LINE",
"137 134 LINE",
"246 606 LINE",
"161 606 LINE"
);
},
{
closed = 1;
nodes = (
"437 903 LINE",
"437 921 LINE",
"451 953 LINE",
"474 977 LINE",
"506 990 LINE",
"524 990 LINE",
"542 990 LINE",
"573 977 LINE",
"597 953 LINE",
"610 921 LINE",
"610 903 LINE",
"610 885 LINE",
"597 854 LINE",
"573 830 LINE",
"542 816 LINE",
"524 816 LINE",
"506 816 LINE",
"474 830 LINE",
"451 854 LINE",
"437 885 LINE"
);
},
{
closed = 1;
nodes = (
"0 760 LINE",
"735 760 LINE",
"735 0 LINE",
"0 0 LINE"
);
}
);
};
components = (
{
name = E;
},
{
name = dotaccent;
transform = "{1, 0, 0, 1, 372, 234}";
}
);
layerId = UUID1;
width = 690;
}
);
leftKerningGroup = I;
rightKerningGroup = E;
unicode = 0116;
},
{
color = 4;
glyphname = Egrave;
lastChange = "2017-01-23 08:35:30 +0000";
layers = (
{
background = {
paths = (
{
closed = 1;
nodes = (
"192 740 LINE",
"825 740 LINE",
"767 488 LINE",
"596 488 LINE",
"623 606 LINE",
"417 606 LINE",
"380 447 LINE",
"545 447 LINE",
"512 305 LINE",
"348 305 LINE",
"308 134 LINE",
"501 134 LINE",
"531 265 LINE",
"702 265 LINE",
"641 0 LINE",
"30 0 LINE",
"61 134 LINE",
"137 134 LINE",
"246 606 LINE",
"161 606 LINE"
);
},
{
closed = 1;
nodes = (
"508 810 LINE",
"365 949 LINE",
"365 961 LINE",
"524 961 LINE",
"620 810 LINE"
);
},
{
closed = 1;
nodes = (
"0 760 LINE",
"735 760 LINE",
"735 0 LINE",
"0 0 LINE"
);
}
);
};
components = (
{
name = E;
},
{
name = grave;
transform = "{1, 0, 0, 1, 283, 234}";
}
);
layerId = UUID0;
width = 735;
},
{
background = {
paths = (
{
closed = 1;
nodes = (
"192 740 LINE",
"825 740 LINE",
"767 488 LINE",
"596 488 LINE",
"623 606 LINE",
"417 606 LINE",
"380 447 LINE",
"545 447 LINE",
"512 305 LINE",
"348 305 LINE",
"308 134 LINE",
"501 134 LINE",
"531 265 LINE",
"702 265 LINE",
"641 0 LINE",
"30 0 LINE",
"61 134 LINE",
"137 134 LINE",
"246 606 LINE",
"161 606 LINE"
);
},
{
closed = 1;
nodes = (
"508 810 LINE",
"365 949 LINE",
"365 961 LINE",
"524 961 LINE",
"620 810 LINE"
);
},
{
closed = 1;
nodes = (
"0 760 LINE",
"735 760 LINE",
"735 0 LINE",
"0 0 LINE"
);
}
);
};
components = (
{
name = E;
},
{
name = grave;
transform = "{1, 0, 0, 1, 239, 234}";
}
);
layerId = UUID1;
width = 690;
}
);
leftKerningGroup = I;
rightKerningGroup = E;
unicode = 00C8;
},
{
color = 6;
glyphname = Emacron;
lastChange = "2017-01-23 08:35:30 +0000";
layers = (
{
background = {
paths = (
{
closed = 1;
nodes = (
"192 740 LINE",
"825 740 LINE",
"767 488 LINE",
"596 488 LINE",
"623 606 LINE",
"417 606 LINE",
"380 447 LINE",
"545 447 LINE",
"512 305 LINE",
"348 305 LINE",
"308 134 LINE",
"501 134 LINE",
"531 265 LINE",
"702 265 LINE",
"641 0 LINE",
"30 0 LINE",
"61 134 LINE",
"137 134 LINE",
"246 606 LINE",
"161 606 LINE"
);
},
{
closed = 1;
nodes = (
"697 809 LINE",
"361 809 LINE",
"361 914 LINE",
"697 914 LINE"
);
},
{
closed = 1;
nodes = (
"0 760 LINE",
"735 760 LINE",
"735 0 LINE",
"0 0 LINE"
);
}
);
};
components = (
{
name = E;
},
{
name = macron;
transform = "{1, 0, 0, 1, 321, 234}";
}
);
layerId = UUID0;
width = 735;
},
{
background = {
paths = (
{
closed = 1;
nodes = (
"192 740 LINE",
"825 740 LINE",
"767 488 LINE",
"596 488 LINE",
"623 606 LINE",
"417 606 LINE",
"380 447 LINE",
"545 447 LINE",
"512 305 LINE",
"348 305 LINE",
"308 134 LINE",
"501 134 LINE",
"531 265 LINE",
"702 265 LINE",
"641 0 LINE",
"30 0 LINE",
"61 134 LINE",
"137 134 LINE",
"246 606 LINE",
"161 606 LINE"
);
},
{
closed = 1;
nodes = (
"697 809 LINE",
"361 809 LINE",
"361 914 LINE",
"697 914 LINE"
);
},
{
closed = 1;
nodes = (
"0 760 LINE",
"735 760 LINE",
"735 0 LINE",
"0 0 LINE"
);
}
);
};
components = (
{
name = E;
},
{
name = macron;
transform = "{1, 0, 0, 1, 251, 234}";
}
);
layerId = UUID1;
width = 690;
}
);
leftKerningGroup = I;
rightKerningGroup = E;
unicode = 0112;
},
{
color = 6;
glyphname = Eogonek;
lastChange = "2017-01-23 08:35:30 +0000";
layers = (
{
background = {
paths = (
{
closed = 1;
nodes = (
"192 740 LINE",
"825 740 LINE",
"767 488 LINE",
"596 488 LINE",
"623 606 LINE",
"417 606 LINE",
"380 447 LINE",
"545 447 LINE",
"512 305 LINE",
"347 305 LINE",
"308 134 LINE",
"501 134 LINE",
"531 265 LINE",
"702 265 LINE",
"641 0 LINE",
"640 0 LINE",
"599 0 LINE",
"537 -20 LINE",
"496 -52 LINE",
"475 -89 LINE",
"475 -105 LINE",
"475 -124 LINE",
"499 -138 LINE",
"510 -138 LINE",
"529 -138 LINE",
"555 -132 LINE",
"565 -127 LINE",
"589 -210 LINE",
"578 -216 LINE",
"528 -230 LINE",
"502 -230 LINE",
"472 -230 LINE",
"421 -216 LINE",
"382 -190 LINE",
"360 -152 LINE",
"360 -127 LINE",
"360 -88 LINE",
"414 -23 LINE",
"452 0 LINE",
"30 0 LINE",
"61 134 LINE",
"137 134 LINE",
"246 606 LINE",
"161 606 LINE"
);
},
{
closed = 1;
nodes = (
"0 760 LINE",
"735 760 LINE",
"735 0 LINE",
"0 0 LINE"
);
}
);
};
layerId = UUID0;
paths = (
{
closed = 1;
nodes = (
"598 47 LINE",
"517 47 OFFCURVE",
"360 -27 OFFCURVE",
"360 -127 CURVE SMOOTH",
"360 -193 OFFCURVE",
"423 -230 OFFCURVE",
"502 -230 CURVE SMOOTH",
"537 -230 OFFCURVE",
"575 -218 OFFCURVE",
"589 -210 CURVE",
"565 -127 LINE",
"552 -133 OFFCURVE",
"535 -138 OFFCURVE",
"510 -138 CURVE SMOOTH",
"496 -138 OFFCURVE",
"475 -130 OFFCURVE",
"475 -105 CURVE SMOOTH",
"475 -61 OFFCURVE",
"531 0 OFFCURVE",
"640 0 CURVE"
);
},
{
closed = 1;
nodes = (
"291 61 LINE",
"431 665 LINE",
"260 665 LINE",
"120 61 LINE"
);
},
{
closed = 1;
nodes = (
"161 606 LINE",
"623 606 LINE",
"596 488 LINE",
"767 488 LINE",
"825 740 LINE",
"192 740 LINE"
);
},
{
closed = 1;
nodes = (
"30 0 LINE",
"641 0 LINE",
"702 265 LINE",
"531 265 LINE",
"501 134 LINE",
"61 134 LINE"
);
},
{
closed = 1;
nodes = (
"282 305 LINE",
"512 305 LINE",
"545 447 LINE",
"315 447 LINE"
);
}
);
width = 735;
},
{
background = {
paths = (
{
closed = 1;
nodes = (
"192 740 LINE",
"825 740 LINE",
"767 488 LINE",
"596 488 LINE",
"623 606 LINE",
"417 606 LINE",
"380 447 LINE",
"545 447 LINE",
"512 305 LINE",
"347 305 LINE",
"308 134 LINE",
"501 134 LINE",
"531 265 LINE",
"702 265 LINE",
"641 0 LINE",
"640 0 LINE",
"599 0 LINE",
"537 -20 LINE",
"496 -52 LINE",
"475 -89 LINE",
"475 -105 LINE",
"475 -124 LINE",
"499 -138 LINE",
"510 -138 LINE",
"529 -138 LINE",
"555 -132 LINE",
"565 -127 LINE",
"589 -210 LINE",
"578 -216 LINE",
"528 -230 LINE",
"502 -230 LINE",
"472 -230 LINE",
"421 -216 LINE",
"382 -190 LINE",
"360 -152 LINE",
"360 -127 LINE",
"360 -88 LINE",
"414 -23 LINE",
"452 0 LINE",
"30 0 LINE",
"61 134 LINE",
"137 134 LINE",
"246 606 LINE",
"161 606 LINE"
);
},
{
closed = 1;
nodes = (
"0 760 LINE",
"735 760 LINE",
"735 0 LINE",
"0 0 LINE"
);
}
);
};
layerId = UUID1;
paths = (
{
closed = 1;
nodes = (
"491 39 LINE",
"405 22 OFFCURVE",
"318 -27 OFFCURVE",
"318 -127 CURVE SMOOTH",
"318 -193 OFFCURVE",
"376 -230 OFFCURVE",
"455 -230 CURVE SMOOTH",
"492 -230 OFFCURVE",
"525 -219 OFFCURVE",
"542 -209 CURVE",
"521 -147 LINE",
"508 -153 OFFCURVE",
"483 -158 OFFCURVE",
"458 -158 CURVE SMOOTH",
"425 -158 OFFCURVE",
"403 -137 OFFCURVE",
"403 -110 CURVE SMOOTH",
"403 -61 OFFCURVE",
"467 0 OFFCURVE",
"566 0 CURVE"
);
},
{
closed = 1;
nodes = (
"216 52 LINE",
"361 684 LINE",
"260 684 LINE",
"114 52 LINE"
);
},
{
closed = 1;
nodes = (
"181 656 LINE",
"618 656 LINE",
"588 529 LINE",
"689 529 LINE",
"738 740 LINE",
"201 740 LINE"
);
},
{
closed = 1;
nodes = (
"37 0 LINE",
"567 0 LINE",
"616 212 LINE",
"514 212 LINE",
"484 84 LINE",
"56 84 LINE"
);
},
{
closed = 1;
nodes = (
"235 335 LINE",
"497 335 LINE",
"518 419 LINE",
"255 419 LINE"
);
}
);
width = 690;
}
);
leftKerningGroup = I;
rightKerningGroup = E;
unicode = 0118;
},
{
color = 4;
glyphname = F;
lastChange = "2017-01-23 08:35:30 +0000";
layers = (
{
anchors = (
{
name = top;
position = "{319, 700}";
}
);
background = {
paths = (
{
closed = 1;
nodes = (
"170 740 LINE",
"807 740 LINE",
"749 488 LINE",
"579 488 LINE",
"606 606 LINE",
"416 606 LINE",
"376 436 LINE",
"553 436 LINE",
"520 294 LINE",
"343 294 LINE",
"306 134 LINE",
"391 134 LINE",
"360 0 LINE",
"30 0 LINE",
"61 134 LINE",
"135 134 LINE",
"244 606 LINE",
"139 606 LINE"
);
},
{
closed = 1;
nodes = (
"0 760 LINE",
"708 760 LINE",
"708 0 LINE",
"0 0 LINE"
);
}
);
};
layerId = UUID0;
paths = (
{
closed = 1;
nodes = (
"264 294 LINE",
"520 294 LINE",
"553 436 LINE",
"297 436 LINE"
);
},
{
closed = 1;
nodes = (
"139 606 LINE",
"606 606 LINE",
"579 488 LINE",
"749 488 LINE",
"807 740 LINE",
"170 740 LINE"
);
},
{
closed = 1;
nodes = (
"289 61 LINE",
"429 665 LINE",
"258 665 LINE",
"118 61 LINE"
);
},
{
closed = 1;
nodes = (
"30 0 LINE",
"360 0 LINE",
"391 134 LINE",
"61 134 LINE"
);
}
);
width = 708;
},
{
anchors = (
{
name = top;
position = "{372, 700}";
}
);
background = {
paths = (
{
closed = 1;
nodes = (
"170 740 LINE",
"807 740 LINE",
"749 488 LINE",
"579 488 LINE",
"606 606 LINE",
"416 606 LINE",
"376 436 LINE",
"553 436 LINE",
"520 294 LINE",
"343 294 LINE",
"306 134 LINE",
"391 134 LINE",
"360 0 LINE",
"30 0 LINE",
"61 134 LINE",
"135 134 LINE",
"244 606 LINE",
"139 606 LINE"
);
},
{
closed = 1;
nodes = (
"0 760 LINE",
"708 760 LINE",
"708 0 LINE",
"0 0 LINE"
);
}
);
};
layerId = UUID1;
paths = (
{
closed = 1;
nodes = (
"229 334 LINE",
"534 334 LINE",
"553 418 LINE",
"248 418 LINE"
);
},
{
closed = 1;
nodes = (
"179 656 LINE",
"621 656 LINE",
"593 531 LINE",
"689 531 LINE",
"737 740 LINE",
"199 740 LINE"
);
},
{
closed = 1;
nodes = (
"214 52 LINE",
"359 684 LINE",
"258 684 LINE",
"112 52 LINE"
);
},
{
closed = 1;
nodes = (
"37 0 LINE",
"277 0 LINE",
"296 84 LINE",
"56 84 LINE"
);
}
);
width = 649;
}
);
leftKerningGroup = I;
unicode = 0046;
},
{
color = 4;
glyphname = G;
lastChange = "2017-01-23 08:35:30 +0000";
layers = (
{
anchors = (
{
name = top;
position = "{496, 740}";
}
);
background = {
paths = (
{
closed = 1;
nodes = (
"553 0 LINE",
"579 111 LINE",
"560 80 LINE",
"498 21 LINE",
"407 -15 LINE",
"360 -15 LINE",
"296 -15 LINE",
"187 30 LINE",
"106 112 LINE",
"60 227 LINE",
"60 297 LINE",
"60 366 LINE",
"95 488 LINE",
"157 589 LINE",
"242 669 LINE",
"340 725 LINE",
"449 754 LINE",
"505 754 LINE",
"543 754 LINE",
"615 738 LINE",
"678 709 LINE",
"728 670 LINE",
"744 649 LINE",
"831 649 LINE",
"800 515 LINE",
"610 515 LINE",
"604 530 LINE",
"581 559 LINE",
"548 580 LINE",
"508 593 LINE",
"484 593 LINE",
"434 593 LINE",
"344 546 LINE",
"277 468 LINE",
"237 367 LINE",
"237 313 LINE",
"237 276 LINE",
"257 215 LINE",
"294 169 LINE",
"349 144 LINE",
"383 144 LINE",
"415 144 LINE",
"476 163 LINE",
"527 197 LINE",
"562 239 LINE",
"572 261 LINE",
"416 261 LINE",
"447 395 LINE",
"791 395 LINE",
"699 0 LINE"
);
},
{
closed = 1;
nodes = (
"0 760 LINE",
"769 760 LINE",
"769 0 LINE",
"0 0 LINE"
);
}
);
};
layerId = UUID0;
paths = (
{
closed = 1;
nodes = (
"761 515 LINE",
"747 645 LINE",
"700 709 OFFCURVE",
"607 754 OFFCURVE",
"505 754 CURVE SMOOTH",
"283 754 OFFCURVE",
"60 574 OFFCURVE",
"60 297 CURVE SMOOTH",
"60 111 OFFCURVE",
"190 -15 OFFCURVE",
"360 -15 CURVE SMOOTH",
"486 -15 OFFCURVE",
"610 83 OFFCURVE",
"629 261 CURVE",
"575 269 LINE",
"550 198 OFFCURVE",
"468 144 OFFCURVE",
"383 144 CURVE SMOOTH",
"292 144 OFFCURVE",
"237 216 OFFCURVE",
"237 313 CURVE SMOOTH",
"237 457 OFFCURVE",
"351 593 OFFCURVE",
"484 593 CURVE SMOOTH",
"548 593 OFFCURVE",
"593 556 OFFCURVE",
"610 515 CURVE"
);
},
{
closed = 1;
nodes = (
"416 261 LINE",
"739 261 LINE",
"770 395 LINE",
"447 395 LINE"
);
},
{
closed = 1;
nodes = (
"699 0 LINE",
"791 395 LINE",
"645 395 LINE",
"553 0 LINE"
);
},
{
closed = 1;
nodes = (
"610 515 LINE",
"800 515 LINE",
"831 649 LINE",
"641 649 LINE"
);
}
);
width = 769;
},
{
anchors = (
{
name = top;
position = "{460, 740}";
}
);
background = {
paths = (
{
closed = 1;
nodes = (
"553 0 LINE",
"579 111 LINE",
"560 80 LINE",
"498 21 LINE",
"407 -15 LINE",
"360 -15 LINE",
"296 -15 LINE",
"187 30 LINE",
"106 112 LINE",
"60 227 LINE",
"60 297 LINE",
"60 366 LINE",
"95 488 LINE",
"157 589 LINE",
"242 669 LINE",
"340 725 LINE",
"449 754 LINE",
"505 754 LINE",
"543 754 LINE",
"615 738 LINE",
"678 709 LINE",
"728 670 LINE",
"744 649 LINE",
"831 649 LINE",
"800 515 LINE",
"610 515 LINE",
"604 530 LINE",
"581 559 LINE",
"548 580 LINE",
"508 593 LINE",
"484 593 LINE",
"434 593 LINE",
"344 546 LINE",
"277 468 LINE",
"237 367 LINE",
"237 313 LINE",
"237 276 LINE",
"257 215 LINE",
"294 169 LINE",
"349 144 LINE",
"383 144 LINE",
"415 144 LINE",
"476 163 LINE",
"527 197 LINE",
"562 239 LINE",
"572 261 LINE",
"416 261 LINE",
"447 395 LINE",
"791 395 LINE",
"699 0 LINE"
);
},
{
closed = 1;
nodes = (
"0 760 LINE",
"769 760 LINE",
"769 0 LINE",
"0 0 LINE"
);
}
);
};
layerId = UUID1;
paths = (
{
closed = 1;
nodes = (
"739 544 LINE",
"716 618 LINE",
"677 685 OFFCURVE",
"586 754 OFFCURVE",
"456 754 CURVE SMOOTH",
"213 754 OFFCURVE",
"37 562 OFFCURVE",
"37 320 CURVE SMOOTH",
"37 134 OFFCURVE",
"169 -12 OFFCURVE",
"348 -12 CURVE SMOOTH",
"479 -12 OFFCURVE",
"591 61 OFFCURVE",
"643 216 CURVE",
"625 299 LINE",
"586 166 OFFCURVE",
"488 85 OFFCURVE",
"359 85 CURVE SMOOTH",
"242 85 OFFCURVE",
"146 186 OFFCURVE",
"146 328 CURVE SMOOTH",
"146 509 OFFCURVE",
"270 657 OFFCURVE",
"445 657 CURVE SMOOTH",
"535 657 OFFCURVE",
"603 611 OFFCURVE",
"631 544 CURVE"
);
},
{
closed = 1;
nodes = (
"408 268 LINE",
"719 268 LINE",
"738 354 LINE",
"428 354 LINE"
);
},
{
closed = 1;
nodes = (
"662 0 LINE",
"742 354 LINE",
"644 354 LINE",
"564 0 LINE"
);
},
{
closed = 1;
nodes = (
"631 544 LINE",
"766 544 LINE",
"786 628 LINE",
"651 628 LINE"
);
}
);
width = 789;
}
);
leftKerningGroup = O;
rightKerningGroup = G;
unicode = 0047;
},
{
color = 6;
glyphname = Gbreve;
lastChange = "2017-01-23 08:35:30 +0000";
layers = (
{
background = {
paths = (
{
closed = 1;
nodes = (
"553 0 LINE",
"579 111 LINE",
"560 80 LINE",
"498 21 LINE",
"407 -15 LINE",
"360 -15 LINE",
"296 -15 LINE",
"187 30 LINE",
"106 112 LINE",
"60 227 LINE",
"60 297 LINE",
"60 366 LINE",
"95 488 LINE",
"157 589 LINE",
"242 669 LINE",
"340 725 LINE",
"449 754 LINE",
"505 754 LINE",
"543 754 LINE",
"615 738 LINE",
"678 709 LINE",
"728 670 LINE",
"744 649 LINE",
"831 649 LINE",
"800 515 LINE",
"610 515 LINE",
"604 530 LINE",
"581 559 LINE",
"548 580 LINE",
"508 593 LINE",
"484 593 LINE",
"434 593 LINE",
"344 546 LINE",
"277 468 LINE",
"237 367 LINE",
"237 313 LINE",
"237 276 LINE",
"257 215 LINE",
"294 169 LINE",
"349 144 LINE",
"383 144 LINE",
"415 144 LINE",
"476 163 LINE",
"527 197 LINE",
"562 239 LINE",
"572 261 LINE",
"416 261 LINE",
"447 395 LINE",
"791 395 LINE",
"699 0 LINE"
);
},
{
closed = 1;
nodes = (
"488 799 LINE",
"441 799 LINE",
"371 820 LINE",
"319 860 LINE",
"284 919 LINE",
"272 957 LINE",
"395 957 LINE",
"405 928 LINE",
"451 897 LINE",
"488 897 LINE",
"523 897 LINE",
"568 925 LINE",
"580 957 LINE",
"702 957 LINE",
"691 919 LINE",
"656 861 LINE",
"604 820 LINE",
"534 799 LINE"
);
},
{
closed = 1;
nodes = (
"0 760 LINE",
"769 760 LINE",
"769 0 LINE",
"0 0 LINE"
);
}
);
};
components = (
{
name = G;
},
{
name = breve;
transform = "{1, 0, 0, 1, 252, 234}";
}
);
layerId = UUID0;
width = 769;
},
{
background = {
paths = (
{
closed = 1;
nodes = (
"553 0 LINE",
"579 111 LINE",
"560 80 LINE",
"498 21 LINE",
"407 -15 LINE",
"360 -15 LINE",
"296 -15 LINE",
"187 30 LINE",
"106 112 LINE",
"60 227 LINE",
"60 297 LINE",
"60 366 LINE",
"95 488 LINE",
"157 589 LINE",
"242 669 LINE",
"340 725 LINE",
"449 754 LINE",
"505 754 LINE",
"543 754 LINE",
"615 738 LINE",
"678 709 LINE",
"728 670 LINE",
"744 649 LINE",
"831 649 LINE",
"800 515 LINE",
"610 515 LINE",
"604 530 LINE",
"581 559 LINE",
"548 580 LINE",
"508 593 LINE",
"484 593 LINE",
"434 593 LINE",
"344 546 LINE",
"277 468 LINE",
"237 367 LINE",
"237 313 LINE",
"237 276 LINE",
"257 215 LINE",
"294 169 LINE",
"349 144 LINE",
"383 144 LINE",
"415 144 LINE",
"476 163 LINE",
"527 197 LINE",
"562 239 LINE",
"572 261 LINE",
"416 261 LINE",
"447 395 LINE",
"791 395 LINE",
"699 0 LINE"
);
},
{
closed = 1;
nodes = (
"488 799 LINE",
"441 799 LINE",
"371 820 LINE",
"319 860 LINE",
"284 919 LINE",
"272 957 LINE",
"395 957 LINE",
"405 928 LINE",
"451 897 LINE",
"488 897 LINE",
"523 897 LINE",
"568 925 LINE",
"580 957 LINE",
"702 957 LINE",
"691 919 LINE",
"656 861 LINE",
"604 820 LINE",
"534 799 LINE"
);
},
{
closed = 1;
nodes = (
"0 760 LINE",
"769 760 LINE",
"769 0 LINE",
"0 0 LINE"
);
}
);
};
components = (
{
name = G;
},
{
name = breve;
transform = "{1, 0, 0, 1, 246, 234}";
}
);
layerId = UUID1;
width = 789;
}
);
leftKerningGroup = O;
rightKerningGroup = G;
unicode = 011E;
},
{
color = 6;
glyphname = Gcommaaccent;
lastChange = "2017-01-23 08:35:30 +0000";
layers = (
{
background = {
paths = (
{
closed = 1;
nodes = (
"553 0 LINE",
"579 111 LINE",
"560 80 LINE",
"498 21 LINE",
"407 -15 LINE",
"360 -15 LINE",
"296 -15 LINE",
"187 30 LINE",
"106 112 LINE",
"60 227 LINE",
"60 297 LINE",
"60 366 LINE",
"95 488 LINE",
"157 589 LINE",
"242 669 LINE",
"340 725 LINE",
"449 754 LINE",
"505 754 LINE",
"543 754 LINE",
"615 738 LINE",
"678 709 LINE",
"728 670 LINE",
"744 649 LINE",
"831 649 LINE",
"800 515 LINE",
"610 515 LINE",
"604 530 LINE",
"581 559 LINE",
"548 580 LINE",
"508 593 LINE",
"484 593 LINE",
"434 593 LINE",
"344 546 LINE",
"277 468 LINE",
"237 367 LINE",
"237 313 LINE",
"237 276 LINE",
"257 215 LINE",
"294 169 LINE",
"349 144 LINE",
"383 144 LINE",
"415 144 LINE",
"476 163 LINE",
"527 197 LINE",
"562 239 LINE",
"572 261 LINE",
"416 261 LINE",
"447 395 LINE",
"791 395 LINE",
"699 0 LINE"
);
},
{
closed = 1;
nodes = (
"342 -14 LINE",
"483 -65 LINE",
"387 -230 LINE",
"286 -195 LINE"
);
},
{
closed = 1;
nodes = (
"0 760 LINE",
"769 760 LINE",
"769 0 LINE",
"0 0 LINE"
);
}
);
};
components = (
{
name = G;
},
{
name = commabelow;
transform = "{1, 0, 0, 1, 274, 0}";
}
);
layerId = UUID0;
width = 769;
},
{
background = {
paths = (
{
closed = 1;
nodes = (
"553 0 LINE",
"579 111 LINE",
"560 80 LINE",
"498 21 LINE",
"407 -15 LINE",
"360 -15 LINE",
"296 -15 LINE",
"187 30 LINE",
"106 112 LINE",
"60 227 LINE",
"60 297 LINE",
"60 366 LINE",
"95 488 LINE",
"157 589 LINE",
"242 669 LINE",
"340 725 LINE",
"449 754 LINE",
"505 754 LINE",
"543 754 LINE",
"615 738 LINE",
"678 709 LINE",
"728 670 LINE",
"744 649 LINE",
"831 649 LINE",
"800 515 LINE",
"610 515 LINE",
"604 530 LINE",
"581 559 LINE",
"548 580 LINE",
"508 593 LINE",
"484 593 LINE",
"434 593 LINE",
"344 546 LINE",
"277 468 LINE",
"237 367 LINE",
"237 313 LINE",
"237 276 LINE",
"257 215 LINE",
"294 169 LINE",
"349 144 LINE",
"383 144 LINE",
"415 144 LINE",
"476 163 LINE",
"527 197 LINE",
"562 239 LINE",
"572 261 LINE",
"416 261 LINE",
"447 395 LINE",
"791 395 LINE",
"699 0 LINE"
);
},
{
closed = 1;
nodes = (
"342 -14 LINE",
"483 -65 LINE",
"387 -230 LINE",
"286 -195 LINE"
);
},
{
closed = 1;
nodes = (
"0 760 LINE",
"769 760 LINE",
"769 0 LINE",
"0 0 LINE"
);
}
);
};
components = (
{
name = G;
},
{
name = commabelow;
transform = "{1, 0, 0, 1, 305, 0}";
}
);
layerId = UUID1;
width = 789;
}
);
leftKerningGroup = O;
rightKerningGroup = G;
unicode = 0122;
},
{
color = 4;
glyphname = H;
lastChange = "2017-01-23 08:35:30 +0000";
layers = (
{
anchors = (
{
name = top;
position = "{355, 700}";
}
);
background = {
paths = (
{
closed = 1;
nodes = (
"690 740 LINE",
"1020 740 LINE",
"989 606 LINE",
"913 606 LINE",
"804 134 LINE",
"889 134 LINE",
"858 0 LINE",
"528 0 LINE",
"559 134 LINE",
"633 134 LINE",
"677 323 LINE",
"352 323 LINE",
"308 134 LINE",
"391 134 LINE",
"360 0 LINE",
"30 0 LINE",
"61 134 LINE",
"137 134 LINE",
"246 606 LINE",
"162 606 LINE",
"193 740 LINE",
"523 740 LINE",
"492 606 LINE",
"417 606 LINE",
"382 455 LINE",
"707 455 LINE",
"742 606 LINE",
"659 606 LINE"
);
},
{
closed = 1;
nodes = (
"0 760 LINE",
"950 760 LINE",
"950 0 LINE",
"0 0 LINE"
);
}
);
};
layerId = UUID0;
paths = (
{
closed = 1;
nodes = (
"277 323 LINE",
"764 323 LINE",
"794 455 LINE",
"307 455 LINE"
);
},
{
closed = 1;
nodes = (
"528 0 LINE",
"858 0 LINE",
"889 134 LINE",
"559 134 LINE"
);
},
{
closed = 1;
nodes = (
"787 61 LINE",
"927 665 LINE",
"756 665 LINE",
"616 61 LINE"
);
},
{
closed = 1;
nodes = (
"659 606 LINE",
"989 606 LINE",
"1020 740 LINE",
"690 740 LINE"
);
},
{
closed = 1;
nodes = (
"30 0 LINE",
"360 0 LINE",
"391 134 LINE",
"61 134 LINE"
);
},
{
closed = 1;
nodes = (
"291 61 LINE",
"431 665 LINE",
"260 665 LINE",
"120 61 LINE"
);
},
{
closed = 1;
nodes = (
"162 606 LINE",
"492 606 LINE",
"523 740 LINE",
"193 740 LINE"
);
}
);
width = 950;
},
{
anchors = (
{
name = top;
position = "{429, 700}";
}
);
background = {
paths = (
{
closed = 1;
nodes = (
"690 740 LINE",
"1020 740 LINE",
"989 606 LINE",
"913 606 LINE",
"804 134 LINE",
"889 134 LINE",
"858 0 LINE",
"528 0 LINE",
"559 134 LINE",
"633 134 LINE",
"677 323 LINE",
"352 323 LINE",
"308 134 LINE",
"391 134 LINE",
"360 0 LINE",
"30 0 LINE",
"61 134 LINE",
"137 134 LINE",
"246 606 LINE",
"162 606 LINE",
"193 740 LINE",
"523 740 LINE",
"492 606 LINE",
"417 606 LINE",
"382 455 LINE",
"707 455 LINE",
"742 606 LINE",
"659 606 LINE"
);
},
{
closed = 1;
nodes = (
"0 760 LINE",
"950 760 LINE",
"950 0 LINE",
"0 0 LINE"
);
}
);
};
layerId = UUID1;
paths = (
{
closed = 1;
nodes = (
"252 350 LINE",
"753 350 LINE",
"772 432 LINE",
"271 432 LINE"
);
},
{
closed = 1;
nodes = (
"556 0 LINE",
"796 0 LINE",
"815 84 LINE",
"575 84 LINE"
);
},
{
closed = 1;
nodes = (
"735 52 LINE",
"880 684 LINE",
"779 684 LINE",
"633 52 LINE"
);
},
{
closed = 1;
nodes = (
"700 656 LINE",
"940 656 LINE",
"960 740 LINE",
"720 740 LINE"
);
},
{
closed = 1;
nodes = (
"36 0 LINE",
"276 0 LINE",
"295 84 LINE",
"55 84 LINE"
);
},
{
closed = 1;
nodes = (
"215 52 LINE",
"360 684 LINE",
"259 684 LINE",
"113 52 LINE"
);
},
{
closed = 1;
nodes = (
"180 656 LINE",
"420 656 LINE",
"440 740 LINE",
"200 740 LINE"
);
}
);
width = 943;
}
);
leftKerningGroup = I;
rightKerningGroup = I;
unicode = 0048;
},
{
color = 4;
glyphname = I;
lastChange = "2017-01-23 08:35:30 +0000";
layers = (
{
anchors = (
{
name = top;
position = "{351, 740}";
}
);
background = {
paths = (
{
closed = 1;
nodes = (
"192 740 LINE",
"522 740 LINE",
"491 606 LINE",
"417 606 LINE",
"308 134 LINE",
"391 134 LINE",
"360 0 LINE",
"30 0 LINE",
"61 134 LINE",
"137 134 LINE",
"246 606 LINE",
"161 606 LINE"
);
},
{
closed = 1;
nodes = (
"0 760 LINE",
"452 760 LINE",
"452 0 LINE",
"0 0 LINE"
);
}
);
};
layerId = UUID0;
paths = (
{
closed = 1;
nodes = (
"30 0 LINE",
"360 0 LINE",
"391 134 LINE",
"61 134 LINE"
);
},
{
closed = 1;
nodes = (
"291 61 LINE",
"431 665 LINE",
"260 665 LINE",
"120 61 LINE"
);
},
{
closed = 1;
nodes = (
"161 606 LINE",
"491 606 LINE",
"522 740 LINE",
"192 740 LINE"
);
}
);
width = 452;
},
{
anchors = (
{
name = top;
position = "{322, 740}";
}
);
background = {
paths = (
{
closed = 1;
nodes = (
"192 740 LINE",
"522 740 LINE",
"491 606 LINE",
"417 606 LINE",
"308 134 LINE",
"391 134 LINE",
"360 0 LINE",
"30 0 LINE",
"61 134 LINE",
"137 134 LINE",
"246 606 LINE",
"161 606 LINE"
);
},
{
closed = 1;
nodes = (
"0 760 LINE",
"452 760 LINE",
"452 0 LINE",
"0 0 LINE"
);
}
);
};
layerId = UUID1;
paths = (
{
closed = 1;
nodes = (
"37 0 LINE",
"277 0 LINE",
"296 84 LINE",
"56 84 LINE"
);
},
{
closed = 1;
nodes = (
"221 52 LINE",
"366 684 LINE",
"265 684 LINE",
"119 52 LINE"
);
},
{
closed = 1;
nodes = (
"188 656 LINE",
"428 656 LINE",
"448 740 LINE",
"208 740 LINE"
);
}
);
width = 431;
}
);
leftKerningGroup = I;
rightKerningGroup = I;
unicode = 0049;
},
{
color = 4;
glyphname = Iacute;
lastChange = "2017-01-23 08:35:30 +0000";
layers = (
{
background = {
paths = (
{
closed = 1;
nodes = (
"192 740 LINE",
"522 740 LINE",
"491 606 LINE",
"417 606 LINE",
"308 134 LINE",
"391 134 LINE",
"360 0 LINE",
"30 0 LINE",
"61 134 LINE",
"137 134 LINE",
"246 606 LINE",
"161 606 LINE"
);
},
{
closed = 1;
nodes = (
"379 961 LINE",
"538 961 LINE",
"538 949 LINE",
"389 810 LINE",
"274 810 LINE"
);
},
{
closed = 1;
nodes = (
"0 760 LINE",
"452 760 LINE",
"452 0 LINE",
"0 0 LINE"
);
}
);
};
components = (
{
name = I;
},
{
name = acute;
transform = "{1, 0, 0, 1, 254, 234}";
}
);
layerId = UUID0;
width = 452;
},
{
background = {
paths = (
{
closed = 1;
nodes = (
"192 740 LINE",
"522 740 LINE",
"491 606 LINE",
"417 606 LINE",
"308 134 LINE",
"391 134 LINE",
"360 0 LINE",
"30 0 LINE",
"61 134 LINE",
"137 134 LINE",
"246 606 LINE",
"161 606 LINE"
);
},
{
closed = 1;
nodes = (
"379 961 LINE",
"538 961 LINE",
"538 949 LINE",
"389 810 LINE",
"274 810 LINE"
);
},
{
closed = 1;
nodes = (
"0 760 LINE",
"452 760 LINE",
"452 0 LINE",
"0 0 LINE"
);
}
);
};
components = (
{
name = I;
},
{
name = acute;
transform = "{1, 0, 0, 1, 216, 234}";
}
);
layerId = UUID1;
width = 431;
}
);
leftKerningGroup = I;
rightKerningGroup = I;
unicode = 00CD;
},
{
color = 4;
glyphname = Icircumflex;
lastChange = "2017-01-23 08:35:30 +0000";
layers = (
{
background = {
paths = (
{
closed = 1;
nodes = (
"192 740 LINE",
"522 740 LINE",
"491 606 LINE",
"417 606 LINE",
"308 134 LINE",
"391 134 LINE",
"360 0 LINE",
"30 0 LINE",
"61 134 LINE",
"137 134 LINE",
"246 606 LINE",
"161 606 LINE"
);
},
{
closed = 1;
nodes = (
"157 810 LINE",
"331 968 LINE",
"448 968 LINE",
"544 810 LINE",
"423 810 LINE",
"376 886 LINE",
"292 810 LINE"
);
},
{
closed = 1;
nodes = (
"0 760 LINE",
"452 760 LINE",
"452 0 LINE",
"0 0 LINE"
);
}
);
};
components = (
{
name = I;
},
{
name = circumflex;
transform = "{1, 0, 0, 1, 108, 234}";
}
);
layerId = UUID0;
width = 452;
},
{
background = {
paths = (
{
closed = 1;
nodes = (
"192 740 LINE",
"522 740 LINE",
"491 606 LINE",
"417 606 LINE",
"308 134 LINE",
"391 134 LINE",
"360 0 LINE",
"30 0 LINE",
"61 134 LINE",
"137 134 LINE",
"246 606 LINE",
"161 606 LINE"
);
},
{
closed = 1;
nodes = (
"157 810 LINE",
"331 968 LINE",
"448 968 LINE",
"544 810 LINE",
"423 810 LINE",
"376 886 LINE",
"292 810 LINE"
);
},
{
closed = 1;
nodes = (
"0 760 LINE",
"452 760 LINE",
"452 0 LINE",
"0 0 LINE"
);
}
);
};
components = (
{
name = I;
},
{
name = circumflex;
transform = "{1, 0, 0, 1, 120, 234}";
}
);
layerId = UUID1;
width = 431;
}
);
leftKerningGroup = I;
rightKerningGroup = I;
unicode = 00CE;
},
{
color = 4;
glyphname = Idieresis;
lastChange = "2017-01-23 08:35:30 +0000";
layers = (
{
background = {
paths = (
{
closed = 1;
nodes = (
"192 740 LINE",
"522 740 LINE",
"491 606 LINE",
"417 606 LINE",
"308 134 LINE",
"391 134 LINE",
"360 0 LINE",
"30 0 LINE",
"61 134 LINE",
"137 134 LINE",
"246 606 LINE",
"161 606 LINE"
);
},
{
closed = 1;
nodes = (
"207 889 LINE",
"207 921 LINE",
"252 967 LINE",
"285 967 LINE",
"301 967 LINE",
"329 956 LINE",
"350 935 LINE",
"362 905 LINE",
"362 889 LINE",
"362 874 LINE",
"350 844 LINE",
"329 823 LINE",
"301 812 LINE",
"285 812 LINE",
"252 812 LINE",
"207 857 LINE"
);
},
{
closed = 1;
nodes = (
"391 889 LINE",
"391 921 LINE",
"436 967 LINE",
"469 967 LINE",
"485 967 LINE",
"513 956 LINE",
"534 935 LINE",
"546 905 LINE",
"546 889 LINE",
"546 874 LINE",
"534 844 LINE",
"513 823 LINE",
"485 812 LINE",
"469 812 LINE",
"436 812 LINE",
"391 857 LINE"
);
},
{
closed = 1;
nodes = (
"0 760 LINE",
"452 760 LINE",
"452 0 LINE",
"0 0 LINE"
);
}
);
};
components = (
{
name = I;
},
{
name = dieresis.i;
transform = "{1, 0, 0, 1, 101, 233}";
}
);
layerId = UUID0;
width = 452;
},
{
background = {
paths = (
{
closed = 1;
nodes = (
"192 740 LINE",
"522 740 LINE",
"491 606 LINE",
"417 606 LINE",
"308 134 LINE",
"391 134 LINE",
"360 0 LINE",
"30 0 LINE",
"61 134 LINE",
"137 134 LINE",
"246 606 LINE",
"161 606 LINE"
);
},
{
closed = 1;
nodes = (
"207 889 LINE",
"207 921 LINE",
"252 967 LINE",
"285 967 LINE",
"301 967 LINE",
"329 956 LINE",
"350 935 LINE",
"362 905 LINE",
"362 889 LINE",
"362 874 LINE",
"350 844 LINE",
"329 823 LINE",
"301 812 LINE",
"285 812 LINE",
"252 812 LINE",
"207 857 LINE"
);
},
{
closed = 1;
nodes = (
"391 889 LINE",
"391 921 LINE",
"436 967 LINE",
"469 967 LINE",
"485 967 LINE",
"513 956 LINE",
"534 935 LINE",
"546 905 LINE",
"546 889 LINE",
"546 874 LINE",
"534 844 LINE",
"513 823 LINE",
"485 812 LINE",
"469 812 LINE",
"436 812 LINE",
"391 857 LINE"
);
},
{
closed = 1;
nodes = (
"0 760 LINE",
"452 760 LINE",
"452 0 LINE",
"0 0 LINE"
);
}
);
};
components = (
{
name = I;
},
{
name = dieresis.i;
transform = "{1, 0, 0, 1, 85, 234}";
}
);
layerId = UUID1;
width = 431;
}
);
leftKerningGroup = I;
rightKerningGroup = I;
unicode = 00CF;
},
{
color = 6;
glyphname = Idotaccent;
lastChange = "2017-01-23 08:35:30 +0000";
layers = (
{
background = {
paths = (
{
closed = 1;
nodes = (
"192 740 LINE",
"522 740 LINE",
"491 606 LINE",
"417 606 LINE",
"308 134 LINE",
"391 134 LINE",
"360 0 LINE",
"30 0 LINE",
"61 134 LINE",
"137 134 LINE",
"246 606 LINE",
"161 606 LINE"
);
},
{
closed = 1;
nodes = (
"260 903 LINE",
"260 921 LINE",
"273 953 LINE",
"296 977 LINE",
"328 990 LINE",
"347 990 LINE",
"364 990 LINE",
"396 977 LINE",
"419 953 LINE",
"433 921 LINE",
"433 903 LINE",
"433 885 LINE",
"419 854 LINE",
"396 830 LINE",
"364 816 LINE",
"347 816 LINE",
"328 816 LINE",
"296 830 LINE",
"273 854 LINE",
"260 885 LINE"
);
},
{
closed = 1;
nodes = (
"0 760 LINE",
"452 760 LINE",
"452 0 LINE",
"0 0 LINE"
);
}
);
};
components = (
{
name = I;
},
{
name = dotaccent;
transform = "{1, 0, 0, 1, 215, 234}";
}
);
layerId = UUID0;
width = 452;
},
{
background = {
paths = (
{
closed = 1;
nodes = (
"192 740 LINE",
"522 740 LINE",
"491 606 LINE",
"417 606 LINE",
"308 134 LINE",
"391 134 LINE",
"360 0 LINE",
"30 0 LINE",
"61 134 LINE",
"137 134 LINE",
"246 606 LINE",
"161 606 LINE"
);
},
{
closed = 1;
nodes = (
"260 903 LINE",
"260 921 LINE",
"273 953 LINE",
"296 977 LINE",
"328 990 LINE",
"347 990 LINE",
"364 990 LINE",
"396 977 LINE",
"419 953 LINE",
"433 921 LINE",
"433 903 LINE",
"433 885 LINE",
"419 854 LINE",
"396 830 LINE",
"364 816 LINE",
"347 816 LINE",
"328 816 LINE",
"296 830 LINE",
"273 854 LINE",
"260 885 LINE"
);
},
{
closed = 1;
nodes = (
"0 760 LINE",
"452 760 LINE",
"452 0 LINE",
"0 0 LINE"
);
}
);
};
components = (
{
name = I;
},
{
name = dotaccent;
transform = "{1, 0, 0, 1, 208, 234}";
}
);
layerId = UUID1;
width = 431;
}
);
leftKerningGroup = I;
rightKerningGroup = I;
unicode = 0130;
},
{
color = 4;
glyphname = Igrave;
lastChange = "2017-01-23 08:35:30 +0000";
layers = (
{
background = {
paths = (
{
closed = 1;
nodes = (
"192 740 LINE",
"522 740 LINE",
"491 606 LINE",
"417 606 LINE",
"308 134 LINE",
"391 134 LINE",
"360 0 LINE",
"30 0 LINE",
"61 134 LINE",
"137 134 LINE",
"246 606 LINE",
"161 606 LINE"
);
},
{
closed = 1;
nodes = (
"330 810 LINE",
"187 949 LINE",
"187 961 LINE",
"346 961 LINE",
"442 810 LINE"
);
},
{
closed = 1;
nodes = (
"0 760 LINE",
"452 760 LINE",
"452 0 LINE",
"0 0 LINE"
);
}
);
};
components = (
{
name = I;
},
{
name = grave;
transform = "{1, 0, 0, 1, 105, 234}";
}
);
layerId = UUID0;
width = 452;
},
{
background = {
paths = (
{
closed = 1;
nodes = (
"192 740 LINE",
"522 740 LINE",
"491 606 LINE",
"417 606 LINE",
"308 134 LINE",
"391 134 LINE",
"360 0 LINE",
"30 0 LINE",
"61 134 LINE",
"137 134 LINE",
"246 606 LINE",
"161 606 LINE"
);
},
{
closed = 1;
nodes = (
"330 810 LINE",
"187 949 LINE",
"187 961 LINE",
"346 961 LINE",
"442 810 LINE"
);
},
{
closed = 1;
nodes = (
"0 760 LINE",
"452 760 LINE",
"452 0 LINE",
"0 0 LINE"
);
}
);
};
components = (
{
name = I;
},
{
name = grave;
transform = "{1, 0, 0, 1, 75, 234}";
}
);
layerId = UUID1;
width = 431;
}
);
leftKerningGroup = I;
rightKerningGroup = I;
unicode = 00CC;
},
{
color = 6;
glyphname = Imacron;
lastChange = "2017-01-23 08:35:30 +0000";
layers = (
{
background = {
paths = (
{
closed = 1;
nodes = (
"192 740 LINE",
"522 740 LINE",
"491 606 LINE",
"417 606 LINE",
"308 134 LINE",
"391 134 LINE",
"360 0 LINE",
"30 0 LINE",
"61 134 LINE",
"137 134 LINE",
"246 606 LINE",
"161 606 LINE"
);
},
{
closed = 1;
nodes = (
"519 809 LINE",
"183 809 LINE",
"183 914 LINE",
"519 914 LINE"
);
},
{
closed = 1;
nodes = (
"0 760 LINE",
"452 760 LINE",
"452 0 LINE",
"0 0 LINE"
);
}
);
};
components = (
{
name = I;
},
{
name = macron;
transform = "{1, 0, 0, 1, 143, 234}";
}
);
layerId = UUID0;
width = 452;
},
{
background = {
paths = (
{
closed = 1;
nodes = (
"192 740 LINE",
"522 740 LINE",
"491 606 LINE",
"417 606 LINE",
"308 134 LINE",
"391 134 LINE",
"360 0 LINE",
"30 0 LINE",
"61 134 LINE",
"137 134 LINE",
"246 606 LINE",
"161 606 LINE"
);
},
{
closed = 1;
nodes = (
"519 809 LINE",
"183 809 LINE",
"183 914 LINE",
"519 914 LINE"
);
},
{
closed = 1;
nodes = (
"0 760 LINE",
"452 760 LINE",
"452 0 LINE",
"0 0 LINE"
);
}
);
};
components = (
{
name = I;
},
{
name = macron;
transform = "{1, 0, 0, 1, 87, 234}";
}
);
layerId = UUID1;
width = 431;
}
);
leftKerningGroup = I;
rightKerningGroup = I;
unicode = 012A;
},
{
color = 6;
glyphname = Iogonek;
lastChange = "2017-01-23 08:35:30 +0000";
layers = (
{
background = {
paths = (
{
closed = 1;
nodes = (
"192 740 LINE",
"522 740 LINE",
"491 606 LINE",
"417 606 LINE",
"308 134 LINE",
"391 134 LINE",
"360 0 LINE",
"206 0 LINE",
"181 -1 LINE",
"131 -22 LINE",
"90 -53 LINE",
"65 -89 LINE",
"65 -105 LINE",
"65 -124 LINE",
"89 -138 LINE",
"100 -138 LINE",
"119 -138 LINE",
"145 -132 LINE",
"155 -127 LINE",
"179 -210 LINE",
"168 -216 LINE",
"118 -230 LINE",
"92 -230 LINE",
"62 -230 LINE",
"11 -216 LINE",
"-28 -190 LINE",
"-50 -152 LINE",
"-50 -127 LINE",
"-50 -85 LINE",
"3 -22 LINE",
"40 0 LINE",
"71 134 LINE",
"137 134 LINE",
"246 606 LINE",
"161 606 LINE"
);
},
{
closed = 1;
nodes = (
"0 760 LINE",
"452 760 LINE",
"452 0 LINE",
"0 0 LINE"
);
}
);
};
layerId = UUID0;
paths = (
{
closed = 1;
nodes = (
"158 47 LINE",
"84 31 OFFCURVE",
"-50 -27 OFFCURVE",
"-50 -127 CURVE SMOOTH",
"-50 -193 OFFCURVE",
"13 -230 OFFCURVE",
"92 -230 CURVE SMOOTH",
"127 -230 OFFCURVE",
"165 -218 OFFCURVE",
"179 -210 CURVE",
"155 -127 LINE",
"142 -133 OFFCURVE",
"125 -138 OFFCURVE",
"100 -138 CURVE SMOOTH",
"86 -138 OFFCURVE",
"65 -130 OFFCURVE",
"65 -105 CURVE SMOOTH",
"65 -61 OFFCURVE",
"143 0 OFFCURVE",
"211 0 CURVE"
);
},
{
closed = 1;
nodes = (
"40 0 LINE",
"360 0 LINE",
"391 134 LINE",
"71 134 LINE"
);
},
{
closed = 1;
nodes = (
"291 61 LINE",
"431 665 LINE",
"260 665 LINE",
"120 61 LINE"
);
},
{
closed = 1;
nodes = (
"161 606 LINE",
"491 606 LINE",
"522 740 LINE",
"192 740 LINE"
);
}
);
width = 452;
},
{
background = {
paths = (
{
closed = 1;
nodes = (
"192 740 LINE",
"522 740 LINE",
"491 606 LINE",
"417 606 LINE",
"308 134 LINE",
"391 134 LINE",
"360 0 LINE",
"206 0 LINE",
"181 -1 LINE",
"131 -22 LINE",
"90 -53 LINE",
"65 -89 LINE",
"65 -105 LINE",
"65 -124 LINE",
"89 -138 LINE",
"100 -138 LINE",
"119 -138 LINE",
"145 -132 LINE",
"155 -127 LINE",
"179 -210 LINE",
"168 -216 LINE",
"118 -230 LINE",
"92 -230 LINE",
"62 -230 LINE",
"11 -216 LINE",
"-28 -190 LINE",
"-50 -152 LINE",
"-50 -127 LINE",
"-50 -85 LINE",
"3 -22 LINE",
"40 0 LINE",
"71 134 LINE",
"137 134 LINE",
"246 606 LINE",
"161 606 LINE"
);
},
{
closed = 1;
nodes = (
"0 760 LINE",
"452 760 LINE",
"452 0 LINE",
"0 0 LINE"
);
}
);
};
layerId = UUID1;
paths = (
{
closed = 1;
nodes = (
"136 38 LINE",
"78 38 OFFCURVE",
"-37 -27 OFFCURVE",
"-37 -127 CURVE SMOOTH",
"-37 -193 OFFCURVE",
"21 -230 OFFCURVE",
"100 -230 CURVE SMOOTH",
"137 -230 OFFCURVE",
"170 -219 OFFCURVE",
"187 -209 CURVE",
"166 -147 LINE",
"153 -153 OFFCURVE",
"128 -158 OFFCURVE",
"103 -158 CURVE SMOOTH",
"70 -158 OFFCURVE",
"48 -137 OFFCURVE",
"48 -110 CURVE SMOOTH",
"48 -53 OFFCURVE",
"128 0 OFFCURVE",
"209 0 CURVE"
);
},
{
closed = 1;
nodes = (
"37 0 LINE",
"277 0 LINE",
"296 84 LINE",
"56 84 LINE"
);
},
{
closed = 1;
nodes = (
"221 52 LINE",
"366 684 LINE",
"265 684 LINE",
"119 52 LINE"
);
},
{
closed = 1;
nodes = (
"188 656 LINE",
"428 656 LINE",
"448 740 LINE",
"208 740 LINE"
);
}
);
width = 431;
}
);
leftKerningGroup = I;
rightKerningGroup = I;
unicode = 012E;
},
{
color = 4;
glyphname = J;
lastChange = "2017-01-23 08:35:30 +0000";
layers = (
{
anchors = (
{
name = top;
position = "{61, 660}";
}
);
background = {
paths = (
{
closed = 1;
nodes = (
"172 740 LINE",
"502 740 LINE",
"471 606 LINE",
"398 606 LINE",
"278 84 LINE",
"257 44 LINE",
"225 2 LINE",
"182 -40 LINE",
"145 -78 LINE",
"97 -120 LINE",
"-40 -109 LINE",
"1 -65 LINE",
"48 -12 LINE",
"96 56 LINE",
"112 100 LINE",
"229 606 LINE",
"141 606 LINE"
);
},
{
closed = 1;
nodes = (
"0 760 LINE",
"382 760 LINE",
"382 0 LINE",
"0 0 LINE"
);
}
);
};
layerId = UUID0;
paths = (
{
closed = 1;
nodes = (
"97 -120 LINE",
"97 -120 OFFCURVE",
"265 27 OFFCURVE",
"278 84 CURVE SMOOTH",
"418 689 LINE",
"248 689 LINE",
"112 100 LINE SMOOTH",
"100 46 OFFCURVE",
"-40 -109 OFFCURVE",
"-40 -109 CURVE"
);
},
{
closed = 1;
nodes = (
"141 606 LINE",
"471 606 LINE",
"502 740 LINE",
"172 740 LINE"
);
}
);
width = 382;
},
{
anchors = (
{
name = top;
position = "{96, 660}";
}
);
background = {
paths = (
{
closed = 1;
nodes = (
"172 740 LINE",
"502 740 LINE",
"471 606 LINE",
"398 606 LINE",
"278 84 LINE",
"257 44 LINE",
"225 2 LINE",
"182 -40 LINE",
"145 -78 LINE",
"97 -120 LINE",
"-40 -109 LINE",
"1 -65 LINE",
"48 -12 LINE",
"96 56 LINE",
"112 100 LINE",
"229 606 LINE",
"141 606 LINE"
);
},
{
closed = 1;
nodes = (
"0 760 LINE",
"382 760 LINE",
"382 0 LINE",
"0 0 LINE"
);
}
);
};
layerId = UUID1;
paths = (
{
closed = 1;
nodes = (
"46 -116 LINE",
"46 -116 OFFCURVE",
"197 27 OFFCURVE",
"210 84 CURVE SMOOTH",
"350 689 LINE",
"252 689 LINE",
"116 100 LINE SMOOTH",
"104 46 OFFCURVE",
"-36 -109 OFFCURVE",
"-36 -109 CURVE"
);
},
{
closed = 1;
nodes = (
"170 656 LINE",
"410 656 LINE",
"430 740 LINE",
"190 740 LINE"
);
}
);
width = 372;
}
);
unicode = 004A;
},
{
color = 4;
glyphname = K;
lastChange = "2017-01-23 08:35:30 +0000";
layers = (
{
anchors = (
{
name = top;
position = "{601, 740}";
}
);
background = {
paths = (
{
closed = 1;
nodes = (
"669 607 LINE",
"700 740 LINE",
"1002 740 LINE",
"971 606 LINE",
"906 606 LINE",
"592 373 LINE",
"763 134 LINE",
"835 134 LINE",
"805 0 LINE",
"530 0 LINE",
"561 134 LINE",
"377 387 LINE"
);
},
{
closed = 1;
nodes = (
"192 740 LINE",
"522 740 LINE",
"491 606 LINE",
"417 606 LINE",
"308 134 LINE",
"391 134 LINE",
"360 0 LINE",
"30 0 LINE",
"61 134 LINE",
"137 134 LINE",
"246 606 LINE",
"161 606 LINE"
);
},
{
closed = 1;
nodes = (
"0 760 LINE",
"852 760 LINE",
"852 0 LINE",
"0 0 LINE"
);
}
);
};
layerId = UUID0;
paths = (
{
closed = 1;
nodes = (
"377 387 LINE",
"561 134 LINE",
"530 0 LINE",
"805 0 LINE",
"835 134 LINE",
"763 134 LINE",
"565 411 LINE",
"573 359 LINE",
"906 606 LINE",
"971 606 LINE",
"1002 740 LINE",
"700 740 LINE",
"669 607 LINE"
);
},
{
closed = 1;
nodes = (
"30 0 LINE",
"360 0 LINE",
"391 134 LINE",
"61 134 LINE"
);
},
{
closed = 1;
nodes = (
"291 61 LINE",
"431 665 LINE",
"260 665 LINE",
"120 61 LINE"
);
},
{
closed = 1;
nodes = (
"161 606 LINE",
"491 606 LINE",
"522 740 LINE",
"192 740 LINE"
);
}
);
width = 852;
},
{
anchors = (
{
name = top;
position = "{560, 740}";
}
);
background = {
paths = (
{
closed = 1;
nodes = (
"669 607 LINE",
"700 740 LINE",
"1002 740 LINE",
"971 606 LINE",
"906 606 LINE",
"592 373 LINE",
"763 134 LINE",
"835 134 LINE",
"805 0 LINE",
"530 0 LINE",
"561 134 LINE",
"377 387 LINE"
);
},
{
closed = 1;
nodes = (
"192 740 LINE",
"522 740 LINE",
"491 606 LINE",
"417 606 LINE",
"308 134 LINE",
"391 134 LINE",
"360 0 LINE",
"30 0 LINE",
"61 134 LINE",
"137 134 LINE",
"246 606 LINE",
"161 606 LINE"
);
},
{
closed = 1;
nodes = (
"0 760 LINE",
"852 760 LINE",
"852 0 LINE",
"0 0 LINE"
);
}
);
};
layerId = UUID1;
paths = (
{
closed = 1;
nodes = (
"292 378 LINE",
"521 84 LINE",
"502 0 LINE",
"701 0 LINE",
"720 84 LINE",
"643 84 LINE",
"391 398 LINE",
"380 344 LINE",
"823 656 LINE",
"869 656 LINE",
"889 740 LINE",
"699 740 LINE",
"679 656 LINE"
);
},
{
closed = 1;
nodes = (
"37 0 LINE",
"277 0 LINE",
"296 84 LINE",
"56 84 LINE"
);
},
{
closed = 1;
nodes = (
"216 52 LINE",
"361 684 LINE",
"260 684 LINE",
"114 52 LINE"
);
},
{
closed = 1;
nodes = (
"181 656 LINE",
"421 656 LINE",
"441 740 LINE",
"201 740 LINE"
);
}
);
width = 801;
}
);
leftKerningGroup = I;
rightKerningGroup = K;
unicode = 004B;
},
{
color = 6;
glyphname = Kcommaaccent;
lastChange = "2017-01-23 08:35:30 +0000";
layers = (
{
background = {
paths = (
{
closed = 1;
nodes = (
"669 607 LINE",
"700 740 LINE",
"1002 740 LINE",
"971 606 LINE",
"906 606 LINE",
"592 373 LINE",
"763 134 LINE",
"835 134 LINE",
"805 0 LINE",
"530 0 LINE",
"561 134 LINE",
"377 387 LINE"
);
},
{
closed = 1;
nodes = (
"192 740 LINE",
"522 740 LINE",
"491 606 LINE",
"417 606 LINE",
"308 134 LINE",
"391 134 LINE",
"360 0 LINE",
"30 0 LINE",
"61 134 LINE",
"137 134 LINE",
"246 606 LINE",
"161 606 LINE"
);
},
{
closed = 1;
nodes = (
"383 -14 LINE",
"524 -65 LINE",
"428 -230 LINE",
"327 -195 LINE"
);
},
{
closed = 1;
nodes = (
"0 760 LINE",
"852 760 LINE",
"852 0 LINE",
"0 0 LINE"
);
}
);
};
components = (
{
name = K;
},
{
name = commabelow;
transform = "{1, 0, 0, 1, 315, 0}";
}
);
layerId = UUID0;
width = 852;
},
{
background = {
paths = (
{
closed = 1;
nodes = (
"669 607 LINE",
"700 740 LINE",
"1002 740 LINE",
"971 606 LINE",
"906 606 LINE",
"592 373 LINE",
"763 134 LINE",
"835 134 LINE",
"805 0 LINE",
"530 0 LINE",
"561 134 LINE",
"377 387 LINE"
);
},
{
closed = 1;
nodes = (
"192 740 LINE",
"522 740 LINE",
"491 606 LINE",
"417 606 LINE",
"308 134 LINE",
"391 134 LINE",
"360 0 LINE",
"30 0 LINE",
"61 134 LINE",
"137 134 LINE",
"246 606 LINE",
"161 606 LINE"
);
},
{
closed = 1;
nodes = (
"383 -14 LINE",
"524 -65 LINE",
"428 -230 LINE",
"327 -195 LINE"
);
},
{
closed = 1;
nodes = (
"0 760 LINE",
"852 760 LINE",
"852 0 LINE",
"0 0 LINE"
);
}
);
};
components = (
{
name = K;
},
{
name = commabelow;
transform = "{1, 0, 0, 1, 311, 0}";
}
);
layerId = UUID1;
width = 801;
}
);
leftKerningGroup = I;
rightKerningGroup = K;
unicode = 0136;
},
{
color = 4;
glyphname = L;
lastChange = "2017-01-23 08:35:30 +0000";
layers = (
{
anchors = (
{
name = top;
position = "{330, 700}";
}
);
background = {
paths = (
{
closed = 1;
nodes = (
"192 740 LINE",
"522 740 LINE",
"491 606 LINE",
"417 606 LINE",
"307 134 LINE",
"447 134 LINE",
"464 134 LINE",
"489 157 LINE",
"494 174 LINE",
"518 272 LINE",
"683 272 LINE",
"621 0 LINE",
"30 0 LINE",
"61 134 LINE",
"136 134 LINE",
"245 606 LINE",
"161 606 LINE"
);
},
{
closed = 1;
nodes = (
"0 760 LINE",
"643 760 LINE",
"643 0 LINE",
"0 0 LINE"
);
}
);
};
layerId = UUID0;
paths = (
{
closed = 1;
nodes = (
"518 272 LINE",
"494 174 LINE SMOOTH",
"488 151 OFFCURVE",
"470 134 OFFCURVE",
"447 134 CURVE SMOOTH",
"61 134 LINE",
"30 0 LINE",
"621 0 LINE",
"683 272 LINE"
);
},
{
closed = 1;
nodes = (
"290 61 LINE",
"430 665 LINE",
"259 665 LINE",
"119 61 LINE"
);
},
{
closed = 1;
nodes = (
"161 606 LINE",
"491 606 LINE",
"522 740 LINE",
"192 740 LINE"
);
}
);
width = 643;
},
{
anchors = (
{
name = top;
position = "{378, 700}";
}
);
background = {
paths = (
{
closed = 1;
nodes = (
"192 740 LINE",
"522 740 LINE",
"491 606 LINE",
"417 606 LINE",
"307 134 LINE",
"447 134 LINE",
"464 134 LINE",
"489 157 LINE",
"494 174 LINE",
"518 272 LINE",
"683 272 LINE",
"621 0 LINE",
"30 0 LINE",
"61 134 LINE",
"136 134 LINE",
"245 606 LINE",
"161 606 LINE"
);
},
{
closed = 1;
nodes = (
"0 760 LINE",
"643 760 LINE",
"643 0 LINE",
"0 0 LINE"
);
}
);
};
layerId = UUID1;
paths = (
{
closed = 1;
nodes = (
"541 219 LINE",
"518 123 LINE SMOOTH",
"513 101 OFFCURVE",
"498 84 OFFCURVE",
"470 84 CURVE SMOOTH",
"56 84 LINE",
"37 0 LINE",
"588 0 LINE",
"639 219 LINE"
);
},
{
closed = 1;
nodes = (
"216 52 LINE",
"361 684 LINE",
"260 684 LINE",
"114 52 LINE"
);
},
{
closed = 1;
nodes = (
"181 656 LINE",
"421 656 LINE",
"441 740 LINE",
"201 740 LINE"
);
}
);
width = 671;
}
);
leftKerningGroup = I;
rightKerningGroup = L;
unicode = 004C;
},
{
color = 6;
glyphname = Lacute;
lastChange = "2017-01-23 08:35:30 +0000";
layers = (
{
background = {
paths = (
{
closed = 1;
nodes = (
"192 740 LINE",
"522 740 LINE",
"491 606 LINE",
"417 606 LINE",
"307 134 LINE",
"447 134 LINE",
"464 134 LINE",
"489 157 LINE",
"494 174 LINE",
"518 272 LINE",
"683 272 LINE",
"621 0 LINE",
"30 0 LINE",
"61 134 LINE",
"136 134 LINE",
"245 606 LINE",
"161 606 LINE"
);
},
{
closed = 1;
nodes = (
"358 921 LINE",
"517 921 LINE",
"517 909 LINE",
"368 769 LINE",
"253 769 LINE"
);
},
{
closed = 1;
nodes = (
"0 760 LINE",
"643 760 LINE",
"643 0 LINE",
"0 0 LINE"
);
}
);
};
components = (
{
name = L;
},
{
name = acute;
transform = "{1, 0, 0, 1, 233, 194}";
}
);
layerId = UUID0;
width = 643;
},
{
background = {
paths = (
{
closed = 1;
nodes = (
"192 740 LINE",
"522 740 LINE",
"491 606 LINE",
"417 606 LINE",
"307 134 LINE",
"447 134 LINE",
"464 134 LINE",
"489 157 LINE",
"494 174 LINE",
"518 272 LINE",
"683 272 LINE",
"621 0 LINE",
"30 0 LINE",
"61 134 LINE",
"136 134 LINE",
"245 606 LINE",
"161 606 LINE"
);
},
{
closed = 1;
nodes = (
"358 921 LINE",
"517 921 LINE",
"517 909 LINE",
"368 769 LINE",
"253 769 LINE"
);
},
{
closed = 1;
nodes = (
"0 760 LINE",
"643 760 LINE",
"643 0 LINE",
"0 0 LINE"
);
}
);
};
components = (
{
name = L;
},
{
name = acute;
transform = "{1, 0, 0, 1, 272, 194}";
}
);
layerId = UUID1;
width = 671;
}
);
leftKerningGroup = I;
rightKerningGroup = L;
unicode = 0139;
},
{
color = 6;
glyphname = Lcaron;
lastChange = "2017-01-23 08:35:30 +0000";
layers = (
{
background = {
paths = (
{
closed = 1;
nodes = (
"192 740 LINE",
"522 740 LINE",
"491 606 LINE",
"417 606 LINE",
"307 134 LINE",
"447 134 LINE",
"464 134 LINE",
"489 157 LINE",
"494 174 LINE",
"518 272 LINE",
"683 272 LINE",
"621 0 LINE",
"30 0 LINE",
"61 134 LINE",
"136 134 LINE",
"245 606 LINE",
"161 606 LINE"
);
},
{
closed = 1;
nodes = (
"0 760 LINE",
"643 760 LINE",
"643 0 LINE",
"0 0 LINE"
);
}
);
};
components = (
{
name = L;
},
{
name = quotesingle;
transform = "{1, 0, 0, 1, 443, -30}";
}
);
layerId = UUID0;
width = 643;
},
{
background = {
paths = (
{
closed = 1;
nodes = (
"192 740 LINE",
"522 740 LINE",
"491 606 LINE",
"417 606 LINE",
"307 134 LINE",
"447 134 LINE",
"464 134 LINE",
"489 157 LINE",
"494 174 LINE",
"518 272 LINE",
"683 272 LINE",
"621 0 LINE",
"30 0 LINE",
"61 134 LINE",
"136 134 LINE",
"245 606 LINE",
"161 606 LINE"
);
},
{
closed = 1;
nodes = (
"0 760 LINE",
"643 760 LINE",
"643 0 LINE",
"0 0 LINE"
);
}
);
};
components = (
{
name = L;
},
{
name = quotesingle;
transform = "{1, 0, 0, 1, 418, -25}";
}
);
layerId = UUID1;
width = 671;
}
);
leftKerningGroup = I;
rightKerningGroup = L;
unicode = 013D;
},
{
color = 6;
glyphname = Lcommaaccent;
lastChange = "2017-01-23 08:35:30 +0000";
layers = (
{
background = {
paths = (
{
closed = 1;
nodes = (
"192 740 LINE",
"522 740 LINE",
"491 606 LINE",
"417 606 LINE",
"307 134 LINE",
"447 134 LINE",
"464 134 LINE",
"489 157 LINE",
"494 174 LINE",
"518 272 LINE",
"683 272 LINE",
"621 0 LINE",
"30 0 LINE",
"61 134 LINE",
"136 134 LINE",
"245 606 LINE",
"161 606 LINE"
);
},
{
closed = 1;
nodes = (
"279 -14 LINE",
"420 -65 LINE",
"324 -230 LINE",
"223 -195 LINE"
);
},
{
closed = 1;
nodes = (
"0 760 LINE",
"643 760 LINE",
"643 0 LINE",
"0 0 LINE"
);
}
);
};
components = (
{
name = L;
},
{
name = commabelow;
transform = "{1, 0, 0, 1, 211, 0}";
}
);
layerId = UUID0;
width = 643;
},
{
background = {
paths = (
{
closed = 1;
nodes = (
"192 740 LINE",
"522 740 LINE",
"491 606 LINE",
"417 606 LINE",
"307 134 LINE",
"447 134 LINE",
"464 134 LINE",
"489 157 LINE",
"494 174 LINE",
"518 272 LINE",
"683 272 LINE",
"621 0 LINE",
"30 0 LINE",
"61 134 LINE",
"136 134 LINE",
"245 606 LINE",
"161 606 LINE"
);
},
{
closed = 1;
nodes = (
"279 -14 LINE",
"420 -65 LINE",
"324 -230 LINE",
"223 -195 LINE"
);
},
{
closed = 1;
nodes = (
"0 760 LINE",
"643 760 LINE",
"643 0 LINE",
"0 0 LINE"
);
}
);
};
components = (
{
name = L;
},
{
name = commabelow;
transform = "{1, 0, 0, 1, 246, 0}";
}
);
layerId = UUID1;
width = 671;
}
);
leftKerningGroup = I;
rightKerningGroup = L;
unicode = 013B;
},
{
color = 6;
glyphname = Lslash;
lastChange = "2017-01-23 08:35:30 +0000";
layers = (
{
anchors = (
{
name = top;
position = "{330, 700}";
}
);
background = {
paths = (
{
closed = 1;
nodes = (
"192 740 LINE",
"522 740 LINE",
"491 606 LINE",
"416 606 LINE",
"395 513 LINE",
"607 613 LINE",
"569 442 LINE",
"355 341 LINE",
"307 134 LINE",
"447 134 LINE",
"464 134 LINE",
"489 157 LINE",
"494 174 LINE",
"518 272 LINE",
"683 272 LINE",
"621 0 LINE",
"30 0 LINE",
"61 134 LINE",
"136 134 LINE",
"163 251 LINE",
"39 193 LINE",
"77 364 LINE",
"203 423 LINE",
"245 606 LINE",
"161 606 LINE"
);
},
{
closed = 1;
nodes = (
"0 760 LINE",
"643 760 LINE",
"643 0 LINE",
"0 0 LINE"
);
}
);
};
layerId = UUID0;
paths = (
{
closed = 1;
nodes = (
"518 272 LINE",
"494 174 LINE SMOOTH",
"488 151 OFFCURVE",
"470 134 OFFCURVE",
"447 134 CURVE SMOOTH",
"61 134 LINE",
"30 0 LINE",
"621 0 LINE",
"683 272 LINE"
);
},
{
closed = 1;
nodes = (
"39 193 LINE",
"569 442 LINE",
"607 613 LINE",
"77 364 LINE"
);
},
{
closed = 1;
nodes = (
"290 61 LINE",
"430 665 LINE",
"259 665 LINE",
"119 61 LINE"
);
},
{
closed = 1;
nodes = (
"161 606 LINE",
"491 606 LINE",
"522 740 LINE",
"192 740 LINE"
);
}
);
width = 643;
},
{
anchors = (
{
name = top;
position = "{378, 700}";
}
);
background = {
paths = (
{
closed = 1;
nodes = (
"192 740 LINE",
"522 740 LINE",
"491 606 LINE",
"416 606 LINE",
"395 513 LINE",
"607 613 LINE",
"569 442 LINE",
"355 341 LINE",
"307 134 LINE",
"447 134 LINE",
"464 134 LINE",
"489 157 LINE",
"494 174 LINE",
"518 272 LINE",
"683 272 LINE",
"621 0 LINE",
"30 0 LINE",
"61 134 LINE",
"136 134 LINE",
"163 251 LINE",
"39 193 LINE",
"77 364 LINE",
"203 423 LINE",
"245 606 LINE",
"161 606 LINE"
);
},
{
closed = 1;
nodes = (
"0 760 LINE",
"643 760 LINE",
"643 0 LINE",
"0 0 LINE"
);
}
);
};
layerId = UUID1;
paths = (
{
closed = 1;
nodes = (
"541 219 LINE",
"518 123 LINE SMOOTH",
"513 101 OFFCURVE",
"498 84 OFFCURVE",
"470 84 CURVE SMOOTH",
"56 84 LINE",
"37 0 LINE",
"588 0 LINE",
"639 219 LINE"
);
},
{
closed = 1;
nodes = (
"41 222 LINE",
"512 475 LINE",
"539 590 LINE",
"68 337 LINE"
);
},
{
closed = 1;
nodes = (
"216 52 LINE",
"361 684 LINE",
"260 684 LINE",
"114 52 LINE"
);
},
{
closed = 1;
nodes = (
"181 656 LINE",
"421 656 LINE",
"441 740 LINE",
"201 740 LINE"
);
}
);
width = 671;
}
);
leftKerningGroup = I;
rightKerningGroup = L;
unicode = 0141;
},
{
color = 4;
glyphname = M;
lastChange = "2017-01-23 08:35:30 +0000";
layers = (
{
anchors = (
{
name = top;
position = "{448, 700}";
}
);
background = {
paths = (
{
closed = 1;
nodes = (
"56 134 LINE",
"123 134 LINE",
"232 606 LINE",
"147 606 LINE",
"178 740 LINE",
"514 740 LINE",
"603 244 LINE",
"905 740 LINE",
"1250 740 LINE",
"1219 606 LINE",
"1144 606 LINE",
"1034 134 LINE",
"1107 134 LINE",
"1076 0 LINE",
"777 0 LINE",
"808 134 LINE",
"864 134 LINE",
"957 531 LINE",
"626 9 LINE",
"479 9 LINE",
"382 537 LINE",
"285 134 LINE",
"355 134 LINE",
"324 0 LINE",
"25 0 LINE"
);
},
{
closed = 1;
nodes = (
"0 760 LINE",
"1175 760 LINE",
"1175 0 LINE",
"0 0 LINE"
);
}
);
};
layerId = UUID0;
paths = (
{
closed = 1;
nodes = (
"232 606 LINE",
"115 101 LINE",
"277 101 LINE",
"412 662 LINE",
"368 613 LINE",
"479 9 LINE",
"626 9 LINE",
"1016 625 LINE",
"988 665 LINE",
"857 101 LINE",
"1027 101 LINE",
"1144 606 LINE",
"1219 606 LINE",
"1250 740 LINE",
"905 740 LINE",
"516 102 LINE",
"628 102 LINE",
"514 740 LINE",
"178 740 LINE",
"147 606 LINE"
);
},
{
closed = 1;
nodes = (
"25 0 LINE",
"324 0 LINE",
"355 134 LINE",
"56 134 LINE"
);
},
{
closed = 1;
nodes = (
"777 0 LINE",
"1076 0 LINE",
"1107 134 LINE",
"808 134 LINE"
);
}
);
width = 1175;
},
{
anchors = (
{
name = top;
position = "{525, 700}";
}
);
background = {
paths = (
{
closed = 1;
nodes = (
"56 134 LINE",
"123 134 LINE",
"232 606 LINE",
"147 606 LINE",
"178 740 LINE",
"514 740 LINE",
"603 244 LINE",
"905 740 LINE",
"1250 740 LINE",
"1219 606 LINE",
"1144 606 LINE",
"1034 134 LINE",
"1107 134 LINE",
"1076 0 LINE",
"777 0 LINE",
"808 134 LINE",
"864 134 LINE",
"957 531 LINE",
"626 9 LINE",
"479 9 LINE",
"382 537 LINE",
"285 134 LINE",
"355 134 LINE",
"324 0 LINE",
"25 0 LINE"
);
},
{
closed = 1;
nodes = (
"0 760 LINE",
"1175 760 LINE",
"1175 0 LINE",
"0 0 LINE"
);
}
);
};
layerId = UUID1;
paths = (
{
closed = 1;
nodes = (
"254 656 LINE",
"117 61 LINE",
"211 61 LINE",
"357 693 LINE",
"340 687 LINE",
"445 0 LINE",
"558 0 LINE",
"976 693 LINE",
"957 683 LINE",
"813 61 LINE",
"911 61 LINE",
"1048 656 LINE",
"1115 656 LINE",
"1135 740 LINE",
"904 740 LINE",
"488 50 LINE",
"529 55 LINE",
"425 740 LINE",
"201 740 LINE",
"181 656 LINE"
);
},
{
closed = 1;
nodes = (
"37 0 LINE",
"277 0 LINE",
"296 84 LINE",
"56 84 LINE"
);
},
{
closed = 1;
nodes = (
"735 0 LINE",
"975 0 LINE",
"994 84 LINE",
"754 84 LINE"
);
}
);
width = 1118;
}
);
leftKerningGroup = I;
rightKerningGroup = I;
unicode = 004D;
},
{
color = 4;
glyphname = N;
lastChange = "2017-01-23 08:35:30 +0000";
layers = (
{
anchors = (
{
name = bottom;
position = "{428, 0}";
},
{
name = top;
position = "{566, 740}";
}
);
background = {
paths = (
{
closed = 1;
nodes = (
"663 740 LINE",
"962 740 LINE",
"931 606 LINE",
"868 606 LINE",
"728 0 LINE",
"560 0 LINE",
"372 457 LINE",
"297 134 LINE",
"360 134 LINE",
"329 0 LINE",
"30 0 LINE",
"61 134 LINE",
"127 134 LINE",
"236 606 LINE",
"156 606 LINE",
"187 740 LINE",
"439 740 LINE",
"622 283 LINE",
"697 606 LINE",
"632 606 LINE"
);
},
{
closed = 1;
nodes = (
"0 760 LINE",
"872 760 LINE",
"872 0 LINE",
"0 0 LINE"
);
}
);
};
layerId = UUID0;
paths = (
{
closed = 1;
nodes = (
"632 606 LINE",
"931 606 LINE",
"962 740 LINE",
"663 740 LINE"
);
},
{
closed = 1;
nodes = (
"30 0 LINE",
"329 0 LINE",
"360 134 LINE",
"61 134 LINE"
);
},
{
closed = 1;
nodes = (
"873 629 LINE",
"702 629 LINE",
"613 244 LINE",
"640 238 LINE",
"439 740 LINE",
"187 740 LINE",
"156 606 LINE",
"236 606 LINE",
"122 112 LINE",
"292 112 LINE",
"389 533 LINE",
"349 511 LINE",
"560 0 LINE",
"728 0 LINE"
);
}
);
width = 872;
},
{
anchors = (
{
name = bottom;
position = "{399, 0}";
},
{
name = top;
position = "{566, 740}";
}
);
background = {
paths = (
{
closed = 1;
nodes = (
"663 740 LINE",
"962 740 LINE",
"931 606 LINE",
"868 606 LINE",
"728 0 LINE",
"560 0 LINE",
"372 457 LINE",
"297 134 LINE",
"360 134 LINE",
"329 0 LINE",
"30 0 LINE",
"61 134 LINE",
"127 134 LINE",
"236 606 LINE",
"156 606 LINE",
"187 740 LINE",
"439 740 LINE",
"622 283 LINE",
"697 606 LINE",
"632 606 LINE"
);
},
{
closed = 1;
nodes = (
"0 760 LINE",
"872 760 LINE",
"872 0 LINE",
"0 0 LINE"
);
}
);
};
layerId = UUID1;
paths = (
{
closed = 1;
nodes = (
"650 656 LINE",
"890 656 LINE",
"909 740 LINE",
"669 740 LINE"
);
},
{
closed = 1;
nodes = (
"37 0 LINE",
"277 0 LINE",
"296 84 LINE",
"56 84 LINE"
);
},
{
closed = 1;
nodes = (
"829 679 LINE",
"728 679 LINE",
"598 113 LINE",
"609 111 LINE",
"403 740 LINE",
"200 740 LINE",
"180 656 LINE",
"253 656 LINE",
"116 63 LINE",
"217 63 LINE",
"350 641 LINE",
"334 641 LINE",
"545 0 LINE",
"673 0 LINE"
);
}
);
width = 872;
}
);
leftKerningGroup = I;
rightKerningGroup = N;
unicode = 004E;
},
{
color = 6;
glyphname = Nacute;
lastChange = "2017-01-23 08:35:30 +0000";
layers = (
{
background = {
paths = (
{
closed = 1;
nodes = (
"663 740 LINE",
"962 740 LINE",
"931 606 LINE",
"868 606 LINE",
"728 0 LINE",
"560 0 LINE",
"372 457 LINE",
"297 134 LINE",
"360 134 LINE",
"329 0 LINE",
"30 0 LINE",
"61 134 LINE",
"127 134 LINE",
"236 606 LINE",
"156 606 LINE",
"187 740 LINE",
"439 740 LINE",
"622 283 LINE",
"697 606 LINE",
"632 606 LINE"
);
},
{
closed = 1;
nodes = (
"594 961 LINE",
"753 961 LINE",
"753 949 LINE",
"604 810 LINE",
"489 810 LINE"
);
},
{
closed = 1;
nodes = (
"0 760 LINE",
"872 760 LINE",
"872 0 LINE",
"0 0 LINE"
);
}
);
};
components = (
{
name = N;
},
{
name = acute;
transform = "{1, 0, 0, 1, 469, 234}";
}
);
layerId = UUID0;
width = 872;
},
{
background = {
paths = (
{
closed = 1;
nodes = (
"663 740 LINE",
"962 740 LINE",
"931 606 LINE",
"868 606 LINE",
"728 0 LINE",
"560 0 LINE",
"372 457 LINE",
"297 134 LINE",
"360 134 LINE",
"329 0 LINE",
"30 0 LINE",
"61 134 LINE",
"127 134 LINE",
"236 606 LINE",
"156 606 LINE",
"187 740 LINE",
"439 740 LINE",
"622 283 LINE",
"697 606 LINE",
"632 606 LINE"
);
},
{
closed = 1;
nodes = (
"594 961 LINE",
"753 961 LINE",
"753 949 LINE",
"604 810 LINE",
"489 810 LINE"
);
},
{
closed = 1;
nodes = (
"0 760 LINE",
"872 760 LINE",
"872 0 LINE",
"0 0 LINE"
);
}
);
};
components = (
{
name = N;
},
{
name = acute;
transform = "{1, 0, 0, 1, 460, 234}";
}
);
layerId = UUID1;
width = 872;
}
);
leftKerningGroup = I;
rightKerningGroup = N;
unicode = 0143;
},
{
color = 6;
glyphname = Ncaron;
lastChange = "2017-01-23 08:35:30 +0000";
layers = (
{
background = {
paths = (
{
closed = 1;
nodes = (
"663 740 LINE",
"962 740 LINE",
"931 606 LINE",
"868 606 LINE",
"728 0 LINE",
"560 0 LINE",
"372 457 LINE",
"297 134 LINE",
"360 134 LINE",
"329 0 LINE",
"30 0 LINE",
"61 134 LINE",
"127 134 LINE",
"236 606 LINE",
"156 606 LINE",
"187 740 LINE",
"439 740 LINE",
"622 283 LINE",
"697 606 LINE",
"632 606 LINE"
);
},
{
closed = 1;
nodes = (
"801 968 LINE",
"627 810 LINE",
"510 810 LINE",
"414 968 LINE",
"535 968 LINE",
"582 892 LINE",
"666 968 LINE"
);
},
{
closed = 1;
nodes = (
"0 760 LINE",
"872 760 LINE",
"872 0 LINE",
"0 0 LINE"
);
}
);
};
components = (
{
name = N;
},
{
name = caron;
transform = "{1, 0, 0, 1, 335, 234}";
}
);
layerId = UUID0;
width = 872;
},
{
background = {
paths = (
{
closed = 1;
nodes = (
"663 740 LINE",
"962 740 LINE",
"931 606 LINE",
"868 606 LINE",
"728 0 LINE",
"560 0 LINE",
"372 457 LINE",
"297 134 LINE",
"360 134 LINE",
"329 0 LINE",
"30 0 LINE",
"61 134 LINE",
"127 134 LINE",
"236 606 LINE",
"156 606 LINE",
"187 740 LINE",
"439 740 LINE",
"622 283 LINE",
"697 606 LINE",
"632 606 LINE"
);
},
{
closed = 1;
nodes = (
"801 968 LINE",
"627 810 LINE",
"510 810 LINE",
"414 968 LINE",
"535 968 LINE",
"582 892 LINE",
"666 968 LINE"
);
},
{
closed = 1;
nodes = (
"0 760 LINE",
"872 760 LINE",
"872 0 LINE",
"0 0 LINE"
);
}
);
};
components = (
{
name = N;
},
{
name = caron;
transform = "{1, 0, 0, 1, 420, 234}";
}
);
layerId = UUID1;
width = 872;
}
);
leftKerningGroup = I;
rightKerningGroup = N;
unicode = 0147;
},
{
color = 6;
glyphname = Ncommaaccent;
lastChange = "2017-01-23 08:35:30 +0000";
layers = (
{
background = {
paths = (
{
closed = 1;
nodes = (
"663 740 LINE",
"962 740 LINE",
"931 606 LINE",
"868 606 LINE",
"728 0 LINE",
"560 0 LINE",
"372 457 LINE",
"297 134 LINE",
"360 134 LINE",
"329 0 LINE",
"30 0 LINE",
"61 134 LINE",
"127 134 LINE",
"236 606 LINE",
"156 606 LINE",
"187 740 LINE",
"439 740 LINE",
"622 283 LINE",
"697 606 LINE",
"632 606 LINE"
);
},
{
closed = 1;
nodes = (
"352 -14 LINE",
"493 -65 LINE",
"397 -230 LINE",
"296 -195 LINE"
);
},
{
closed = 1;
nodes = (
"0 760 LINE",
"872 760 LINE",
"872 0 LINE",
"0 0 LINE"
);
}
);
};
components = (
{
name = N;
},
{
name = commabelow;
transform = "{1, 0, 0, 1, 284, 0}";
}
);
layerId = UUID0;
width = 872;
},
{
background = {
paths = (
{
closed = 1;
nodes = (
"663 740 LINE",
"962 740 LINE",
"931 606 LINE",
"868 606 LINE",
"728 0 LINE",
"560 0 LINE",
"372 457 LINE",
"297 134 LINE",
"360 134 LINE",
"329 0 LINE",
"30 0 LINE",
"61 134 LINE",
"127 134 LINE",
"236 606 LINE",
"156 606 LINE",
"187 740 LINE",
"439 740 LINE",
"622 283 LINE",
"697 606 LINE",
"632 606 LINE"
);
},
{
closed = 1;
nodes = (
"352 -14 LINE",
"493 -65 LINE",
"397 -230 LINE",
"296 -195 LINE"
);
},
{
closed = 1;
nodes = (
"0 760 LINE",
"872 760 LINE",
"872 0 LINE",
"0 0 LINE"
);
}
);
};
components = (
{
name = N;
},
{
name = commabelow;
transform = "{1, 0, 0, 1, 268, 0}";
}
);
layerId = UUID1;
width = 872;
}
);
leftKerningGroup = I;
rightKerningGroup = N;
unicode = 0145;
},
{
color = 4;
glyphname = Ntilde;
lastChange = "2017-01-23 08:35:30 +0000";
layers = (
{
background = {
paths = (
{
closed = 1;
nodes = (
"663 740 LINE",
"962 740 LINE",
"931 606 LINE",
"868 606 LINE",
"728 0 LINE",
"560 0 LINE",
"372 457 LINE",
"297 134 LINE",
"360 134 LINE",
"329 0 LINE",
"30 0 LINE",
"61 134 LINE",
"127 134 LINE",
"236 606 LINE",
"156 606 LINE",
"187 740 LINE",
"439 740 LINE",
"622 283 LINE",
"697 606 LINE",
"632 606 LINE"
);
},
{
closed = 1;
nodes = (
"474 957 LINE",
"495 957 LINE",
"533 942 LINE",
"569 925 LINE",
"604 911 LINE",
"621 911 LINE",
"642 911 LINE",
"673 926 LINE",
"686 944 LINE",
"763 910 LINE",
"756 888 LINE",
"729 850 LINE",
"694 821 LINE",
"652 805 LINE",
"629 805 LINE",
"604 805 LINE",
"562 818 LINE",
"526 834 LINE",
"491 848 LINE",
"471 848 LINE",
"449 848 LINE",
"419 830 LINE",
"409 817 LINE",
"335 852 LINE",
"342 878 LINE",
"375 917 LINE",
"415 943 LINE",
"457 957 LINE"
);
},
{
closed = 1;
nodes = (
"0 760 LINE",
"872 760 LINE",
"872 0 LINE",
"0 0 LINE"
);
}
);
};
components = (
{
name = N;
},
{
name = tilde;
transform = "{1, 0, 0, 1, 330, 234}";
}
);
layerId = UUID0;
width = 872;
},
{
background = {
paths = (
{
closed = 1;
nodes = (
"663 740 LINE",
"962 740 LINE",
"931 606 LINE",
"868 606 LINE",
"728 0 LINE",
"560 0 LINE",
"372 457 LINE",
"297 134 LINE",
"360 134 LINE",
"329 0 LINE",
"30 0 LINE",
"61 134 LINE",
"127 134 LINE",
"236 606 LINE",
"156 606 LINE",
"187 740 LINE",
"439 740 LINE",
"622 283 LINE",
"697 606 LINE",
"632 606 LINE"
);
},
{
closed = 1;
nodes = (
"474 957 LINE",
"495 957 LINE",
"533 942 LINE",
"569 925 LINE",
"604 911 LINE",
"621 911 LINE",
"642 911 LINE",
"673 926 LINE",
"686 944 LINE",
"763 910 LINE",
"756 888 LINE",
"729 850 LINE",
"694 821 LINE",
"652 805 LINE",
"629 805 LINE",
"604 805 LINE",
"562 818 LINE",
"526 834 LINE",
"491 848 LINE",
"471 848 LINE",
"449 848 LINE",
"419 830 LINE",
"409 817 LINE",
"335 852 LINE",
"342 878 LINE",
"375 917 LINE",
"415 943 LINE",
"457 957 LINE"
);
},
{
closed = 1;
nodes = (
"0 760 LINE",
"872 760 LINE",
"872 0 LINE",
"0 0 LINE"
);
}
);
};
components = (
{
name = N;
},
{
name = tilde;
transform = "{1, 0, 0, 1, 344, 234}";
}
);
layerId = UUID1;
width = 872;
}
);
leftKerningGroup = I;
rightKerningGroup = N;
unicode = 00D1;
},
{
color = 4;
glyphname = O;
lastChange = "2017-01-23 08:35:30 +0000";
layers = (
{
anchors = (
{
name = top;
position = "{554, 760}";
}
);
background = {
paths = (
{
closed = 1;
nodes = (
"365 -15 LINE",
"299 -15 LINE",
"187 30 LINE",
"105 112 LINE",
"60 227 LINE",
"60 297 LINE",
"60 366 LINE",
"95 488 LINE",
"157 589 LINE",
"242 669 LINE",
"340 725 LINE",
"449 754 LINE",
"505 754 LINE",
"574 754 LINE",
"687 708 LINE",
"767 625 LINE",
"810 510 LINE",
"810 441 LINE",
"810 373 LINE",
"777 253 LINE",
"718 151 LINE",
"636 71 LINE",
"537 15 LINE",
"425 -15 LINE"
);
},
{
closed = 1;
nodes = (
"384 149 LINE",
"417 149 LINE",
"479 170 LINE",
"534 207 LINE",
"580 259 LINE",
"612 320 LINE",
"631 390 LINE",
"631 426 LINE",
"631 462 LINE",
"611 522 LINE",
"573 566 LINE",
"518 590 LINE",
"484 590 LINE",
"434 590 LINE",
"344 544 LINE",
"277 467 LINE",
"237 367 LINE",
"237 313 LINE",
"237 276 LINE",
"257 216 LINE",
"296 173 LINE",
"350 149 LINE"
);
},
{
closed = 1;
nodes = (
"0 760 LINE",
"780 760 LINE",
"780 0 LINE",
"0 0 LINE"
);
}
);
};
layerId = UUID0;
paths = (
{
closed = 1;
nodes = (
"603 -15 OFFCURVE",
"810 170 OFFCURVE",
"810 441 CURVE SMOOTH",
"810 626 OFFCURVE",
"690 754 OFFCURVE",
"505 754 CURVE SMOOTH",
"283 754 OFFCURVE",
"60 574 OFFCURVE",
"60 297 CURVE SMOOTH",
"60 111 OFFCURVE",
"188 -15 OFFCURVE",
"365 -15 CURVE SMOOTH"
);
},
{
closed = 1;
nodes = (
"294 149 OFFCURVE",
"237 216 OFFCURVE",
"237 313 CURVE SMOOTH",
"237 457 OFFCURVE",
"351 590 OFFCURVE",
"484 590 CURVE SMOOTH",
"575 590 OFFCURVE",
"631 523 OFFCURVE",
"631 426 CURVE SMOOTH",
"631 281 OFFCURVE",
"515 149 OFFCURVE",
"384 149 CURVE SMOOTH"
);
}
);
width = 780;
},
{
anchors = (
{
name = top;
position = "{476, 760}";
}
);
background = {
paths = (
{
closed = 1;
nodes = (
"365 -15 LINE",
"299 -15 LINE",
"187 30 LINE",
"105 112 LINE",
"60 227 LINE",
"60 297 LINE",
"60 366 LINE",
"95 488 LINE",
"157 589 LINE",
"242 669 LINE",
"340 725 LINE",
"449 754 LINE",
"505 754 LINE",
"574 754 LINE",
"687 708 LINE",
"767 625 LINE",
"810 510 LINE",
"810 441 LINE",
"810 373 LINE",
"777 253 LINE",
"718 151 LINE",
"636 71 LINE",
"537 15 LINE",
"425 -15 LINE"
);
},
{
closed = 1;
nodes = (
"384 149 LINE",
"417 149 LINE",
"479 170 LINE",
"534 207 LINE",
"580 259 LINE",
"612 320 LINE",
"631 390 LINE",
"631 426 LINE",
"631 462 LINE",
"611 522 LINE",
"573 566 LINE",
"518 590 LINE",
"484 590 LINE",
"434 590 LINE",
"344 544 LINE",
"277 467 LINE",
"237 367 LINE",
"237 313 LINE",
"237 276 LINE",
"257 216 LINE",
"296 173 LINE",
"350 149 LINE"
);
},
{
closed = 1;
nodes = (
"0 760 LINE",
"780 760 LINE",
"780 0 LINE",
"0 0 LINE"
);
}
);
};
layerId = UUID1;
paths = (
{
closed = 1;
nodes = (
"585 -15 OFFCURVE",
"767 168 OFFCURVE",
"767 430 CURVE SMOOTH",
"767 635 OFFCURVE",
"623 754 OFFCURVE",
"456 754 CURVE SMOOTH",
"226 754 OFFCURVE",
"37 575 OFFCURVE",
"37 320 CURVE SMOOTH",
"37 117 OFFCURVE",
"181 -15 OFFCURVE",
"348 -15 CURVE SMOOTH"
);
},
{
closed = 1;
nodes = (
"235 84 OFFCURVE",
"146 189 OFFCURVE",
"146 328 CURVE SMOOTH",
"146 517 OFFCURVE",
"284 655 OFFCURVE",
"445 655 CURVE SMOOTH",
"569 655 OFFCURVE",
"658 564 OFFCURVE",
"658 422 CURVE SMOOTH",
"658 231 OFFCURVE",
"528 84 OFFCURVE",
"359 84 CURVE SMOOTH"
);
}
);
width = 770;
}
);
leftKerningGroup = O;
rightKerningGroup = O;
unicode = 004F;
},
{
color = 4;
glyphname = Oacute;
lastChange = "2017-01-23 08:35:30 +0000";
layers = (
{
background = {
paths = (
{
closed = 1;
nodes = (
"365 -15 LINE",
"299 -15 LINE",
"187 30 LINE",
"105 112 LINE",
"60 227 LINE",
"60 297 LINE",
"60 366 LINE",
"95 488 LINE",
"157 589 LINE",
"242 669 LINE",
"340 725 LINE",
"449 754 LINE",
"505 754 LINE",
"574 754 LINE",
"687 708 LINE",
"767 625 LINE",
"810 510 LINE",
"810 441 LINE",
"810 373 LINE",
"777 253 LINE",
"718 151 LINE",
"636 71 LINE",
"537 15 LINE",
"425 -15 LINE"
);
},
{
closed = 1;
nodes = (
"384 149 LINE",
"417 149 LINE",
"479 170 LINE",
"534 207 LINE",
"580 259 LINE",
"612 320 LINE",
"631 390 LINE",
"631 426 LINE",
"631 462 LINE",
"611 522 LINE",
"573 566 LINE",
"518 590 LINE",
"484 590 LINE",
"434 590 LINE",
"344 544 LINE",
"277 467 LINE",
"237 367 LINE",
"237 313 LINE",
"237 276 LINE",
"257 216 LINE",
"296 173 LINE",
"350 149 LINE"
);
},
{
closed = 1;
nodes = (
"582 981 LINE",
"741 981 LINE",
"741 969 LINE",
"592 829 LINE",
"477 829 LINE"
);
},
{
closed = 1;
nodes = (
"0 760 LINE",
"780 760 LINE",
"780 0 LINE",
"0 0 LINE"
);
}
);
};
components = (
{
name = O;
},
{
name = acute;
transform = "{1, 0, 0, 1, 457, 254}";
}
);
layerId = UUID0;
width = 780;
},
{
background = {
paths = (
{
closed = 1;
nodes = (
"365 -15 LINE",
"299 -15 LINE",
"187 30 LINE",
"105 112 LINE",
"60 227 LINE",
"60 297 LINE",
"60 366 LINE",
"95 488 LINE",
"157 589 LINE",
"242 669 LINE",
"340 725 LINE",
"449 754 LINE",
"505 754 LINE",
"574 754 LINE",
"687 708 LINE",
"767 625 LINE",
"810 510 LINE",
"810 441 LINE",
"810 373 LINE",
"777 253 LINE",
"718 151 LINE",
"636 71 LINE",
"537 15 LINE",
"425 -15 LINE"
);
},
{
closed = 1;
nodes = (
"384 149 LINE",
"417 149 LINE",
"479 170 LINE",
"534 207 LINE",
"580 259 LINE",
"612 320 LINE",
"631 390 LINE",
"631 426 LINE",
"631 462 LINE",
"611 522 LINE",
"573 566 LINE",
"518 590 LINE",
"484 590 LINE",
"434 590 LINE",
"344 544 LINE",
"277 467 LINE",
"237 367 LINE",
"237 313 LINE",
"237 276 LINE",
"257 216 LINE",
"296 173 LINE",
"350 149 LINE"
);
},
{
closed = 1;
nodes = (
"582 981 LINE",
"741 981 LINE",
"741 969 LINE",
"592 829 LINE",
"477 829 LINE"
);
},
{
closed = 1;
nodes = (
"0 760 LINE",
"780 760 LINE",
"780 0 LINE",
"0 0 LINE"
);
}
);
};
components = (
{
name = O;
},
{
name = acute;
transform = "{1, 0, 0, 1, 370, 254}";
}
);
layerId = UUID1;
width = 770;
}
);
leftKerningGroup = O;
rightKerningGroup = O;
unicode = 00D3;
},
{
color = 4;
glyphname = Ocircumflex;
lastChange = "2017-01-23 08:35:30 +0000";
layers = (
{
background = {
paths = (
{
closed = 1;
nodes = (
"365 -15 LINE",
"299 -15 LINE",
"187 30 LINE",
"105 112 LINE",
"60 227 LINE",
"60 297 LINE",
"60 366 LINE",
"95 488 LINE",
"157 589 LINE",
"242 669 LINE",
"340 725 LINE",
"449 754 LINE",
"505 754 LINE",
"574 754 LINE",
"687 708 LINE",
"767 625 LINE",
"810 510 LINE",
"810 441 LINE",
"810 373 LINE",
"777 253 LINE",
"718 151 LINE",
"636 71 LINE",
"537 15 LINE",
"425 -15 LINE"
);
},
{
closed = 1;
nodes = (
"384 149 LINE",
"417 149 LINE",
"479 170 LINE",
"534 207 LINE",
"580 259 LINE",
"612 320 LINE",
"631 390 LINE",
"631 426 LINE",
"631 462 LINE",
"611 522 LINE",
"573 566 LINE",
"518 590 LINE",
"484 590 LINE",
"434 590 LINE",
"344 544 LINE",
"277 467 LINE",
"237 367 LINE",
"237 313 LINE",
"237 276 LINE",
"257 216 LINE",
"296 173 LINE",
"350 149 LINE"
);
},
{
closed = 1;
nodes = (
"360 829 LINE",
"534 988 LINE",
"651 988 LINE",
"747 829 LINE",
"626 829 LINE",
"579 906 LINE",
"495 829 LINE"
);
},
{
closed = 1;
nodes = (
"0 760 LINE",
"780 760 LINE",
"780 0 LINE",
"0 0 LINE"
);
}
);
};
components = (
{
name = O;
},
{
name = circumflex;
transform = "{1, 0, 0, 1, 311, 254}";
}
);
layerId = UUID0;
width = 780;
},
{
background = {
paths = (
{
closed = 1;
nodes = (
"365 -15 LINE",
"299 -15 LINE",
"187 30 LINE",
"105 112 LINE",
"60 227 LINE",
"60 297 LINE",
"60 366 LINE",
"95 488 LINE",
"157 589 LINE",
"242 669 LINE",
"340 725 LINE",
"449 754 LINE",
"505 754 LINE",
"574 754 LINE",
"687 708 LINE",
"767 625 LINE",
"810 510 LINE",
"810 441 LINE",
"810 373 LINE",
"777 253 LINE",
"718 151 LINE",
"636 71 LINE",
"537 15 LINE",
"425 -15 LINE"
);
},
{
closed = 1;
nodes = (
"384 149 LINE",
"417 149 LINE",
"479 170 LINE",
"534 207 LINE",
"580 259 LINE",
"612 320 LINE",
"631 390 LINE",
"631 426 LINE",
"631 462 LINE",
"611 522 LINE",
"573 566 LINE",
"518 590 LINE",
"484 590 LINE",
"434 590 LINE",
"344 544 LINE",
"277 467 LINE",
"237 367 LINE",
"237 313 LINE",
"237 276 LINE",
"257 216 LINE",
"296 173 LINE",
"350 149 LINE"
);
},
{
closed = 1;
nodes = (
"360 829 LINE",
"534 988 LINE",
"651 988 LINE",
"747 829 LINE",
"626 829 LINE",
"579 906 LINE",
"495 829 LINE"
);
},
{
closed = 1;
nodes = (
"0 760 LINE",
"780 760 LINE",
"780 0 LINE",
"0 0 LINE"
);
}
);
};
components = (
{
name = O;
},
{
name = circumflex;
transform = "{1, 0, 0, 1, 274, 254}";
}
);
layerId = UUID1;
width = 770;
}
);
leftKerningGroup = O;
rightKerningGroup = O;
unicode = 00D4;
},
{
color = 4;
glyphname = Odieresis;
lastChange = "2017-01-23 08:35:30 +0000";
layers = (
{
background = {
paths = (
{
closed = 1;
nodes = (
"365 -15 LINE",
"299 -15 LINE",
"187 30 LINE",
"105 112 LINE",
"60 227 LINE",
"60 297 LINE",
"60 366 LINE",
"95 488 LINE",
"157 589 LINE",
"242 669 LINE",
"340 725 LINE",
"449 754 LINE",
"505 754 LINE",
"574 754 LINE",
"687 708 LINE",
"767 625 LINE",
"810 510 LINE",
"810 441 LINE",
"810 373 LINE",
"777 253 LINE",
"718 151 LINE",
"636 71 LINE",
"537 15 LINE",
"425 -15 LINE"
);
},
{
closed = 1;
nodes = (
"384 149 LINE",
"417 149 LINE",
"479 170 LINE",
"534 207 LINE",
"580 259 LINE",
"612 320 LINE",
"631 390 LINE",
"631 426 LINE",
"631 462 LINE",
"611 522 LINE",
"573 566 LINE",
"518 590 LINE",
"484 590 LINE",
"434 590 LINE",
"344 544 LINE",
"277 467 LINE",
"237 367 LINE",
"237 313 LINE",
"237 276 LINE",
"257 216 LINE",
"296 173 LINE",
"350 149 LINE"
);
},
{
closed = 1;
nodes = (
"327 909 LINE",
"327 927 LINE",
"340 958 LINE",
"364 982 LINE",
"396 996 LINE",
"414 996 LINE",
"432 996 LINE",
"463 982 LINE",
"486 958 LINE",
"500 927 LINE",
"500 909 LINE",
"500 891 LINE",
"486 859 LINE",
"463 835 LINE",
"432 822 LINE",
"414 822 LINE",
"396 822 LINE",
"364 835 LINE",
"340 859 LINE",
"327 891 LINE"
);
},
{
closed = 1;
nodes = (
"561 909 LINE",
"561 927 LINE",
"575 958 LINE",
"598 982 LINE",
"630 996 LINE",
"648 996 LINE",
"666 996 LINE",
"697 982 LINE",
"721 958 LINE",
"734 927 LINE",
"734 909 LINE",
"734 891 LINE",
"721 859 LINE",
"697 835 LINE",
"666 822 LINE",
"648 822 LINE",
"630 822 LINE",
"598 835 LINE",
"575 859 LINE",
"561 891 LINE"
);
},
{
closed = 1;
nodes = (
"0 760 LINE",
"780 760 LINE",
"780 0 LINE",
"0 0 LINE"
);
}
);
};
components = (
{
name = O;
},
{
name = dieresis;
transform = "{1, 0, 0, 1, 304, 253}";
}
);
layerId = UUID0;
width = 780;
},
{
background = {
paths = (
{
closed = 1;
nodes = (
"365 -15 LINE",
"299 -15 LINE",
"187 30 LINE",
"105 112 LINE",
"60 227 LINE",
"60 297 LINE",
"60 366 LINE",
"95 488 LINE",
"157 589 LINE",
"242 669 LINE",
"340 725 LINE",
"449 754 LINE",
"505 754 LINE",
"574 754 LINE",
"687 708 LINE",
"767 625 LINE",
"810 510 LINE",
"810 441 LINE",
"810 373 LINE",
"777 253 LINE",
"718 151 LINE",
"636 71 LINE",
"537 15 LINE",
"425 -15 LINE"
);
},
{
closed = 1;
nodes = (
"384 149 LINE",
"417 149 LINE",
"479 170 LINE",
"534 207 LINE",
"580 259 LINE",
"612 320 LINE",
"631 390 LINE",
"631 426 LINE",
"631 462 LINE",
"611 522 LINE",
"573 566 LINE",
"518 590 LINE",
"484 590 LINE",
"434 590 LINE",
"344 544 LINE",
"277 467 LINE",
"237 367 LINE",
"237 313 LINE",
"237 276 LINE",
"257 216 LINE",
"296 173 LINE",
"350 149 LINE"
);
},
{
closed = 1;
nodes = (
"327 909 LINE",
"327 927 LINE",
"340 958 LINE",
"364 982 LINE",
"396 996 LINE",
"414 996 LINE",
"432 996 LINE",
"463 982 LINE",
"486 958 LINE",
"500 927 LINE",
"500 909 LINE",
"500 891 LINE",
"486 859 LINE",
"463 835 LINE",
"432 822 LINE",
"414 822 LINE",
"396 822 LINE",
"364 835 LINE",
"340 859 LINE",
"327 891 LINE"
);
},
{
closed = 1;
nodes = (
"561 909 LINE",
"561 927 LINE",
"575 958 LINE",
"598 982 LINE",
"630 996 LINE",
"648 996 LINE",
"666 996 LINE",
"697 982 LINE",
"721 958 LINE",
"734 927 LINE",
"734 909 LINE",
"734 891 LINE",
"721 859 LINE",
"697 835 LINE",
"666 822 LINE",
"648 822 LINE",
"630 822 LINE",
"598 835 LINE",
"575 859 LINE",
"561 891 LINE"
);
},
{
closed = 1;
nodes = (
"0 760 LINE",
"780 760 LINE",
"780 0 LINE",
"0 0 LINE"
);
}
);
};
components = (
{
name = O;
},
{
name = dieresis;
transform = "{1, 0, 0, 1, 239, 254}";
}
);
layerId = UUID1;
width = 770;
}
);
leftKerningGroup = O;
rightKerningGroup = O;
unicode = 00D6;
},
{
color = 4;
glyphname = Ograve;
lastChange = "2017-01-23 08:35:30 +0000";
layers = (
{
background = {
paths = (
{
closed = 1;
nodes = (
"365 -15 LINE",
"299 -15 LINE",
"187 30 LINE",
"105 112 LINE",
"60 227 LINE",
"60 297 LINE",
"60 366 LINE",
"95 488 LINE",
"157 589 LINE",
"242 669 LINE",
"340 725 LINE",
"449 754 LINE",
"505 754 LINE",
"574 754 LINE",
"687 708 LINE",
"767 625 LINE",
"810 510 LINE",
"810 441 LINE",
"810 373 LINE",
"777 253 LINE",
"718 151 LINE",
"636 71 LINE",
"537 15 LINE",
"425 -15 LINE"
);
},
{
closed = 1;
nodes = (
"384 149 LINE",
"417 149 LINE",
"479 170 LINE",
"534 207 LINE",
"580 259 LINE",
"612 320 LINE",
"631 390 LINE",
"631 426 LINE",
"631 462 LINE",
"611 522 LINE",
"573 566 LINE",
"518 590 LINE",
"484 590 LINE",
"434 590 LINE",
"344 544 LINE",
"277 467 LINE",
"237 367 LINE",
"237 313 LINE",
"237 276 LINE",
"257 216 LINE",
"296 173 LINE",
"350 149 LINE"
);
},
{
closed = 1;
nodes = (
"533 829 LINE",
"390 969 LINE",
"390 981 LINE",
"549 981 LINE",
"645 829 LINE"
);
},
{
closed = 1;
nodes = (
"0 760 LINE",
"780 760 LINE",
"780 0 LINE",
"0 0 LINE"
);
}
);
};
components = (
{
name = O;
},
{
name = grave;
transform = "{1, 0, 0, 1, 308, 254}";
}
);
layerId = UUID0;
width = 780;
},
{
background = {
paths = (
{
closed = 1;
nodes = (
"365 -15 LINE",
"299 -15 LINE",
"187 30 LINE",
"105 112 LINE",
"60 227 LINE",
"60 297 LINE",
"60 366 LINE",
"95 488 LINE",
"157 589 LINE",
"242 669 LINE",
"340 725 LINE",
"449 754 LINE",
"505 754 LINE",
"574 754 LINE",
"687 708 LINE",
"767 625 LINE",
"810 510 LINE",
"810 441 LINE",
"810 373 LINE",
"777 253 LINE",
"718 151 LINE",
"636 71 LINE",
"537 15 LINE",
"425 -15 LINE"
);
},
{
closed = 1;
nodes = (
"384 149 LINE",
"417 149 LINE",
"479 170 LINE",
"534 207 LINE",
"580 259 LINE",
"612 320 LINE",
"631 390 LINE",
"631 426 LINE",
"631 462 LINE",
"611 522 LINE",
"573 566 LINE",
"518 590 LINE",
"484 590 LINE",
"434 590 LINE",
"344 544 LINE",
"277 467 LINE",
"237 367 LINE",
"237 313 LINE",
"237 276 LINE",
"257 216 LINE",
"296 173 LINE",
"350 149 LINE"
);
},
{
closed = 1;
nodes = (
"533 829 LINE",
"390 969 LINE",
"390 981 LINE",
"549 981 LINE",
"645 829 LINE"
);
},
{
closed = 1;
nodes = (
"0 760 LINE",
"780 760 LINE",
"780 0 LINE",
"0 0 LINE"
);
}
);
};
components = (
{
name = O;
},
{
name = grave;
transform = "{1, 0, 0, 1, 229, 254}";
}
);
layerId = UUID1;
width = 770;
}
);
leftKerningGroup = O;
rightKerningGroup = O;
unicode = 00D2;
},
{
color = 6;
glyphname = Ohungarumlaut;
lastChange = "2017-01-23 08:35:30 +0000";
layers = (
{
background = {
paths = (
{
closed = 1;
nodes = (
"365 -15 LINE",
"299 -15 LINE",
"187 30 LINE",
"105 112 LINE",
"60 227 LINE",
"60 297 LINE",
"60 366 LINE",
"95 488 LINE",
"157 589 LINE",
"242 669 LINE",
"340 725 LINE",
"449 754 LINE",
"505 754 LINE",
"574 754 LINE",
"687 708 LINE",
"767 625 LINE",
"810 510 LINE",
"810 441 LINE",
"810 373 LINE",
"777 253 LINE",
"718 151 LINE",
"636 71 LINE",
"537 15 LINE",
"425 -15 LINE"
);
},
{
closed = 1;
nodes = (
"384 149 LINE",
"417 149 LINE",
"479 170 LINE",
"534 207 LINE",
"580 259 LINE",
"612 320 LINE",
"631 390 LINE",
"631 426 LINE",
"631 462 LINE",
"611 522 LINE",
"573 566 LINE",
"518 590 LINE",
"484 590 LINE",
"434 590 LINE",
"344 544 LINE",
"277 467 LINE",
"237 367 LINE",
"237 313 LINE",
"237 276 LINE",
"257 216 LINE",
"296 173 LINE",
"350 149 LINE"
);
},
{
closed = 1;
nodes = (
"891 993 LINE",
"754 837 LINE",
"662 837 LINE",
"764 993 LINE"
);
},
{
closed = 1;
nodes = (
"697 993 LINE",
"572 837 LINE",
"481 837 LINE",
"571 993 LINE"
);
},
{
closed = 1;
nodes = (
"0 760 LINE",
"780 760 LINE",
"780 0 LINE",
"0 0 LINE"
);
}
);
};
components = (
{
name = O;
},
{
name = hungarumlaut;
transform = "{1, 0, 0, 1, 431, 257}";
}
);
layerId = UUID0;
width = 780;
},
{
background = {
paths = (
{
closed = 1;
nodes = (
"365 -15 LINE",
"299 -15 LINE",
"187 30 LINE",
"105 112 LINE",
"60 227 LINE",
"60 297 LINE",
"60 366 LINE",
"95 488 LINE",
"157 589 LINE",
"242 669 LINE",
"340 725 LINE",
"449 754 LINE",
"505 754 LINE",
"574 754 LINE",
"687 708 LINE",
"767 625 LINE",
"810 510 LINE",
"810 441 LINE",
"810 373 LINE",
"777 253 LINE",
"718 151 LINE",
"636 71 LINE",
"537 15 LINE",
"425 -15 LINE"
);
},
{
closed = 1;
nodes = (
"384 149 LINE",
"417 149 LINE",
"479 170 LINE",
"534 207 LINE",
"580 259 LINE",
"612 320 LINE",
"631 390 LINE",
"631 426 LINE",
"631 462 LINE",
"611 522 LINE",
"573 566 LINE",
"518 590 LINE",
"484 590 LINE",
"434 590 LINE",
"344 544 LINE",
"277 467 LINE",
"237 367 LINE",
"237 313 LINE",
"237 276 LINE",
"257 216 LINE",
"296 173 LINE",
"350 149 LINE"
);
},
{
closed = 1;
nodes = (
"891 993 LINE",
"754 837 LINE",
"662 837 LINE",
"764 993 LINE"
);
},
{
closed = 1;
nodes = (
"697 993 LINE",
"572 837 LINE",
"481 837 LINE",
"571 993 LINE"
);
},
{
closed = 1;
nodes = (
"0 760 LINE",
"780 760 LINE",
"780 0 LINE",
"0 0 LINE"
);
}
);
};
components = (
{
name = O;
},
{
name = hungarumlaut;
transform = "{1, 0, 0, 1, 358, 257}";
}
);
layerId = UUID1;
width = 770;
}
);
leftKerningGroup = O;
rightKerningGroup = O;
unicode = 0150;
},
{
color = 6;
glyphname = Omacron;
lastChange = "2017-01-23 08:35:30 +0000";
layers = (
{
background = {
paths = (
{
closed = 1;
nodes = (
"365 -15 LINE",
"299 -15 LINE",
"187 30 LINE",
"105 112 LINE",
"60 227 LINE",
"60 297 LINE",
"60 366 LINE",
"95 488 LINE",
"157 589 LINE",
"242 669 LINE",
"340 725 LINE",
"449 754 LINE",
"505 754 LINE",
"574 754 LINE",
"687 708 LINE",
"767 625 LINE",
"810 510 LINE",
"810 441 LINE",
"810 373 LINE",
"777 253 LINE",
"718 151 LINE",
"636 71 LINE",
"537 15 LINE",
"425 -15 LINE"
);
},
{
closed = 1;
nodes = (
"384 149 LINE",
"417 149 LINE",
"479 170 LINE",
"534 207 LINE",
"580 259 LINE",
"612 320 LINE",
"631 390 LINE",
"631 426 LINE",
"631 462 LINE",
"611 522 LINE",
"573 566 LINE",
"518 590 LINE",
"484 590 LINE",
"434 590 LINE",
"344 544 LINE",
"277 467 LINE",
"237 367 LINE",
"237 313 LINE",
"237 276 LINE",
"257 216 LINE",
"296 173 LINE",
"350 149 LINE"
);
},
{
closed = 1;
nodes = (
"722 828 LINE",
"386 828 LINE",
"386 933 LINE",
"722 933 LINE"
);
},
{
closed = 1;
nodes = (
"0 760 LINE",
"780 760 LINE",
"780 0 LINE",
"0 0 LINE"
);
}
);
};
components = (
{
name = O;
},
{
name = macron;
transform = "{1, 0, 0, 1, 346, 254}";
}
);
layerId = UUID0;
width = 780;
},
{
background = {
paths = (
{
closed = 1;
nodes = (
"365 -15 LINE",
"299 -15 LINE",
"187 30 LINE",
"105 112 LINE",
"60 227 LINE",
"60 297 LINE",
"60 366 LINE",
"95 488 LINE",
"157 589 LINE",
"242 669 LINE",
"340 725 LINE",
"449 754 LINE",
"505 754 LINE",
"574 754 LINE",
"687 708 LINE",
"767 625 LINE",
"810 510 LINE",
"810 441 LINE",
"810 373 LINE",
"777 253 LINE",
"718 151 LINE",
"636 71 LINE",
"537 15 LINE",
"425 -15 LINE"
);
},
{
closed = 1;
nodes = (
"384 149 LINE",
"417 149 LINE",
"479 170 LINE",
"534 207 LINE",
"580 259 LINE",
"612 320 LINE",
"631 390 LINE",
"631 426 LINE",
"631 462 LINE",
"611 522 LINE",
"573 566 LINE",
"518 590 LINE",
"484 590 LINE",
"434 590 LINE",
"344 544 LINE",
"277 467 LINE",
"237 367 LINE",
"237 313 LINE",
"237 276 LINE",
"257 216 LINE",
"296 173 LINE",
"350 149 LINE"
);
},
{
closed = 1;
nodes = (
"722 828 LINE",
"386 828 LINE",
"386 933 LINE",
"722 933 LINE"
);
},
{
closed = 1;
nodes = (
"0 760 LINE",
"780 760 LINE",
"780 0 LINE",
"0 0 LINE"
);
}
);
};
components = (
{
name = O;
},
{
name = macron;
transform = "{1, 0, 0, 1, 241, 254}";
}
);
layerId = UUID1;
width = 770;
}
);
leftKerningGroup = O;
rightKerningGroup = O;
unicode = 014C;
},
{
color = 4;
glyphname = Oslash;
lastChange = "2017-01-23 08:35:30 +0000";
layers = (
{
background = {
paths = (
{
closed = 1;
nodes = (
"107 121 LINE",
"84 157 LINE",
"60 246 LINE",
"60 297 LINE",
"60 366 LINE",
"95 488 LINE",
"157 589 LINE",
"242 669 LINE",
"340 725 LINE",
"450 754 LINE",
"505 754 LINE",
"558 754 LINE",
"649 727 LINE",
"686 702 LINE",
"753 770 LINE",
"900 770 LINE",
"758 627 LINE",
"783 589 LINE",
"810 495 LINE",
"810 441 LINE",
"810 373 LINE",
"777 253 LINE",
"718 151 LINE",
"636 71 LINE",
"537 15 LINE",
"425 -15 LINE",
"365 -15 LINE",
"311 -15 LINE",
"217 15 LINE",
"179 42 LINE",
"107 -30 LINE",
"-42 -30 LINE"
);
},
{
closed = 1;
nodes = (
"631 426 LINE",
"631 443 LINE",
"626 475 LINE",
"622 489 LINE",
"306 170 LINE",
"322 160 LINE",
"361 149 LINE",
"384 149 LINE",
"417 149 LINE",
"479 170 LINE",
"534 207 LINE",
"580 259 LINE",
"612 320 LINE",
"631 390 LINE"
);
},
{
closed = 1;
nodes = (
"244 258 LINE",
"557 572 LINE",
"541 581 LINE",
"505 590 LINE",
"484 590 LINE",
"434 590 LINE",
"344 544 LINE",
"277 467 LINE",
"237 367 LINE",
"237 313 LINE",
"237 298 LINE",
"240 271 LINE"
);
},
{
closed = 1;
nodes = (
"0 760 LINE",
"780 760 LINE",
"780 0 LINE",
"0 0 LINE"
);
}
);
};
layerId = UUID0;
paths = (
{
closed = 1;
nodes = (
"-36 -30 LINE",
"114 -30 LINE",
"907 770 LINE",
"760 770 LINE"
);
},
{
closed = 1;
nodes = (
"603 -15 OFFCURVE",
"810 170 OFFCURVE",
"810 441 CURVE SMOOTH",
"810 626 OFFCURVE",
"690 754 OFFCURVE",
"505 754 CURVE SMOOTH",
"283 754 OFFCURVE",
"60 574 OFFCURVE",
"60 297 CURVE SMOOTH",
"60 111 OFFCURVE",
"188 -15 OFFCURVE",
"365 -15 CURVE SMOOTH"
);
},
{
closed = 1;
nodes = (
"294 149 OFFCURVE",
"237 216 OFFCURVE",
"237 313 CURVE SMOOTH",
"237 457 OFFCURVE",
"351 590 OFFCURVE",
"484 590 CURVE SMOOTH",
"575 590 OFFCURVE",
"631 523 OFFCURVE",
"631 426 CURVE SMOOTH",
"631 281 OFFCURVE",
"515 149 OFFCURVE",
"384 149 CURVE SMOOTH"
);
}
);
width = 777;
},
{
background = {
paths = (
{
closed = 1;
nodes = (
"107 121 LINE",
"84 157 LINE",
"60 246 LINE",
"60 297 LINE",
"60 366 LINE",
"95 488 LINE",
"157 589 LINE",
"242 669 LINE",
"340 725 LINE",
"450 754 LINE",
"505 754 LINE",
"558 754 LINE",
"649 727 LINE",
"686 702 LINE",
"753 770 LINE",
"900 770 LINE",
"758 627 LINE",
"783 589 LINE",
"810 495 LINE",
"810 441 LINE",
"810 373 LINE",
"777 253 LINE",
"718 151 LINE",
"636 71 LINE",
"537 15 LINE",
"425 -15 LINE",
"365 -15 LINE",
"311 -15 LINE",
"217 15 LINE",
"179 42 LINE",
"107 -30 LINE",
"-42 -30 LINE"
);
},
{
closed = 1;
nodes = (
"631 426 LINE",
"631 443 LINE",
"626 475 LINE",
"622 489 LINE",
"306 170 LINE",
"322 160 LINE",
"361 149 LINE",
"384 149 LINE",
"417 149 LINE",
"479 170 LINE",
"534 207 LINE",
"580 259 LINE",
"612 320 LINE",
"631 390 LINE"
);
},
{
closed = 1;
nodes = (
"244 258 LINE",
"557 572 LINE",
"541 581 LINE",
"505 590 LINE",
"484 590 LINE",
"434 590 LINE",
"344 544 LINE",
"277 467 LINE",
"237 367 LINE",
"237 313 LINE",
"237 298 LINE",
"240 271 LINE"
);
},
{
closed = 1;
nodes = (
"0 760 LINE",
"780 760 LINE",
"780 0 LINE",
"0 0 LINE"
);
}
);
};
layerId = UUID1;
paths = (
{
closed = 1;
nodes = (
"70 -10 LINE",
"182 -10 LINE",
"737 750 LINE",
"625 750 LINE"
);
},
{
closed = 1;
nodes = (
"585 -15 OFFCURVE",
"767 168 OFFCURVE",
"767 430 CURVE SMOOTH",
"767 635 OFFCURVE",
"623 754 OFFCURVE",
"456 754 CURVE SMOOTH",
"226 754 OFFCURVE",
"37 575 OFFCURVE",
"37 320 CURVE SMOOTH",
"37 117 OFFCURVE",
"181 -15 OFFCURVE",
"348 -15 CURVE SMOOTH"
);
},
{
closed = 1;
nodes = (
"235 84 OFFCURVE",
"146 189 OFFCURVE",
"146 328 CURVE SMOOTH",
"146 517 OFFCURVE",
"284 655 OFFCURVE",
"445 655 CURVE SMOOTH",
"569 655 OFFCURVE",
"658 564 OFFCURVE",
"658 422 CURVE SMOOTH",
"658 231 OFFCURVE",
"528 84 OFFCURVE",
"359 84 CURVE SMOOTH"
);
}
);
width = 798;
}
);
leftKerningGroup = O;
rightKerningGroup = O;
unicode = 00D8;
},
{
color = 4;
glyphname = Otilde;
lastChange = "2017-01-27 12:00:48 +0000";
layers = (
{
background = {
paths = (
{
closed = 1;
nodes = (
"365 -15 LINE",
"299 -15 LINE",
"187 30 LINE",
"105 112 LINE",
"60 227 LINE",
"60 297 LINE",
"60 366 LINE",
"95 488 LINE",
"157 589 LINE",
"242 669 LINE",
"340 725 LINE",
"449 754 LINE",
"505 754 LINE",
"574 754 LINE",
"687 708 LINE",
"767 625 LINE",
"810 510 LINE",
"810 441 LINE",
"810 373 LINE",
"777 253 LINE",
"718 151 LINE",
"636 71 LINE",
"537 15 LINE",
"425 -15 LINE"
);
},
{
closed = 1;
nodes = (
"384 149 LINE",
"417 149 LINE",
"479 170 LINE",
"534 207 LINE",
"580 259 LINE",
"612 320 LINE",
"631 390 LINE",
"631 426 LINE",
"631 462 LINE",
"611 522 LINE",
"573 566 LINE",
"518 590 LINE",
"484 590 LINE",
"434 590 LINE",
"344 544 LINE",
"277 467 LINE",
"237 367 LINE",
"237 313 LINE",
"237 276 LINE",
"257 216 LINE",
"296 173 LINE",
"350 149 LINE"
);
},
{
closed = 1;
nodes = (
"434 976 LINE",
"455 976 LINE",
"493 962 LINE",
"529 945 LINE",
"564 931 LINE",
"581 931 LINE",
"602 931 LINE",
"633 945 LINE",
"646 964 LINE",
"723 930 LINE",
"716 908 LINE",
"689 870 LINE",
"654 841 LINE",
"612 825 LINE",
"589 825 LINE",
"563 825 LINE",
"522 838 LINE",
"486 854 LINE",
"451 868 LINE",
"431 868 LINE",
"409 868 LINE",
"379 850 LINE",
"369 837 LINE",
"295 871 LINE",
"302 897 LINE",
"334 937 LINE",
"375 963 LINE",
"417 976 LINE"
);
},
{
closed = 1;
nodes = (
"0 760 LINE",
"780 760 LINE",
"780 0 LINE",
"0 0 LINE"
);
}
);
};
components = (
{
name = O;
},
{
name = tilde;
transform = "{1, 0, 0, 1, 318, 254}";
}
);
layerId = UUID0;
width = 780;
},
{
background = {
paths = (
{
closed = 1;
nodes = (
"365 -15 LINE",
"299 -15 LINE",
"187 30 LINE",
"105 112 LINE",
"60 227 LINE",
"60 297 LINE",
"60 366 LINE",
"95 488 LINE",
"157 589 LINE",
"242 669 LINE",
"340 725 LINE",
"449 754 LINE",
"505 754 LINE",
"574 754 LINE",
"687 708 LINE",
"767 625 LINE",
"810 510 LINE",
"810 441 LINE",
"810 373 LINE",
"777 253 LINE",
"718 151 LINE",
"636 71 LINE",
"537 15 LINE",
"425 -15 LINE"
);
},
{
closed = 1;
nodes = (
"384 149 LINE",
"417 149 LINE",
"479 170 LINE",
"534 207 LINE",
"580 259 LINE",
"612 320 LINE",
"631 390 LINE",
"631 426 LINE",
"631 462 LINE",
"611 522 LINE",
"573 566 LINE",
"518 590 LINE",
"484 590 LINE",
"434 590 LINE",
"344 544 LINE",
"277 467 LINE",
"237 367 LINE",
"237 313 LINE",
"237 276 LINE",
"257 216 LINE",
"296 173 LINE",
"350 149 LINE"
);
},
{
closed = 1;
nodes = (
"434 976 LINE",
"455 976 LINE",
"493 962 LINE",
"529 945 LINE",
"564 931 LINE",
"581 931 LINE",
"602 931 LINE",
"633 945 LINE",
"646 964 LINE",
"723 930 LINE",
"716 908 LINE",
"689 870 LINE",
"654 841 LINE",
"612 825 LINE",
"589 825 LINE",
"563 825 LINE",
"522 838 LINE",
"486 854 LINE",
"451 868 LINE",
"431 868 LINE",
"409 868 LINE",
"379 850 LINE",
"369 837 LINE",
"295 871 LINE",
"302 897 LINE",
"334 937 LINE",
"375 963 LINE",
"417 976 LINE"
);
},
{
closed = 1;
nodes = (
"0 760 LINE",
"780 760 LINE",
"780 0 LINE",
"0 0 LINE"
);
}
);
};
components = (
{
name = O;
},
{
name = tilde;
transform = "{1, 0, 0, 1, 254, 254}";
}
);
layerId = UUID1;
width = 770;
}
);
leftKerningGroup = O;
rightKerningGroup = O;
unicode = 00D5;
},
{
color = 6;
glyphname = OE;
lastChange = "2017-01-23 08:35:30 +0000";
layers = (
{
background = {
paths = (
{
closed = 1;
nodes = (
"360 0 LINE",
"291 0 LINE",
"180 50 LINE",
"102 134 LINE",
"60 247 LINE",
"60 310 LINE",
"60 399 LINE",
"130 555 LINE",
"251 672 LINE",
"415 740 LINE",
"509 740 LINE",
"1115 740 LINE",
"1057 488 LINE",
"886 488 LINE",
"913 605 LINE",
"713 605 LINE",
"676 447 LINE",
"825 447 LINE",
"790 305 LINE",
"643 305 LINE",
"604 134 LINE",
"791 134 LINE",
"821 265 LINE",
"993 265 LINE",
"932 0 LINE"
);
},
{
closed = 1;
nodes = (
"235 327 LINE",
"235 288 LINE",
"256 218 LINE",
"293 165 LINE",
"347 134 LINE",
"380 134 LINE",
"442 134 LINE",
"551 606 LINE",
"507 606 LINE",
"457 606 LINE",
"360 563 LINE",
"283 487 LINE",
"235 385 LINE"
);
},
{
closed = 1;
nodes = (
"0 760 LINE",
"1030 760 LINE",
"1030 0 LINE",
"0 0 LINE"
);
}
);
};
layerId = UUID0;
paths = (
{
closed = 1;
nodes = (
"932 0 LINE",
"993 265 LINE",
"821 265 LINE",
"791 134 LINE",
"380 134 LINE SMOOTH",
"292 134 OFFCURVE",
"235 224 OFFCURVE",
"235 327 CURVE SMOOTH",
"235 483 OFFCURVE",
"375 606 OFFCURVE",
"507 606 CURVE SMOOTH",
"913 605 LINE",
"886 488 LINE",
"1057 488 LINE",
"1115 740 LINE",
"509 740 LINE SMOOTH",
"259 740 OFFCURVE",
"60 547 OFFCURVE",
"60 310 CURVE SMOOTH",
"60 142 OFFCURVE",
"175 0 OFFCURVE",
"360 0 CURVE SMOOTH"
);
},
{
closed = 1;
nodes = (
"587 61 LINE",
"727 665 LINE",
"565 665 LINE",
"425 61 LINE"
);
},
{
closed = 1;
nodes = (
"530 305 LINE",
"790 305 LINE",
"825 447 LINE",
"563 447 LINE"
);
}
);
width = 1030;
},
{
background = {
paths = (
{
closed = 1;
nodes = (
"360 0 LINE",
"291 0 LINE",
"180 50 LINE",
"102 134 LINE",
"60 247 LINE",
"60 310 LINE",
"60 399 LINE",
"130 555 LINE",
"251 672 LINE",
"415 740 LINE",
"509 740 LINE",
"1115 740 LINE",
"1057 488 LINE",
"886 488 LINE",
"913 605 LINE",
"713 605 LINE",
"676 447 LINE",
"825 447 LINE",
"790 305 LINE",
"643 305 LINE",
"604 134 LINE",
"791 134 LINE",
"821 265 LINE",
"993 265 LINE",
"932 0 LINE"
);
},
{
closed = 1;
nodes = (
"235 327 LINE",
"235 288 LINE",
"256 218 LINE",
"293 165 LINE",
"347 134 LINE",
"380 134 LINE",
"442 134 LINE",
"551 606 LINE",
"507 606 LINE",
"457 606 LINE",
"360 563 LINE",
"283 487 LINE",
"235 385 LINE"
);
},
{
closed = 1;
nodes = (
"0 760 LINE",
"1030 760 LINE",
"1030 0 LINE",
"0 0 LINE"
);
}
);
};
layerId = UUID1;
paths = (
{
closed = 1;
nodes = (
"888 0 LINE",
"937 211 LINE",
"835 211 LINE",
"805 84 LINE",
"345 84 LINE SMOOTH",
"215 84 OFFCURVE",
"141 189 OFFCURVE",
"141 320 CURVE SMOOTH",
"141 507 OFFCURVE",
"308 656 OFFCURVE",
"467 656 CURVE SMOOTH",
"937 656 LINE",
"909 529 LINE",
"1009 529 LINE",
"1057 740 LINE",
"479 740 LINE SMOOTH",
"245 740 OFFCURVE",
"37 549 OFFCURVE",
"37 312 CURVE SMOOTH",
"37 145 OFFCURVE",
"150 0 OFFCURVE",
"336 0 CURVE SMOOTH"
);
},
{
closed = 1;
nodes = (
"537 51 LINE",
"683 685 LINE",
"587 685 LINE",
"441 51 LINE"
);
},
{
closed = 1;
nodes = (
"560 335 LINE",
"824 335 LINE",
"844 419 LINE",
"580 419 LINE"
);
}
);
width = 1009;
}
);
leftKerningGroup = O;
rightKerningGroup = E;
unicode = 0152;
},
{
color = 4;
glyphname = P;
lastChange = "2017-01-23 08:35:30 +0000";
layers = (
{
background = {
paths = (
{
closed = 1;
nodes = (
"192 740 LINE",
"536 740 LINE",
"587 740 LINE",
"667 709 LINE",
"722 656 LINE",
"751 583 LINE",
"751 541 LINE",
"751 487 LINE",
"716 391 LINE",
"640 318 LINE",
"517 275 LINE",
"428 275 LINE",
"340 275 LINE",
"308 134 LINE",
"391 134 LINE",
"360 0 LINE",
"30 0 LINE",
"61 134 LINE",
"137 134 LINE",
"246 606 LINE",
"161 606 LINE"
);
},
{
closed = 1;
nodes = (
"417 606 LINE",
"371 407 LINE",
"423 407 LINE",
"456 407 LINE",
"510 421 LINE",
"549 451 LINE",
"570 495 LINE",
"570 525 LINE",
"570 562 LINE",
"520 606 LINE",
"469 606 LINE"
);
},
{
closed = 1;
nodes = (
"0 760 LINE",
"661 760 LINE",
"661 0 LINE",
"0 0 LINE"
);
}
);
};
layerId = UUID0;
paths = (
{
closed = 1;
nodes = (
"161 606 LINE",
"469 606 LINE SMOOTH",
"536 606 OFFCURVE",
"570 574 OFFCURVE",
"570 525 CURVE SMOOTH",
"570 445 OFFCURVE",
"511 407 OFFCURVE",
"423 407 CURVE SMOOTH",
"236 407 LINE",
"205 275 LINE",
"428 275 LINE SMOOTH",
"664 275 OFFCURVE",
"751 398 OFFCURVE",
"751 541 CURVE SMOOTH",
"751 653 OFFCURVE",
"672 740 OFFCURVE",
"536 740 CURVE SMOOTH",
"192 740 LINE"
);
},
{
closed = 1;
nodes = (
"291 61 LINE",
"431 665 LINE",
"260 665 LINE",
"120 61 LINE"
);
},
{
closed = 1;
nodes = (
"30 0 LINE",
"360 0 LINE",
"391 134 LINE",
"61 134 LINE"
);
}
);
width = 661;
},
{
background = {
paths = (
{
closed = 1;
nodes = (
"192 740 LINE",
"536 740 LINE",
"587 740 LINE",
"667 709 LINE",
"722 656 LINE",
"751 583 LINE",
"751 541 LINE",
"751 487 LINE",
"716 391 LINE",
"640 318 LINE",
"517 275 LINE",
"428 275 LINE",
"340 275 LINE",
"308 134 LINE",
"391 134 LINE",
"360 0 LINE",
"30 0 LINE",
"61 134 LINE",
"137 134 LINE",
"246 606 LINE",
"161 606 LINE"
);
},
{
closed = 1;
nodes = (
"417 606 LINE",
"371 407 LINE",
"423 407 LINE",
"456 407 LINE",
"510 421 LINE",
"549 451 LINE",
"570 495 LINE",
"570 525 LINE",
"570 562 LINE",
"520 606 LINE",
"469 606 LINE"
);
},
{
closed = 1;
nodes = (
"0 760 LINE",
"661 760 LINE",
"661 0 LINE",
"0 0 LINE"
);
}
);
};
layerId = UUID1;
paths = (
{
closed = 1;
nodes = (
"180 656 LINE",
"469 656 LINE SMOOTH",
"550 656 OFFCURVE",
"585 604 OFFCURVE",
"585 549 CURVE SMOOTH",
"585 456 OFFCURVE",
"514 405 OFFCURVE",
"408 405 CURVE SMOOTH",
"231 405 LINE",
"212 321 LINE",
"397 321 LINE SMOOTH",
"585 321 OFFCURVE",
"688 421 OFFCURVE",
"688 555 CURVE SMOOTH",
"688 657 OFFCURVE",
"610 740 OFFCURVE",
"497 740 CURVE SMOOTH",
"200 740 LINE"
);
},
{
closed = 1;
nodes = (
"215 52 LINE",
"360 684 LINE",
"259 684 LINE",
"113 52 LINE"
);
},
{
closed = 1;
nodes = (
"37 0 LINE",
"277 0 LINE",
"296 84 LINE",
"56 84 LINE"
);
}
);
width = 641;
}
);
leftKerningGroup = I;
unicode = 0050;
},
{
color = 4;
glyphname = Thorn;
lastChange = "2017-01-23 08:35:30 +0000";
layers = (
{
anchors = (
{
name = top;
position = "{181, 740}";
}
);
background = {
paths = (
{
closed = 1;
nodes = (
"192 740 LINE",
"448 740 LINE",
"430 663 LINE",
"430 663 LINE",
"413 586 LINE",
"503 586 LINE",
"554 586 LINE",
"634 557 LINE",
"689 506 LINE",
"719 436 LINE",
"719 395 LINE",
"719 353 LINE",
"687 277 LINE",
"625 215 LINE",
"531 173 LINE",
"469 166 LINE",
"453 164 LINE",
"420 162 LINE",
"408 162 LINE",
"314 162 LINE",
"277 0 LINE",
"30 0 LINE",
"61 134 LINE",
"137 134 LINE",
"246 606 LINE",
"161 606 LINE"
);
},
{
closed = 1;
nodes = (
"381 452 LINE",
"345 294 LINE",
"407 294 LINE",
"418 294 LINE",
"437 295 LINE",
"447 296 LINE",
"469 299 LINE",
"504 313 LINE",
"528 336 LINE",
"540 366 LINE",
"540 386 LINE",
"540 417 LINE",
"493 452 LINE",
"441 452 LINE"
);
},
{
closed = 1;
nodes = (
"0 760 LINE",
"669 760 LINE",
"669 0 LINE",
"0 0 LINE"
);
}
);
};
layerId = UUID0;
paths = (
{
closed = 1;
nodes = (
"274 452 LINE",
"441 452 LINE SMOOTH",
"510 452 OFFCURVE",
"540 427 OFFCURVE",
"540 386 CURVE SMOOTH",
"540 323 OFFCURVE",
"492 294 OFFCURVE",
"407 294 CURVE SMOOTH",
"212 294 LINE",
"181 162 LINE",
"403 162 LINE SMOOTH",
"612 162 OFFCURVE",
"719 269 OFFCURVE",
"719 395 CURVE SMOOTH",
"719 504 OFFCURVE",
"638 586 OFFCURVE",
"503 586 CURVE SMOOTH",
"305 586 LINE"
);
},
{
closed = 1;
nodes = (
"277 0 LINE",
"448 740 LINE",
"277 740 LINE",
"106 0 LINE"
);
},
{
closed = 1;
nodes = (
"161 606 LINE",
"403 606 LINE",
"433 740 LINE",
"192 740 LINE"
);
},
{
closed = 1;
nodes = (
"30 0 LINE",
"258 0 LINE",
"288 134 LINE",
"61 134 LINE"
);
}
);
width = 669;
},
{
anchors = (
{
name = top;
position = "{178, 740}";
}
);
background = {
paths = (
{
closed = 1;
nodes = (
"192 740 LINE",
"448 740 LINE",
"430 663 LINE",
"430 663 LINE",
"413 586 LINE",
"503 586 LINE",
"554 586 LINE",
"634 557 LINE",
"689 506 LINE",
"719 436 LINE",
"719 395 LINE",
"719 353 LINE",
"687 277 LINE",
"625 215 LINE",
"531 173 LINE",
"469 166 LINE",
"453 164 LINE",
"420 162 LINE",
"408 162 LINE",
"314 162 LINE",
"277 0 LINE",
"30 0 LINE",
"61 134 LINE",
"137 134 LINE",
"246 606 LINE",
"161 606 LINE"
);
},
{
closed = 1;
nodes = (
"381 452 LINE",
"345 294 LINE",
"407 294 LINE",
"418 294 LINE",
"437 295 LINE",
"447 296 LINE",
"469 299 LINE",
"504 313 LINE",
"528 336 LINE",
"540 366 LINE",
"540 386 LINE",
"540 417 LINE",
"493 452 LINE",
"441 452 LINE"
);
},
{
closed = 1;
nodes = (
"0 760 LINE",
"669 760 LINE",
"669 0 LINE",
"0 0 LINE"
);
}
);
};
layerId = UUID1;
paths = (
{
closed = 1;
nodes = (
"274 506 LINE",
"454 506 LINE SMOOTH",
"535 506 OFFCURVE",
"570 469 OFFCURVE",
"570 414 CURVE SMOOTH",
"570 321 OFFCURVE",
"501 273 OFFCURVE",
"412 273 CURVE SMOOTH",
"216 273 LINE",
"198 189 LINE",
"405 189 LINE SMOOTH",
"569 189 OFFCURVE",
"673 286 OFFCURVE",
"673 422 CURVE SMOOTH",
"673 528 OFFCURVE",
"590 590 OFFCURVE",
"475 590 CURVE SMOOTH",
"293 590 LINE"
);
},
{
closed = 1;
nodes = (
"219 52 LINE",
"364 684 LINE",
"263 684 LINE",
"117 52 LINE"
);
},
{
closed = 1;
nodes = (
"186 656 LINE",
"426 656 LINE",
"446 740 LINE",
"206 740 LINE"
);
},
{
closed = 1;
nodes = (
"35 0 LINE",
"275 0 LINE",
"294 84 LINE",
"54 84 LINE"
);
}
);
width = 659;
}
);
leftKerningGroup = I;
unicode = 00DE;
},
{
color = 4;
glyphname = Q;
lastChange = "2017-01-23 08:35:30 +0000";
layers = (
{
anchors = (
{
name = top;
position = "{298, 700}";
}
);
background = {
paths = (
{
closed = 1;
nodes = (
"302 -11 LINE",
"266 -6 LINE",
"232 7 LINE",
"177 30 LINE",
"95 112 LINE",
"50 227 LINE",
"50 297 LINE",
"50 366 LINE",
"85 488 LINE",
"147 589 LINE",
"231 669 LINE",
"331 725 LINE",
"439 754 LINE",
"495 754 LINE",
"564 754 LINE",
"677 708 LINE",
"757 625 LINE",
"800 510 LINE",
"800 441 LINE",
"800 373 LINE",
"767 253 LINE",
"708 151 LINE",
"625 71 LINE",
"526 15 LINE",
"470 0 LINE",
"450 -5 LINE",
"430 -9 LINE",
"464 -22 LINE",
"513 -51 LINE",
"543 -52 LINE",
"571 -52 LINE",
"615 -33 LINE",
"639 -1 LINE",
"646 18 LINE",
"743 -36 LINE",
"730 -72 LINE",
"685 -129 LINE",
"625 -170 LINE",
"557 -193 LINE",
"521 -193 LINE",
"502 -193 LINE",
"468 -183 LINE",
"435 -167 LINE",
"403 -149 LINE",
"370 -133 LINE",
"334 -123 LINE",
"316 -123 LINE",
"304 -123 LINE",
"286 -125 LINE",
"274 -129 LINE"
);
},
{
closed = 1;
nodes = (
"374 149 LINE",
"407 149 LINE",
"469 170 LINE",
"524 207 LINE",
"569 259 LINE",
"603 320 LINE",
"621 390 LINE",
"621 426 LINE",
"621 462 LINE",
"601 522 LINE",
"562 566 LINE",
"508 590 LINE",
"474 590 LINE",
"441 590 LINE",
"378 569 LINE",
"323 531 LINE",
"278 479 LINE",
"245 418 LINE",
"227 349 LINE",
"227 313 LINE",
"227 276 LINE",
"248 216 LINE",
"286 173 LINE",
"340 149 LINE"
);
},
{
closed = 1;
nodes = (
"0 760 LINE",
"760 760 LINE",
"760 0 LINE",
"0 0 LINE"
);
}
);
};
layerId = UUID0;
paths = (
{
closed = 1;
nodes = (
"274 -129 LINE",
"290 -124 OFFCURVE",
"300 -123 OFFCURVE",
"316 -123 CURVE SMOOTH",
"391 -123 OFFCURVE",
"447 -193 OFFCURVE",
"521 -193 CURVE SMOOTH",
"616 -193 OFFCURVE",
"710 -131 OFFCURVE",
"743 -36 CURVE",
"646 18 LINE",
"627 -32 OFFCURVE",
"583 -52 OFFCURVE",
"543 -52 CURVE SMOOTH",
"478 -51 OFFCURVE",
"437 7 OFFCURVE",
"366 7 CURVE SMOOTH",
"347 7 OFFCURVE",
"324 6 OFFCURVE",
"304 -3 CURVE"
);
},
{
closed = 1;
nodes = (
"593 -15 OFFCURVE",
"800 170 OFFCURVE",
"800 441 CURVE SMOOTH",
"800 626 OFFCURVE",
"680 754 OFFCURVE",
"495 754 CURVE SMOOTH",
"273 754 OFFCURVE",
"50 574 OFFCURVE",
"50 297 CURVE SMOOTH",
"50 111 OFFCURVE",
"178 -15 OFFCURVE",
"355 -15 CURVE SMOOTH"
);
},
{
closed = 1;
nodes = (
"284 149 OFFCURVE",
"227 216 OFFCURVE",
"227 313 CURVE SMOOTH",
"227 457 OFFCURVE",
"341 590 OFFCURVE",
"474 590 CURVE SMOOTH",
"565 590 OFFCURVE",
"621 523 OFFCURVE",
"621 426 CURVE SMOOTH",
"621 281 OFFCURVE",
"505 149 OFFCURVE",
"374 149 CURVE SMOOTH"
);
}
);
width = 760;
},
{
anchors = (
{
name = top;
position = "{345, 700}";
}
);
background = {
paths = (
{
closed = 1;
nodes = (
"302 -11 LINE",
"266 -6 LINE",
"232 7 LINE",
"177 30 LINE",
"95 112 LINE",
"50 227 LINE",
"50 297 LINE",
"50 366 LINE",
"85 488 LINE",
"147 589 LINE",
"231 669 LINE",
"331 725 LINE",
"439 754 LINE",
"495 754 LINE",
"564 754 LINE",
"677 708 LINE",
"757 625 LINE",
"800 510 LINE",
"800 441 LINE",
"800 373 LINE",
"767 253 LINE",
"708 151 LINE",
"625 71 LINE",
"526 15 LINE",
"470 0 LINE",
"450 -5 LINE",
"430 -9 LINE",
"464 -22 LINE",
"513 -51 LINE",
"543 -52 LINE",
"571 -52 LINE",
"615 -33 LINE",
"639 -1 LINE",
"646 18 LINE",
"743 -36 LINE",
"730 -72 LINE",
"685 -129 LINE",
"625 -170 LINE",
"557 -193 LINE",
"521 -193 LINE",
"502 -193 LINE",
"468 -183 LINE",
"435 -167 LINE",
"403 -149 LINE",
"370 -133 LINE",
"334 -123 LINE",
"316 -123 LINE",
"304 -123 LINE",
"286 -125 LINE",
"274 -129 LINE"
);
},
{
closed = 1;
nodes = (
"374 149 LINE",
"407 149 LINE",
"469 170 LINE",
"524 207 LINE",
"569 259 LINE",
"603 320 LINE",
"621 390 LINE",
"621 426 LINE",
"621 462 LINE",
"601 522 LINE",
"562 566 LINE",
"508 590 LINE",
"474 590 LINE",
"441 590 LINE",
"378 569 LINE",
"323 531 LINE",
"278 479 LINE",
"245 418 LINE",
"227 349 LINE",
"227 313 LINE",
"227 276 LINE",
"248 216 LINE",
"286 173 LINE",
"340 149 LINE"
);
},
{
closed = 1;
nodes = (
"0 760 LINE",
"760 760 LINE",
"760 0 LINE",
"0 0 LINE"
);
}
);
};
layerId = UUID1;
paths = (
{
closed = 1;
nodes = (
"272 -99 LINE",
"278 -97 OFFCURVE",
"288 -95 OFFCURVE",
"297 -94 CURVE SMOOTH",
"371 -82 OFFCURVE",
"411 -159 OFFCURVE",
"508 -159 CURVE SMOOTH",
"570 -159 OFFCURVE",
"653 -122 OFFCURVE",
"686 -49 CURVE",
"620 -15 LINE",
"602 -53 OFFCURVE",
"565 -72 OFFCURVE",
"528 -72 CURVE SMOOTH",
"446 -72 OFFCURVE",
"425 -6 OFFCURVE",
"330 -6 CURVE SMOOTH",
"318 -6 OFFCURVE",
"299 -8 OFFCURVE",
"293 -9 CURVE"
);
},
{
closed = 1;
nodes = (
"585 -15 OFFCURVE",
"767 168 OFFCURVE",
"767 430 CURVE SMOOTH",
"767 635 OFFCURVE",
"623 754 OFFCURVE",
"456 754 CURVE SMOOTH",
"226 754 OFFCURVE",
"37 575 OFFCURVE",
"37 320 CURVE SMOOTH",
"37 117 OFFCURVE",
"181 -15 OFFCURVE",
"348 -15 CURVE SMOOTH"
);
},
{
closed = 1;
nodes = (
"235 84 OFFCURVE",
"146 189 OFFCURVE",
"146 328 CURVE SMOOTH",
"146 517 OFFCURVE",
"284 655 OFFCURVE",
"445 655 CURVE SMOOTH",
"569 655 OFFCURVE",
"658 564 OFFCURVE",
"658 422 CURVE SMOOTH",
"658 231 OFFCURVE",
"528 84 OFFCURVE",
"359 84 CURVE SMOOTH"
);
}
);
width = 761;
}
);
leftKerningGroup = O;
rightKerningGroup = O;
unicode = 0051;
},
{
color = 4;
glyphname = R;
lastChange = "2017-01-23 08:35:30 +0000";
layers = (
{
anchors = (
{
name = top;
position = "{488, 740}";
}
);
background = {
paths = (
{
closed = 1;
nodes = (
"182 740 LINE",
"576 740 LINE",
"625 740 LINE",
"696 707 LINE",
"742 654 LINE",
"764 586 LINE",
"764 551 LINE",
"764 503 LINE",
"737 428 LINE",
"679 369 LINE",
"624 342 LINE",
"612 336 LINE",
"617 332 LINE",
"633 312 LINE",
"647 270 LINE",
"648 240 LINE",
"651 134 LINE",
"721 134 LINE",
"690 0 LINE",
"470 0 LINE",
"482 176 LINE",
"484 207 LINE",
"476 252 LINE",
"452 281 LINE",
"412 295 LINE",
"382 295 LINE",
"335 295 LINE",
"297 134 LINE",
"360 134 LINE",
"329 0 LINE",
"30 0 LINE",
"61 134 LINE",
"126 134 LINE",
"236 606 LINE",
"151 606 LINE"
);
},
{
closed = 1;
nodes = (
"407 606 LINE",
"365 427 LINE",
"458 427 LINE",
"488 427 LINE",
"538 439 LINE",
"573 464 LINE",
"592 503 LINE",
"592 530 LINE",
"592 564 LINE",
"551 606 LINE",
"504 606 LINE"
);
},
{
closed = 1;
nodes = (
"0 760 LINE",
"724 760 LINE",
"724 0 LINE",
"0 0 LINE"
);
}
);
};
layerId = UUID0;
paths = (
{
closed = 1;
nodes = (
"690 0 LINE",
"721 134 LINE",
"651 134 LINE",
"648 240 LINE SMOOTH",
"646 318 OFFCURVE",
"608 353 OFFCURVE",
"562 358 CURVE",
"382 295 LINE",
"461 295 OFFCURVE",
"488 260 OFFCURVE",
"482 176 CURVE SMOOTH",
"470 0 LINE"
);
},
{
closed = 1;
nodes = (
"151 606 LINE",
"504 606 LINE SMOOTH",
"567 606 OFFCURVE",
"592 576 OFFCURVE",
"592 530 CURVE SMOOTH",
"592 459 OFFCURVE",
"539 427 OFFCURVE",
"458 427 CURVE SMOOTH",
"231 427 LINE",
"200 295 LINE",
"467 295 LINE",
"526 308 LINE SMOOTH",
"694 353 OFFCURVE",
"764 423 OFFCURVE",
"764 551 CURVE SMOOTH",
"764 644 OFFCURVE",
"707 740 OFFCURVE",
"576 740 CURVE SMOOTH",
"182 740 LINE"
);
},
{
closed = 1;
nodes = (
"281 61 LINE",
"421 665 LINE",
"250 665 LINE",
"110 61 LINE"
);
},
{
closed = 1;
nodes = (
"30 0 LINE",
"329 0 LINE",
"360 134 LINE",
"61 134 LINE"
);
}
);
width = 724;
},
{
anchors = (
{
name = top;
position = "{447, 740}";
}
);
background = {
paths = (
{
closed = 1;
nodes = (
"182 740 LINE",
"576 740 LINE",
"625 740 LINE",
"696 707 LINE",
"742 654 LINE",
"764 586 LINE",
"764 551 LINE",
"764 503 LINE",
"737 428 LINE",
"679 369 LINE",
"624 342 LINE",
"612 336 LINE",
"617 332 LINE",
"633 312 LINE",
"647 270 LINE",
"648 240 LINE",
"651 134 LINE",
"721 134 LINE",
"690 0 LINE",
"470 0 LINE",
"482 176 LINE",
"484 207 LINE",
"476 252 LINE",
"452 281 LINE",
"412 295 LINE",
"382 295 LINE",
"335 295 LINE",
"297 134 LINE",
"360 134 LINE",
"329 0 LINE",
"30 0 LINE",
"61 134 LINE",
"126 134 LINE",
"236 606 LINE",
"151 606 LINE"
);
},
{
closed = 1;
nodes = (
"407 606 LINE",
"365 427 LINE",
"458 427 LINE",
"488 427 LINE",
"538 439 LINE",
"573 464 LINE",
"592 503 LINE",
"592 530 LINE",
"592 564 LINE",
"551 606 LINE",
"504 606 LINE"
);
},
{
closed = 1;
nodes = (
"0 760 LINE",
"724 760 LINE",
"724 0 LINE",
"0 0 LINE"
);
}
);
};
layerId = UUID1;
paths = (
{
closed = 1;
nodes = (
"617 0 LINE",
"636 84 LINE",
"573 84 LINE",
"570 254 LINE SMOOTH",
"569 323 OFFCURVE",
"530 370 OFFCURVE",
"493 371 CURVE",
"362 343 LINE",
"434 343 OFFCURVE",
"470 306 OFFCURVE",
"471 225 CURVE SMOOTH",
"474 0 LINE"
);
},
{
closed = 1;
nodes = (
"180 656 LINE",
"469 656 LINE SMOOTH",
"550 656 OFFCURVE",
"586 617 OFFCURVE",
"586 562 CURVE SMOOTH",
"586 469 OFFCURVE",
"515 425 OFFCURVE",
"417 425 CURVE SMOOTH",
"232 425 LINE",
"213 343 LINE",
"362 343 LINE",
"448 346 LINE SMOOTH",
"563 350 OFFCURVE",
"689 431 OFFCURVE",
"689 567 CURVE SMOOTH",
"689 669 OFFCURVE",
"614 740 OFFCURVE",
"501 740 CURVE SMOOTH",
"200 740 LINE"
);
},
{
closed = 1;
nodes = (
"216 52 LINE",
"361 684 LINE",
"260 684 LINE",
"114 52 LINE"
);
},
{
closed = 1;
nodes = (
"37 0 LINE",
"277 0 LINE",
"296 84 LINE",
"56 84 LINE"
);
}
);
width = 702;
}
);
leftKerningGroup = I;
rightKerningGroup = R;
unicode = 0052;
},
{
color = 6;
glyphname = Racute;
lastChange = "2017-01-23 08:35:30 +0000";
layers = (
{
background = {
paths = (
{
closed = 1;
nodes = (
"182 740 LINE",
"576 740 LINE",
"625 740 LINE",
"696 707 LINE",
"742 654 LINE",
"764 586 LINE",
"764 551 LINE",
"764 503 LINE",
"737 428 LINE",
"679 369 LINE",
"624 342 LINE",
"612 336 LINE",
"617 332 LINE",
"633 312 LINE",
"647 270 LINE",
"648 240 LINE",
"651 134 LINE",
"721 134 LINE",
"690 0 LINE",
"470 0 LINE",
"482 176 LINE",
"484 207 LINE",
"476 252 LINE",
"452 281 LINE",
"412 295 LINE",
"382 295 LINE",
"335 295 LINE",
"297 134 LINE",
"360 134 LINE",
"329 0 LINE",
"30 0 LINE",
"61 134 LINE",
"126 134 LINE",
"236 606 LINE",
"151 606 LINE"
);
},
{
closed = 1;
nodes = (
"407 606 LINE",
"365 427 LINE",
"458 427 LINE",
"488 427 LINE",
"538 439 LINE",
"573 464 LINE",
"592 503 LINE",
"592 530 LINE",
"592 564 LINE",
"551 606 LINE",
"504 606 LINE"
);
},
{
closed = 1;
nodes = (
"516 961 LINE",
"675 961 LINE",
"675 949 LINE",
"526 809 LINE",
"411 809 LINE"
);
},
{
closed = 1;
nodes = (
"0 760 LINE",
"724 760 LINE",
"724 0 LINE",
"0 0 LINE"
);
}
);
};
components = (
{
name = R;
},
{
name = acute;
transform = "{1, 0, 0, 1, 391, 234}";
}
);
layerId = UUID0;
width = 724;
},
{
background = {
paths = (
{
closed = 1;
nodes = (
"182 740 LINE",
"576 740 LINE",
"625 740 LINE",
"696 707 LINE",
"742 654 LINE",
"764 586 LINE",
"764 551 LINE",
"764 503 LINE",
"737 428 LINE",
"679 369 LINE",
"624 342 LINE",
"612 336 LINE",
"617 332 LINE",
"633 312 LINE",
"647 270 LINE",
"648 240 LINE",
"651 134 LINE",
"721 134 LINE",
"690 0 LINE",
"470 0 LINE",
"482 176 LINE",
"484 207 LINE",
"476 252 LINE",
"452 281 LINE",
"412 295 LINE",
"382 295 LINE",
"335 295 LINE",
"297 134 LINE",
"360 134 LINE",
"329 0 LINE",
"30 0 LINE",
"61 134 LINE",
"126 134 LINE",
"236 606 LINE",
"151 606 LINE"
);
},
{
closed = 1;
nodes = (
"407 606 LINE",
"365 427 LINE",
"458 427 LINE",
"488 427 LINE",
"538 439 LINE",
"573 464 LINE",
"592 503 LINE",
"592 530 LINE",
"592 564 LINE",
"551 606 LINE",
"504 606 LINE"
);
},
{
closed = 1;
nodes = (
"516 961 LINE",
"675 961 LINE",
"675 949 LINE",
"526 809 LINE",
"411 809 LINE"
);
},
{
closed = 1;
nodes = (
"0 760 LINE",
"724 760 LINE",
"724 0 LINE",
"0 0 LINE"
);
}
);
};
components = (
{
name = R;
},
{
name = acute;
transform = "{1, 0, 0, 1, 341, 234}";
}
);
layerId = UUID1;
width = 702;
}
);
leftKerningGroup = I;
rightKerningGroup = R;
unicode = 0154;
},
{
color = 6;
glyphname = Rcaron;
lastChange = "2017-01-23 08:35:30 +0000";
layers = (
{
background = {
paths = (
{
closed = 1;
nodes = (
"182 740 LINE",
"576 740 LINE",
"625 740 LINE",
"696 707 LINE",
"742 654 LINE",
"764 586 LINE",
"764 551 LINE",
"764 503 LINE",
"737 428 LINE",
"679 369 LINE",
"624 342 LINE",
"612 336 LINE",
"617 332 LINE",
"633 312 LINE",
"647 270 LINE",
"648 240 LINE",
"651 134 LINE",
"721 134 LINE",
"690 0 LINE",
"470 0 LINE",
"482 176 LINE",
"484 207 LINE",
"476 252 LINE",
"452 281 LINE",
"412 295 LINE",
"382 295 LINE",
"335 295 LINE",
"297 134 LINE",
"360 134 LINE",
"329 0 LINE",
"30 0 LINE",
"61 134 LINE",
"126 134 LINE",
"236 606 LINE",
"151 606 LINE"
);
},
{
closed = 1;
nodes = (
"407 606 LINE",
"365 427 LINE",
"458 427 LINE",
"488 427 LINE",
"538 439 LINE",
"573 464 LINE",
"592 503 LINE",
"592 530 LINE",
"592 564 LINE",
"551 606 LINE",
"504 606 LINE"
);
},
{
closed = 1;
nodes = (
"723 968 LINE",
"549 809 LINE",
"432 809 LINE",
"336 968 LINE",
"457 968 LINE",
"504 891 LINE",
"588 968 LINE"
);
},
{
closed = 1;
nodes = (
"0 760 LINE",
"724 760 LINE",
"724 0 LINE",
"0 0 LINE"
);
}
);
};
components = (
{
name = R;
},
{
name = caron;
transform = "{1, 0, 0, 1, 257, 234}";
}
);
layerId = UUID0;
width = 724;
},
{
background = {
paths = (
{
closed = 1;
nodes = (
"182 740 LINE",
"576 740 LINE",
"625 740 LINE",
"696 707 LINE",
"742 654 LINE",
"764 586 LINE",
"764 551 LINE",
"764 503 LINE",
"737 428 LINE",
"679 369 LINE",
"624 342 LINE",
"612 336 LINE",
"617 332 LINE",
"633 312 LINE",
"647 270 LINE",
"648 240 LINE",
"651 134 LINE",
"721 134 LINE",
"690 0 LINE",
"470 0 LINE",
"482 176 LINE",
"484 207 LINE",
"476 252 LINE",
"452 281 LINE",
"412 295 LINE",
"382 295 LINE",
"335 295 LINE",
"297 134 LINE",
"360 134 LINE",
"329 0 LINE",
"30 0 LINE",
"61 134 LINE",
"126 134 LINE",
"236 606 LINE",
"151 606 LINE"
);
},
{
closed = 1;
nodes = (
"407 606 LINE",
"365 427 LINE",
"458 427 LINE",
"488 427 LINE",
"538 439 LINE",
"573 464 LINE",
"592 503 LINE",
"592 530 LINE",
"592 564 LINE",
"551 606 LINE",
"504 606 LINE"
);
},
{
closed = 1;
nodes = (
"723 968 LINE",
"549 809 LINE",
"432 809 LINE",
"336 968 LINE",
"457 968 LINE",
"504 891 LINE",
"588 968 LINE"
);
},
{
closed = 1;
nodes = (
"0 760 LINE",
"724 760 LINE",
"724 0 LINE",
"0 0 LINE"
);
}
);
};
components = (
{
name = R;
},
{
name = caron;
transform = "{1, 0, 0, 1, 301, 234}";
}
);
layerId = UUID1;
width = 702;
}
);
leftKerningGroup = I;
rightKerningGroup = R;
unicode = 0158;
},
{
color = 6;
glyphname = Rcommaaccent;
lastChange = "2017-01-23 08:35:30 +0000";
layers = (
{
background = {
paths = (
{
closed = 1;
nodes = (
"182 740 LINE",
"576 740 LINE",
"625 740 LINE",
"696 707 LINE",
"742 654 LINE",
"764 586 LINE",
"764 551 LINE",
"764 503 LINE",
"737 428 LINE",
"679 369 LINE",
"624 342 LINE",
"612 336 LINE",
"617 332 LINE",
"633 312 LINE",
"647 270 LINE",
"648 240 LINE",
"651 134 LINE",
"721 134 LINE",
"690 0 LINE",
"470 0 LINE",
"482 176 LINE",
"484 207 LINE",
"476 252 LINE",
"452 281 LINE",
"412 295 LINE",
"382 295 LINE",
"335 295 LINE",
"297 134 LINE",
"360 134 LINE",
"329 0 LINE",
"30 0 LINE",
"61 134 LINE",
"126 134 LINE",
"236 606 LINE",
"151 606 LINE"
);
},
{
closed = 1;
nodes = (
"407 606 LINE",
"365 427 LINE",
"458 427 LINE",
"488 427 LINE",
"538 439 LINE",
"573 464 LINE",
"592 503 LINE",
"592 530 LINE",
"592 564 LINE",
"551 606 LINE",
"504 606 LINE"
);
},
{
closed = 1;
nodes = (
"319 -14 LINE",
"460 -65 LINE",
"364 -230 LINE",
"263 -195 LINE"
);
},
{
closed = 1;
nodes = (
"0 760 LINE",
"724 760 LINE",
"724 0 LINE",
"0 0 LINE"
);
}
);
};
components = (
{
name = R;
},
{
name = commabelow;
transform = "{1, 0, 0, 1, 251, 0}";
}
);
layerId = UUID0;
width = 724;
},
{
background = {
paths = (
{
closed = 1;
nodes = (
"182 740 LINE",
"576 740 LINE",
"625 740 LINE",
"696 707 LINE",
"742 654 LINE",
"764 586 LINE",
"764 551 LINE",
"764 503 LINE",
"737 428 LINE",
"679 369 LINE",
"624 342 LINE",
"612 336 LINE",
"617 332 LINE",
"633 312 LINE",
"647 270 LINE",
"648 240 LINE",
"651 134 LINE",
"721 134 LINE",
"690 0 LINE",
"470 0 LINE",
"482 176 LINE",
"484 207 LINE",
"476 252 LINE",
"452 281 LINE",
"412 295 LINE",
"382 295 LINE",
"335 295 LINE",
"297 134 LINE",
"360 134 LINE",
"329 0 LINE",
"30 0 LINE",
"61 134 LINE",
"126 134 LINE",
"236 606 LINE",
"151 606 LINE"
);
},
{
closed = 1;
nodes = (
"407 606 LINE",
"365 427 LINE",
"458 427 LINE",
"488 427 LINE",
"538 439 LINE",
"573 464 LINE",
"592 503 LINE",
"592 530 LINE",
"592 564 LINE",
"551 606 LINE",
"504 606 LINE"
);
},
{
closed = 1;
nodes = (
"319 -14 LINE",
"460 -65 LINE",
"364 -230 LINE",
"263 -195 LINE"
);
},
{
closed = 1;
nodes = (
"0 760 LINE",
"724 760 LINE",
"724 0 LINE",
"0 0 LINE"
);
}
);
};
components = (
{
name = R;
},
{
name = commabelow;
transform = "{1, 0, 0, 1, 262, 0}";
}
);
layerId = UUID1;
width = 702;
}
);
leftKerningGroup = I;
rightKerningGroup = R;
unicode = 0156;
},
{
color = 4;
glyphname = S;
lastChange = "2017-01-23 08:35:30 +0000";
layers = (
{
anchors = (
{
name = bottom;
position = "{285, 0}";
},
{
name = top;
position = "{432, 740}";
}
);
background = {
paths = (
{
closed = 1;
nodes = (
"39 260 LINE",
"217 260 LINE",
"204 210 LINE",
"211 169 LINE",
"236 142 LINE",
"279 127 LINE",
"309 127 LINE",
"336 127 LINE",
"380 142 LINE",
"411 167 LINE",
"427 203 LINE",
"427 224 LINE",
"427 240 LINE",
"413 264 LINE",
"390 281 LINE",
"360 293 LINE",
"343 299 LINE",
"259 328 LINE",
"229 338 LINE",
"181 373 LINE",
"146 419 LINE",
"127 479 LINE",
"127 512 LINE",
"127 572 LINE",
"172 663 LINE",
"252 723 LINE",
"364 753 LINE",
"431 753 LINE",
"479 753 LINE",
"559 730 LINE",
"616 693 LINE",
"646 646 LINE",
"649 623 LINE",
"705 623 LINE",
"676 498 LINE",
"499 498 LINE",
"509 543 LINE",
"500 579 LINE",
"475 604 LINE",
"437 617 LINE",
"413 617 LINE",
"389 617 LINE",
"346 608 LINE",
"314 588 LINE",
"295 557 LINE",
"295 535 LINE",
"295 516 LINE",
"311 492 LINE",
"347 474 LINE",
"382 461 LINE",
"483 424 LINE",
"545 401 LINE",
"603 311 LINE",
"603 245 LINE",
"603 185 LINE",
"556 89 LINE",
"472 23 LINE",
"355 -12 LINE",
"286 -12 LINE",
"235 -12 LINE",
"150 13 LINE",
"92 60 LINE",
"67 112 LINE",
"64 135 LINE",
"10 135 LINE"
);
},
{
closed = 1;
nodes = (
"0 760 LINE",
"619 760 LINE",
"619 0 LINE",
"0 0 LINE"
);
}
);
};
layerId = UUID0;
paths = (
{
closed = 1;
nodes = (
"64 165 LINE",
"57 58 OFFCURVE",
"149 -12 OFFCURVE",
"286 -12 CURVE SMOOTH",
"470 -12 OFFCURVE",
"603 84 OFFCURVE",
"603 245 CURVE SMOOTH",
"603 332 OFFCURVE",
"566 394 OFFCURVE",
"483 424 CURVE SMOOTH",
"382 461 LINE SMOOTH",
"343 475 OFFCURVE",
"295 485 OFFCURVE",
"295 535 CURVE SMOOTH",
"295 593 OFFCURVE",
"349 617 OFFCURVE",
"413 617 CURVE SMOOTH",
"475 617 OFFCURVE",
"520 581 OFFCURVE",
"504 519 CURVE",
"654 532 LINE",
"650 615 LINE",
"645 689 OFFCURVE",
"560 753 OFFCURVE",
"431 753 CURVE SMOOTH",
"253 753 OFFCURVE",
"127 673 OFFCURVE",
"127 512 CURVE SMOOTH",
"127 422 OFFCURVE",
"181 354 OFFCURVE",
"259 328 CURVE SMOOTH",
"343 299 LINE SMOOTH",
"388 284 OFFCURVE",
"427 267 OFFCURVE",
"427 224 CURVE SMOOTH",
"427 168 OFFCURVE",
"382 127 OFFCURVE",
"309 127 CURVE SMOOTH",
"228 127 OFFCURVE",
"196 169 OFFCURVE",
"210 232 CURVE",
"64 229 LINE"
);
},
{
closed = 1;
nodes = (
"499 498 LINE",
"676 498 LINE",
"705 623 LINE",
"528 623 LINE"
);
},
{
closed = 1;
nodes = (
"10 135 LINE",
"188 135 LINE",
"217 260 LINE",
"39 260 LINE"
);
}
);
width = 619;
},
{
anchors = (
{
name = bottom;
position = "{270, 0}";
},
{
name = top;
position = "{434, 740}";
}
);
background = {
paths = (
{
closed = 1;
nodes = (
"39 260 LINE",
"217 260 LINE",
"204 210 LINE",
"211 169 LINE",
"236 142 LINE",
"279 127 LINE",
"309 127 LINE",
"336 127 LINE",
"380 142 LINE",
"411 167 LINE",
"427 203 LINE",
"427 224 LINE",
"427 240 LINE",
"413 264 LINE",
"390 281 LINE",
"360 293 LINE",
"343 299 LINE",
"259 328 LINE",
"229 338 LINE",
"181 373 LINE",
"146 419 LINE",
"127 479 LINE",
"127 512 LINE",
"127 572 LINE",
"172 663 LINE",
"252 723 LINE",
"364 753 LINE",
"431 753 LINE",
"479 753 LINE",
"559 730 LINE",
"616 693 LINE",
"646 646 LINE",
"649 623 LINE",
"705 623 LINE",
"676 498 LINE",
"499 498 LINE",
"509 543 LINE",
"500 579 LINE",
"475 604 LINE",
"437 617 LINE",
"413 617 LINE",
"389 617 LINE",
"346 608 LINE",
"314 588 LINE",
"295 557 LINE",
"295 535 LINE",
"295 516 LINE",
"311 492 LINE",
"347 474 LINE",
"382 461 LINE",
"483 424 LINE",
"545 401 LINE",
"603 311 LINE",
"603 245 LINE",
"603 185 LINE",
"556 89 LINE",
"472 23 LINE",
"355 -12 LINE",
"286 -12 LINE",
"235 -12 LINE",
"150 13 LINE",
"92 60 LINE",
"67 112 LINE",
"64 135 LINE",
"10 135 LINE"
);
},
{
closed = 1;
nodes = (
"0 760 LINE",
"619 760 LINE",
"619 0 LINE",
"0 0 LINE"
);
}
);
};
layerId = UUID1;
paths = (
{
closed = 1;
nodes = (
"54 143 LINE",
"61 61 OFFCURVE",
"116 -15 OFFCURVE",
"274 -15 CURVE SMOOTH",
"446 -15 OFFCURVE",
"563 83 OFFCURVE",
"563 228 CURVE SMOOTH",
"563 319 OFFCURVE",
"516 371 OFFCURVE",
"422 403 CURVE SMOOTH",
"331 436 LINE SMOOTH",
"288 451 OFFCURVE",
"233 463 OFFCURVE",
"233 528 CURVE SMOOTH",
"233 601 OFFCURVE",
"297 663 OFFCURVE",
"405 663 CURVE SMOOTH",
"480 663 OFFCURVE",
"543 624 OFFCURVE",
"528 555 CURVE",
"632 558 LINE",
"627 606 LINE",
"612 692 OFFCURVE",
"533 751 OFFCURVE",
"414 751 CURVE SMOOTH",
"238 751 OFFCURVE",
"133 650 OFFCURVE",
"133 517 CURVE SMOOTH",
"133 431 OFFCURVE",
"180 376 OFFCURVE",
"268 348 CURVE SMOOTH",
"353 321 LINE SMOOTH",
"411 302 OFFCURVE",
"459 275 OFFCURVE",
"459 213 CURVE SMOOTH",
"459 132 OFFCURVE",
"388 74 OFFCURVE",
"291 74 CURVE SMOOTH",
"189 74 OFFCURVE",
"134 114 OFFCURVE",
"154 195 CURVE",
"59 174 LINE"
);
},
{
closed = 1;
nodes = (
"526 546 LINE",
"653 546 LINE",
"672 624 LINE",
"544 624 LINE"
);
},
{
closed = 1;
nodes = (
"8 137 LINE",
"141 137 LINE",
"160 215 LINE",
"27 215 LINE"
);
}
);
width = 624;
}
);
leftKerningGroup = S;
rightKerningGroup = S;
unicode = 0053;
},
{
color = 6;
glyphname = Sacute;
lastChange = "2017-01-23 08:35:30 +0000";
layers = (
{
background = {
paths = (
{
closed = 1;
nodes = (
"39 260 LINE",
"217 260 LINE",
"204 210 LINE",
"211 169 LINE",
"236 142 LINE",
"279 127 LINE",
"309 127 LINE",
"336 127 LINE",
"380 142 LINE",
"411 167 LINE",
"427 203 LINE",
"427 224 LINE",
"427 240 LINE",
"413 264 LINE",
"390 281 LINE",
"360 293 LINE",
"343 299 LINE",
"259 328 LINE",
"229 338 LINE",
"181 373 LINE",
"146 419 LINE",
"127 479 LINE",
"127 512 LINE",
"127 572 LINE",
"172 663 LINE",
"252 723 LINE",
"364 753 LINE",
"431 753 LINE",
"479 753 LINE",
"559 730 LINE",
"616 693 LINE",
"646 646 LINE",
"649 623 LINE",
"705 623 LINE",
"676 498 LINE",
"499 498 LINE",
"509 543 LINE",
"500 579 LINE",
"475 604 LINE",
"437 617 LINE",
"413 617 LINE",
"389 617 LINE",
"346 608 LINE",
"314 588 LINE",
"295 557 LINE",
"295 535 LINE",
"295 516 LINE",
"311 492 LINE",
"347 474 LINE",
"382 461 LINE",
"483 424 LINE",
"545 401 LINE",
"603 311 LINE",
"603 245 LINE",
"603 185 LINE",
"556 89 LINE",
"472 23 LINE",
"355 -12 LINE",
"286 -12 LINE",
"235 -12 LINE",
"150 13 LINE",
"92 60 LINE",
"67 112 LINE",
"64 135 LINE",
"10 135 LINE"
);
},
{
closed = 1;
nodes = (
"460 961 LINE",
"619 961 LINE",
"619 949 LINE",
"470 809 LINE",
"355 809 LINE"
);
},
{
closed = 1;
nodes = (
"0 760 LINE",
"619 760 LINE",
"619 0 LINE",
"0 0 LINE"
);
}
);
};
components = (
{
name = S;
},
{
name = acute;
transform = "{1, 0, 0, 1, 335, 234}";
}
);
layerId = UUID0;
width = 619;
},
{
background = {
paths = (
{
closed = 1;
nodes = (
"39 260 LINE",
"217 260 LINE",
"204 210 LINE",
"211 169 LINE",
"236 142 LINE",
"279 127 LINE",
"309 127 LINE",
"336 127 LINE",
"380 142 LINE",
"411 167 LINE",
"427 203 LINE",
"427 224 LINE",
"427 240 LINE",
"413 264 LINE",
"390 281 LINE",
"360 293 LINE",
"343 299 LINE",
"259 328 LINE",
"229 338 LINE",
"181 373 LINE",
"146 419 LINE",
"127 479 LINE",
"127 512 LINE",
"127 572 LINE",
"172 663 LINE",
"252 723 LINE",
"364 753 LINE",
"431 753 LINE",
"479 753 LINE",
"559 730 LINE",
"616 693 LINE",
"646 646 LINE",
"649 623 LINE",
"705 623 LINE",
"676 498 LINE",
"499 498 LINE",
"509 543 LINE",
"500 579 LINE",
"475 604 LINE",
"437 617 LINE",
"413 617 LINE",
"389 617 LINE",
"346 608 LINE",
"314 588 LINE",
"295 557 LINE",
"295 535 LINE",
"295 516 LINE",
"311 492 LINE",
"347 474 LINE",
"382 461 LINE",
"483 424 LINE",
"545 401 LINE",
"603 311 LINE",
"603 245 LINE",
"603 185 LINE",
"556 89 LINE",
"472 23 LINE",
"355 -12 LINE",
"286 -12 LINE",
"235 -12 LINE",
"150 13 LINE",
"92 60 LINE",
"67 112 LINE",
"64 135 LINE",
"10 135 LINE"
);
},
{
closed = 1;
nodes = (
"460 961 LINE",
"619 961 LINE",
"619 949 LINE",
"470 809 LINE",
"355 809 LINE"
);
},
{
closed = 1;
nodes = (
"0 760 LINE",
"619 760 LINE",
"619 0 LINE",
"0 0 LINE"
);
}
);
};
components = (
{
name = S;
},
{
name = acute;
transform = "{1, 0, 0, 1, 328, 234}";
}
);
layerId = UUID1;
width = 624;
}
);
leftKerningGroup = S;
rightKerningGroup = S;
unicode = 015A;
},
{
color = 4;
glyphname = Scaron;
lastChange = "2017-01-23 08:35:30 +0000";
layers = (
{
background = {
paths = (
{
closed = 1;
nodes = (
"39 260 LINE",
"217 260 LINE",
"204 210 LINE",
"211 169 LINE",
"236 142 LINE",
"279 127 LINE",
"309 127 LINE",
"336 127 LINE",
"380 142 LINE",
"411 167 LINE",
"427 203 LINE",
"427 224 LINE",
"427 240 LINE",
"413 264 LINE",
"390 281 LINE",
"360 293 LINE",
"343 299 LINE",
"259 328 LINE",
"229 338 LINE",
"181 373 LINE",
"146 419 LINE",
"127 479 LINE",
"127 512 LINE",
"127 572 LINE",
"172 663 LINE",
"252 723 LINE",
"364 753 LINE",
"431 753 LINE",
"479 753 LINE",
"559 730 LINE",
"616 693 LINE",
"646 646 LINE",
"649 623 LINE",
"705 623 LINE",
"676 498 LINE",
"499 498 LINE",
"509 543 LINE",
"500 579 LINE",
"475 604 LINE",
"437 617 LINE",
"413 617 LINE",
"389 617 LINE",
"346 608 LINE",
"314 588 LINE",
"295 557 LINE",
"295 535 LINE",
"295 516 LINE",
"311 492 LINE",
"347 474 LINE",
"382 461 LINE",
"483 424 LINE",
"545 401 LINE",
"603 311 LINE",
"603 245 LINE",
"603 185 LINE",
"556 89 LINE",
"472 23 LINE",
"355 -12 LINE",
"286 -12 LINE",
"235 -12 LINE",
"150 13 LINE",
"92 60 LINE",
"67 112 LINE",
"64 135 LINE",
"10 135 LINE"
);
},
{
closed = 1;
nodes = (
"667 968 LINE",
"493 809 LINE",
"376 809 LINE",
"280 968 LINE",
"401 968 LINE",
"448 891 LINE",
"532 968 LINE"
);
},
{
closed = 1;
nodes = (
"0 760 LINE",
"619 760 LINE",
"619 0 LINE",
"0 0 LINE"
);
}
);
};
components = (
{
name = S;
},
{
name = caron;
transform = "{1, 0, 0, 1, 201, 234}";
}
);
layerId = UUID0;
width = 619;
},
{
background = {
paths = (
{
closed = 1;
nodes = (
"39 260 LINE",
"217 260 LINE",
"204 210 LINE",
"211 169 LINE",
"236 142 LINE",
"279 127 LINE",
"309 127 LINE",
"336 127 LINE",
"380 142 LINE",
"411 167 LINE",
"427 203 LINE",
"427 224 LINE",
"427 240 LINE",
"413 264 LINE",
"390 281 LINE",
"360 293 LINE",
"343 299 LINE",
"259 328 LINE",
"229 338 LINE",
"181 373 LINE",
"146 419 LINE",
"127 479 LINE",
"127 512 LINE",
"127 572 LINE",
"172 663 LINE",
"252 723 LINE",
"364 753 LINE",
"431 753 LINE",
"479 753 LINE",
"559 730 LINE",
"616 693 LINE",
"646 646 LINE",
"649 623 LINE",
"705 623 LINE",
"676 498 LINE",
"499 498 LINE",
"509 543 LINE",
"500 579 LINE",
"475 604 LINE",
"437 617 LINE",
"413 617 LINE",
"389 617 LINE",
"346 608 LINE",
"314 588 LINE",
"295 557 LINE",
"295 535 LINE",
"295 516 LINE",
"311 492 LINE",
"347 474 LINE",
"382 461 LINE",
"483 424 LINE",
"545 401 LINE",
"603 311 LINE",
"603 245 LINE",
"603 185 LINE",
"556 89 LINE",
"472 23 LINE",
"355 -12 LINE",
"286 -12 LINE",
"235 -12 LINE",
"150 13 LINE",
"92 60 LINE",
"67 112 LINE",
"64 135 LINE",
"10 135 LINE"
);
},
{
closed = 1;
nodes = (
"667 968 LINE",
"493 809 LINE",
"376 809 LINE",
"280 968 LINE",
"401 968 LINE",
"448 891 LINE",
"532 968 LINE"
);
},
{
closed = 1;
nodes = (
"0 760 LINE",
"619 760 LINE",
"619 0 LINE",
"0 0 LINE"
);
}
);
};
components = (
{
name = S;
},
{
name = caron;
transform = "{1, 0, 0, 1, 288, 234}";
}
);
layerId = UUID1;
width = 624;
}
);
leftKerningGroup = S;
rightKerningGroup = S;
unicode = 0160;
},
{
color = 6;
glyphname = Scedilla;
lastChange = "2017-01-23 08:35:30 +0000";
layers = (
{
background = {
paths = (
{
closed = 1;
nodes = (
"39 260 LINE",
"217 260 LINE",
"204 210 LINE",
"211 169 LINE",
"236 142 LINE",
"279 127 LINE",
"309 127 LINE",
"336 127 LINE",
"380 142 LINE",
"411 167 LINE",
"427 203 LINE",
"427 224 LINE",
"427 240 LINE",
"413 264 LINE",
"390 281 LINE",
"360 293 LINE",
"343 299 LINE",
"259 328 LINE",
"229 338 LINE",
"181 373 LINE",
"146 419 LINE",
"127 479 LINE",
"127 512 LINE",
"127 572 LINE",
"172 663 LINE",
"252 723 LINE",
"364 753 LINE",
"431 753 LINE",
"479 753 LINE",
"559 730 LINE",
"616 693 LINE",
"646 646 LINE",
"649 623 LINE",
"705 623 LINE",
"676 498 LINE",
"499 498 LINE",
"509 543 LINE",
"500 579 LINE",
"475 604 LINE",
"437 617 LINE",
"413 617 LINE",
"389 617 LINE",
"346 608 LINE",
"314 588 LINE",
"295 557 LINE",
"295 535 LINE",
"295 516 LINE",
"311 492 LINE",
"347 474 LINE",
"382 461 LINE",
"483 424 LINE",
"545 401 LINE",
"603 311 LINE",
"603 245 LINE",
"603 185 LINE",
"556 89 LINE",
"472 23 LINE",
"355 -12 LINE",
"286 -12 LINE",
"235 -12 LINE",
"150 13 LINE",
"92 60 LINE",
"67 112 LINE",
"64 135 LINE",
"10 135 LINE"
);
},
{
closed = 1;
nodes = (
"115 -141 LINE",
"140 -135 LINE",
"178 -115 LINE",
"205 -86 LINE",
"224 -48 LINE",
"230 -23 LINE",
"359 -68 LINE",
"345 -102 LINE",
"303 -155 LINE",
"249 -193 LINE",
"185 -217 LINE",
"149 -221 LINE"
);
},
{
closed = 1;
nodes = (
"0 760 LINE",
"619 760 LINE",
"619 0 LINE",
"0 0 LINE"
);
}
);
};
components = (
{
name = S;
},
{
name = cedilla;
transform = "{1, 0, 0, 1, 65, 0}";
}
);
layerId = UUID0;
width = 619;
},
{
background = {
paths = (
{
closed = 1;
nodes = (
"39 260 LINE",
"217 260 LINE",
"204 210 LINE",
"211 169 LINE",
"236 142 LINE",
"279 127 LINE",
"309 127 LINE",
"336 127 LINE",
"380 142 LINE",
"411 167 LINE",
"427 203 LINE",
"427 224 LINE",
"427 240 LINE",
"413 264 LINE",
"390 281 LINE",
"360 293 LINE",
"343 299 LINE",
"259 328 LINE",
"229 338 LINE",
"181 373 LINE",
"146 419 LINE",
"127 479 LINE",
"127 512 LINE",
"127 572 LINE",
"172 663 LINE",
"252 723 LINE",
"364 753 LINE",
"431 753 LINE",
"479 753 LINE",
"559 730 LINE",
"616 693 LINE",
"646 646 LINE",
"649 623 LINE",
"705 623 LINE",
"676 498 LINE",
"499 498 LINE",
"509 543 LINE",
"500 579 LINE",
"475 604 LINE",
"437 617 LINE",
"413 617 LINE",
"389 617 LINE",
"346 608 LINE",
"314 588 LINE",
"295 557 LINE",
"295 535 LINE",
"295 516 LINE",
"311 492 LINE",
"347 474 LINE",
"382 461 LINE",
"483 424 LINE",
"545 401 LINE",
"603 311 LINE",
"603 245 LINE",
"603 185 LINE",
"556 89 LINE",
"472 23 LINE",
"355 -12 LINE",
"286 -12 LINE",
"235 -12 LINE",
"150 13 LINE",
"92 60 LINE",
"67 112 LINE",
"64 135 LINE",
"10 135 LINE"
);
},
{
closed = 1;
nodes = (
"115 -141 LINE",
"140 -135 LINE",
"178 -115 LINE",
"205 -86 LINE",
"224 -48 LINE",
"230 -23 LINE",
"359 -68 LINE",
"345 -102 LINE",
"303 -155 LINE",
"249 -193 LINE",
"185 -217 LINE",
"149 -221 LINE"
);
},
{
closed = 1;
nodes = (
"0 760 LINE",
"619 760 LINE",
"619 0 LINE",
"0 0 LINE"
);
}
);
};
components = (
{
name = S;
},
{
name = cedilla;
transform = "{1, 0, 0, 1, 64, 0}";
}
);
layerId = UUID1;
width = 624;
}
);
leftKerningGroup = S;
rightKerningGroup = S;
unicode = 015E;
},
{
color = 6;
glyphname = Scommaaccent;
lastChange = "2017-01-27 12:00:50 +0000";
layers = (
{
background = {
paths = (
{
closed = 1;
nodes = (
"39 260 LINE",
"217 260 LINE",
"204 210 LINE",
"211 169 LINE",
"236 142 LINE",
"279 127 LINE",
"309 127 LINE",
"336 127 LINE",
"380 142 LINE",
"411 167 LINE",
"427 203 LINE",
"427 224 LINE",
"427 240 LINE",
"413 264 LINE",
"390 281 LINE",
"360 293 LINE",
"343 299 LINE",
"259 328 LINE",
"229 338 LINE",
"181 373 LINE",
"146 419 LINE",
"127 479 LINE",
"127 512 LINE",
"127 572 LINE",
"172 663 LINE",
"252 723 LINE",
"364 753 LINE",
"431 753 LINE",
"479 753 LINE",
"559 730 LINE",
"616 693 LINE",
"646 646 LINE",
"649 623 LINE",
"705 623 LINE",
"676 498 LINE",
"499 498 LINE",
"509 543 LINE",
"500 579 LINE",
"475 604 LINE",
"437 617 LINE",
"413 617 LINE",
"389 617 LINE",
"346 608 LINE",
"314 588 LINE",
"295 557 LINE",
"295 535 LINE",
"295 516 LINE",
"311 492 LINE",
"347 474 LINE",
"382 461 LINE",
"483 424 LINE",
"545 401 LINE",
"603 311 LINE",
"603 245 LINE",
"603 185 LINE",
"556 89 LINE",
"472 23 LINE",
"355 -12 LINE",
"286 -12 LINE",
"235 -12 LINE",
"150 13 LINE",
"92 60 LINE",
"67 112 LINE",
"64 135 LINE",
"10 135 LINE"
);
},
{
closed = 1;
nodes = (
"267 -14 LINE",
"408 -65 LINE",
"312 -230 LINE",
"211 -195 LINE"
);
},
{
closed = 1;
nodes = (
"0 760 LINE",
"619 760 LINE",
"619 0 LINE",
"0 0 LINE"
);
}
);
};
components = (
{
name = S;
},
{
name = commabelow;
transform = "{1, 0, 0, 1, 141, 0}";
}
);
layerId = UUID0;
width = 619;
},
{
background = {
paths = (
{
closed = 1;
nodes = (
"39 260 LINE",
"217 260 LINE",
"204 210 LINE",
"211 169 LINE",
"236 142 LINE",
"279 127 LINE",
"309 127 LINE",
"336 127 LINE",
"380 142 LINE",
"411 167 LINE",
"427 203 LINE",
"427 224 LINE",
"427 240 LINE",
"413 264 LINE",
"390 281 LINE",
"360 293 LINE",
"343 299 LINE",
"259 328 LINE",
"229 338 LINE",
"181 373 LINE",
"146 419 LINE",
"127 479 LINE",
"127 512 LINE",
"127 572 LINE",
"172 663 LINE",
"252 723 LINE",
"364 753 LINE",
"431 753 LINE",
"479 753 LINE",
"559 730 LINE",
"616 693 LINE",
"646 646 LINE",
"649 623 LINE",
"705 623 LINE",
"676 498 LINE",
"499 498 LINE",
"509 543 LINE",
"500 579 LINE",
"475 604 LINE",
"437 617 LINE",
"413 617 LINE",
"389 617 LINE",
"346 608 LINE",
"314 588 LINE",
"295 557 LINE",
"295 535 LINE",
"295 516 LINE",
"311 492 LINE",
"347 474 LINE",
"382 461 LINE",
"483 424 LINE",
"545 401 LINE",
"603 311 LINE",
"603 245 LINE",
"603 185 LINE",
"556 89 LINE",
"472 23 LINE",
"355 -12 LINE",
"286 -12 LINE",
"235 -12 LINE",
"150 13 LINE",
"92 60 LINE",
"67 112 LINE",
"64 135 LINE",
"10 135 LINE"
);
},
{
closed = 1;
nodes = (
"267 -14 LINE",
"408 -65 LINE",
"312 -230 LINE",
"211 -195 LINE"
);
},
{
closed = 1;
nodes = (
"0 760 LINE",
"619 760 LINE",
"619 0 LINE",
"0 0 LINE"
);
}
);
};
components = (
{
name = S;
},
{
name = commabelow;
transform = "{1, 0, 0, 1, 139, 0}";
}
);
layerId = UUID1;
width = 624;
}
);
leftKerningGroup = S;
rightKerningGroup = S;
unicode = 0218;
},
{
color = 4;
glyphname = T;
lastChange = "2017-01-23 08:35:30 +0000";
layers = (
{
anchors = (
{
name = bottom;
position = "{307, 0}";
},
{
name = top;
position = "{466, 740}";
}
);
background = {
paths = (
{
closed = 1;
nodes = (
"167 134 LINE",
"244 134 LINE",
"354 606 LINE",
"259 606 LINE",
"238 515 LINE",
"70 515 LINE",
"122 740 LINE",
"818 740 LINE",
"766 515 LINE",
"598 515 LINE",
"619 606 LINE",
"524 606 LINE",
"415 134 LINE",
"497 134 LINE",
"466 0 LINE",
"136 0 LINE"
);
},
{
closed = 1;
nodes = (
"0 760 LINE",
"668 760 LINE",
"668 0 LINE",
"0 0 LINE"
);
}
);
};
layerId = UUID0;
paths = (
{
closed = 1;
nodes = (
"766 515 LINE",
"818 740 LINE",
"122 740 LINE",
"70 515 LINE",
"238 515 LINE",
"259 606 LINE",
"619 606 LINE",
"598 515 LINE"
);
},
{
closed = 1;
nodes = (
"398 61 LINE",
"538 665 LINE",
"367 665 LINE",
"227 61 LINE"
);
},
{
closed = 1;
nodes = (
"136 0 LINE",
"466 0 LINE",
"497 134 LINE",
"167 134 LINE"
);
}
);
width = 668;
},
{
anchors = (
{
name = bottom;
position = "{270, 0}";
},
{
name = top;
position = "{441, 740}";
}
);
background = {
paths = (
{
closed = 1;
nodes = (
"167 134 LINE",
"244 134 LINE",
"354 606 LINE",
"259 606 LINE",
"238 515 LINE",
"70 515 LINE",
"122 740 LINE",
"818 740 LINE",
"766 515 LINE",
"598 515 LINE",
"619 606 LINE",
"524 606 LINE",
"415 134 LINE",
"497 134 LINE",
"466 0 LINE",
"136 0 LINE"
);
},
{
closed = 1;
nodes = (
"0 760 LINE",
"668 760 LINE",
"668 0 LINE",
"0 0 LINE"
);
}
);
};
layerId = UUID1;
paths = (
{
closed = 1;
nodes = (
"726 545 LINE",
"771 740 LINE",
"111 740 LINE",
"66 545 LINE",
"166 545 LINE",
"192 660 LINE",
"652 660 LINE",
"626 545 LINE"
);
},
{
closed = 1;
nodes = (
"333 52 LINE",
"478 684 LINE",
"377 684 LINE",
"231 52 LINE"
);
},
{
closed = 1;
nodes = (
"151 0 LINE",
"391 0 LINE",
"410 84 LINE",
"170 84 LINE"
);
}
);
width = 665;
}
);
leftKerningGroup = T;
rightKerningGroup = T;
unicode = 0054;
},
{
color = 6;
glyphname = Tcaron;
lastChange = "2017-01-27 12:00:50 +0000";
layers = (
{
background = {
paths = (
{
closed = 1;
nodes = (
"167 134 LINE",
"244 134 LINE",
"354 606 LINE",
"259 606 LINE",
"238 515 LINE",
"70 515 LINE",
"122 740 LINE",
"818 740 LINE",
"766 515 LINE",
"598 515 LINE",
"619 606 LINE",
"524 606 LINE",
"415 134 LINE",
"497 134 LINE",
"466 0 LINE",
"136 0 LINE"
);
},
{
closed = 1;
nodes = (
"692 968 LINE",
"518 809 LINE",
"401 809 LINE",
"305 968 LINE",
"426 968 LINE",
"473 891 LINE",
"557 968 LINE"
);
},
{
closed = 1;
nodes = (
"0 760 LINE",
"668 760 LINE",
"668 0 LINE",
"0 0 LINE"
);
}
);
};
components = (
{
name = T;
},
{
name = caron;
transform = "{1, 0, 0, 1, 235, 234}";
}
);
layerId = UUID0;
width = 668;
},
{
background = {
paths = (
{
closed = 1;
nodes = (
"167 134 LINE",
"244 134 LINE",
"354 606 LINE",
"259 606 LINE",
"238 515 LINE",
"70 515 LINE",
"122 740 LINE",
"818 740 LINE",
"766 515 LINE",
"598 515 LINE",
"619 606 LINE",
"524 606 LINE",
"415 134 LINE",
"497 134 LINE",
"466 0 LINE",
"136 0 LINE"
);
},
{
closed = 1;
nodes = (
"692 968 LINE",
"518 809 LINE",
"401 809 LINE",
"305 968 LINE",
"426 968 LINE",
"473 891 LINE",
"557 968 LINE"
);
},
{
closed = 1;
nodes = (
"0 760 LINE",
"668 760 LINE",
"668 0 LINE",
"0 0 LINE"
);
}
);
};
components = (
{
name = T;
},
{
name = caron;
transform = "{1, 0, 0, 1, 295, 234}";
}
);
layerId = UUID1;
width = 665;
}
);
leftKerningGroup = T;
rightKerningGroup = T;
unicode = 0164;
},
{
color = 6;
glyphname = Tcommaaccent;
lastChange = "2017-02-01 10:38:27 +0000";
layers = (
{
background = {
paths = (
{
closed = 1;
nodes = (
"167 134 LINE",
"244 134 LINE",
"354 606 LINE",
"259 606 LINE",
"238 515 LINE",
"70 515 LINE",
"122 740 LINE",
"818 740 LINE",
"766 515 LINE",
"598 515 LINE",
"619 606 LINE",
"524 606 LINE",
"415 134 LINE",
"497 134 LINE",
"466 0 LINE",
"136 0 LINE"
);
},
{
closed = 1;
nodes = (
"231 -14 LINE",
"372 -65 LINE",
"276 -230 LINE",
"175 -195 LINE"
);
},
{
closed = 1;
nodes = (
"0 760 LINE",
"668 760 LINE",
"668 0 LINE",
"0 0 LINE"
);
}
);
};
components = (
{
name = T;
},
{
name = commabelow;
transform = "{1, 0, 0, 1, 163, 0}";
}
);
layerId = UUID0;
width = 668;
},
{
background = {
paths = (
{
closed = 1;
nodes = (
"167 134 LINE",
"244 134 LINE",
"354 606 LINE",
"259 606 LINE",
"238 515 LINE",
"70 515 LINE",
"122 740 LINE",
"818 740 LINE",
"766 515 LINE",
"598 515 LINE",
"619 606 LINE",
"524 606 LINE",
"415 134 LINE",
"497 134 LINE",
"466 0 LINE",
"136 0 LINE"
);
},
{
closed = 1;
nodes = (
"231 -14 LINE",
"372 -65 LINE",
"276 -230 LINE",
"175 -195 LINE"
);
},
{
closed = 1;
nodes = (
"0 760 LINE",
"668 760 LINE",
"668 0 LINE",
"0 0 LINE"
);
}
);
};
components = (
{
name = T;
},
{
name = commabelow;
transform = "{1, 0, 0, 1, 139, 0}";
}
);
layerId = UUID1;
width = 665;
}
);
leftKerningGroup = T;
rightKerningGroup = T;
unicode = 021A;
},
{
color = 6;
glyphname = Tcommaaccent;
lastChange = "2017-02-01 10:38:27 +0000";
layers = (
{
background = {
paths = (
{
closed = 1;
nodes = (
"167 134 LINE",
"244 134 LINE",
"354 606 LINE",
"259 606 LINE",
"238 515 LINE",
"70 515 LINE",
"122 740 LINE",
"818 740 LINE",
"766 515 LINE",
"598 515 LINE",
"619 606 LINE",
"524 606 LINE",
"415 134 LINE",
"497 134 LINE",
"466 0 LINE",
"136 0 LINE"
);
},
{
closed = 1;
nodes = (
"231 -14 LINE",
"372 -65 LINE",
"276 -230 LINE",
"175 -195 LINE"
);
},
{
closed = 1;
nodes = (
"0 760 LINE",
"668 760 LINE",
"668 0 LINE",
"0 0 LINE"
);
}
);
};
components = (
{
name = T;
},
{
name = commabelow;
transform = "{1, 0, 0, 1, 163, 0}";
}
);
layerId = UUID0;
width = 668;
},
{
background = {
paths = (
{
closed = 1;
nodes = (
"167 134 LINE",
"244 134 LINE",
"354 606 LINE",
"259 606 LINE",
"238 515 LINE",
"70 515 LINE",
"122 740 LINE",
"818 740 LINE",
"766 515 LINE",
"598 515 LINE",
"619 606 LINE",
"524 606 LINE",
"415 134 LINE",
"497 134 LINE",
"466 0 LINE",
"136 0 LINE"
);
},
{
closed = 1;
nodes = (
"231 -14 LINE",
"372 -65 LINE",
"276 -230 LINE",
"175 -195 LINE"
);
},
{
closed = 1;
nodes = (
"0 760 LINE",
"668 760 LINE",
"668 0 LINE",
"0 0 LINE"
);
}
);
};
components = (
{
name = T;
},
{
name = commabelow;
transform = "{1, 0, 0, 1, 139, 0}";
}
);
layerId = UUID1;
width = 665;
}
);
leftKerningGroup = T;
rightKerningGroup = T;
unicode = 021A;
},
